<svg width="56" height="56" viewBox="0 0 56 56" fill="none" xmlns="http://www.w3.org/2000/svg">
<path d="M46.6661 50.4C46.6661 40.0915 38.3081 31.7335 27.9996 31.7335C17.6911 31.7335 9.33313 40.0915 9.33313 50.4H5.59961C5.59961 38.0296 15.6292 28 27.9996 28C40.37 28 50.3996 38.0296 50.3996 50.4H46.6661Z" fill="black"/>
<path d="M31.7335 5.60001C31.7335 15.9085 40.0915 24.267 50.4 24.267V28C38.0296 28 28 17.9704 28 5.60001H31.7335Z" fill="black"/>
<path d="M44.8002 16.8C47.893 16.8 50.4002 14.2928 50.4002 11.2C50.4002 8.10721 47.893 5.60001 44.8002 5.60001C41.7074 5.60001 39.2002 8.10721 39.2002 11.2C39.2002 14.2928 41.7074 16.8 44.8002 16.8Z" fill="black"/>
<path d="M27.9997 50.4006C32.1233 50.4006 35.4662 47.0577 35.4662 42.9341C35.4662 38.8104 32.1233 35.4676 27.9997 35.4676C23.8761 35.4676 20.5332 38.8104 20.5332 42.9341C20.5332 47.0577 23.8761 50.4006 27.9997 50.4006Z" fill="black"/>
<path d="M14.9331 24.267C20.0879 24.267 24.2666 20.0883 24.2666 14.9335C24.2666 9.77876 20.0879 5.60001 14.9331 5.60001C9.77837 5.60001 5.59961 9.77876 5.59961 14.9335C5.59961 20.0883 9.77837 24.267 14.9331 24.267Z" fill="black"/>
</svg>
