<svg width="56" height="56" viewBox="0 0 56 56" fill="none" xmlns="http://www.w3.org/2000/svg">
<path d="M15.7852 24.0625H22.3214V19.2412C22.322 17.501 23.0136 15.8321 24.2442 14.6016C25.4748 13.371 27.1436 12.6794 28.8839 12.6787H33.7227V6.125C33.7211 5.08119 33.3058 4.08057 32.5677 3.34249C31.8296 2.6044 30.829 2.18906 29.7852 2.1875H15.7852C14.7413 2.18907 13.7407 2.60441 13.0027 3.3425C12.2646 4.08058 11.8492 5.08119 11.8477 6.125V20.125C11.8492 21.1688 12.2646 22.1694 13.0027 22.9075C13.7407 23.6456 14.7414 24.0609 15.7852 24.0625Z" fill="black"/>
<path d="M22.3216 36.7413V31.9375H15.6104C14.5665 31.9391 13.5659 32.3544 12.8278 33.0925C12.0898 33.8306 11.6744 34.8312 11.6729 35.875V49.875C11.6744 50.9188 12.0898 51.9194 12.8278 52.6575C13.5659 53.3956 14.5665 53.8109 15.6104 53.8125H33.4254C34.4692 53.8109 35.4698 53.3956 36.2078 52.6575C36.9459 51.9194 37.3613 50.9188 37.3629 49.875V43.3038H28.8841C27.1438 43.3031 25.475 42.6115 24.2444 41.3809C23.0138 40.1504 22.3222 38.4815 22.3216 36.7413Z" fill="black"/>
<path d="M24.9463 19.2412V24.0625C26.1504 24.0578 28.5907 24.0658 29.785 24.0625C30.8289 24.0609 31.8295 23.6456 32.5675 22.9075C33.3056 22.1694 33.721 21.1688 33.7225 20.125C33.7239 18.9401 33.7216 16.4972 33.7225 15.3037H28.8838C27.84 15.3053 26.8394 15.7207 26.1013 16.4587C25.3632 17.1968 24.9479 18.1974 24.9463 19.2412Z" fill="black"/>
<path d="M39.9875 40.6787H46.3838C47.4276 40.6772 48.4282 40.2618 49.1663 39.5237C49.9044 38.7857 50.3197 37.7851 50.3213 36.7412V19.2412C50.3197 18.1974 49.9044 17.1968 49.1663 16.4587C48.4282 15.7207 47.4276 15.3053 46.3838 15.3037H36.3475C36.3484 16.5123 36.3469 18.9292 36.3475 20.125C36.3469 21.8653 35.6553 23.5341 34.4247 24.7647C33.1942 25.9953 31.5253 26.6869 29.785 26.6875C28.5925 26.6871 26.1465 26.6878 24.9463 26.6875V29.3125C26.6207 29.3123 31.6719 29.3126 33.425 29.3125C35.1653 29.3131 36.8342 30.0047 38.0647 31.2353C39.2953 32.4659 39.9869 34.1347 39.9875 35.875C39.9886 37.0572 39.9868 39.4883 39.9875 40.6787Z" fill="black"/>
<path d="M33.425 31.9375C31.6392 31.9379 26.6616 31.9372 24.9463 31.9375V36.7412C24.9479 37.785 25.3632 38.7856 26.1013 39.5237C26.8394 40.2618 27.84 40.6772 28.8838 40.6787H37.3625C37.3554 39.4846 37.3677 37.0585 37.3625 35.875C37.361 34.8312 36.9456 33.8306 36.2076 33.0925C35.4695 32.3544 34.4689 31.939 33.425 31.9375Z" fill="black"/>
<path d="M52.5 3.0625H47.25C46.5251 3.0625 45.9375 3.65013 45.9375 4.375V9.625C45.9375 10.3499 46.5251 10.9375 47.25 10.9375H52.5C53.2249 10.9375 53.8125 10.3499 53.8125 9.625V4.375C53.8125 3.65013 53.2249 3.0625 52.5 3.0625Z" fill="black"/>
<path d="M8.75 24.0625H3.5C2.77513 24.0625 2.1875 24.6501 2.1875 25.375V30.625C2.1875 31.3499 2.77513 31.9375 3.5 31.9375H8.75C9.47487 31.9375 10.0625 31.3499 10.0625 30.625V25.375C10.0625 24.6501 9.47487 24.0625 8.75 24.0625Z" fill="black"/>
<path d="M52.5 45.0625H47.25C46.5251 45.0625 45.9375 45.6501 45.9375 46.375V51.625C45.9375 52.3499 46.5251 52.9375 47.25 52.9375H52.5C53.2249 52.9375 53.8125 52.3499 53.8125 51.625V46.375C53.8125 45.6501 53.2249 45.0625 52.5 45.0625Z" fill="black"/>
</svg>
