<svg width="56" height="56" viewBox="0 0 56 56" fill="none" xmlns="http://www.w3.org/2000/svg">
<path fill-rule="evenodd" clip-rule="evenodd" d="M13.417 29.1667V26.8333C13.417 24.577 11.59 22.75 9.33366 22.75H7.00033C4.74399 22.75 2.91699 24.577 2.91699 26.8333V29.1667C2.91699 31.423 4.74399 33.25 7.00033 33.25H9.33366C11.59 33.25 13.417 31.423 13.417 29.1667Z" fill="black"/>
<path fill-rule="evenodd" clip-rule="evenodd" d="M39.0837 35C39.0837 32.746 37.2543 30.9167 35.0003 30.9167H21.0003C18.7463 30.9167 16.917 32.746 16.917 35V49C16.917 51.254 18.7463 53.0834 21.0003 53.0834H35.0003C37.2543 53.0834 39.0837 51.254 39.0837 49V35Z" fill="black"/>
<path fill-rule="evenodd" clip-rule="evenodd" d="M23.917 25.0834V18.6667C23.917 15.1224 26.7893 12.25 30.3337 12.25H39.0837V7.00002C39.0837 4.74602 37.2543 2.91669 35.0003 2.91669H21.0003C18.7463 2.91669 16.917 4.74602 16.917 7.00002V21C16.917 23.254 18.7463 25.0834 21.0003 25.0834H23.917Z" fill="black"/>
<path fill-rule="evenodd" clip-rule="evenodd" d="M26.25 28.5834H35C38.5443 28.5834 41.4167 31.4557 41.4167 35V41.4167H49C51.2563 41.4167 53.0833 39.5897 53.0833 37.3334V18.6667C53.0833 16.4104 51.2563 14.5834 49 14.5834H30.3333C28.077 14.5834 26.25 16.4104 26.25 18.6667V28.5834Z" fill="black"/>
</svg>
