<svg width="56" height="56" viewBox="0 0 56 56" fill="none" xmlns="http://www.w3.org/2000/svg">
<path d="M50.3563 6.09873C49.8341 5.40159 49.1768 4.81682 48.4236 4.37934C47.6704 3.94187 46.8368 3.66065 45.9725 3.55248C44.2644 3.37665 42.5544 3.86741 41.1995 4.9223C39.8447 5.97718 38.9496 7.51466 38.7013 9.21373L38.0625 13.2125C38.0419 13.352 37.9933 13.486 37.9196 13.6063C37.846 13.7266 37.7487 13.8307 37.6338 13.9125C37.4742 14.0284 37.2859 14.0981 37.0894 14.1141C36.8929 14.1302 36.6957 14.0918 36.5196 14.0032C36.3434 13.9147 36.195 13.7794 36.0905 13.6122C35.9861 13.4449 35.9297 13.2521 35.9275 13.055C35.8925 9.49373 33.985 7.14873 30.6775 6.62373C28.9571 6.33043 27.1906 6.73126 25.7652 7.73836C24.3398 8.74546 23.372 10.2766 23.0738 11.9962L19.7488 32.9437C19.7037 33.2411 19.6 33.5266 19.4437 33.7836C19.2873 34.0406 19.0814 34.2639 18.838 34.4406C18.5945 34.6172 18.3184 34.7438 18.0256 34.8128C17.7328 34.8818 17.4292 34.8919 17.1325 34.8425C16.7127 34.7684 16.3212 34.5808 16.0004 34.3001C15.6796 34.0194 15.4417 33.6562 15.3125 33.25C14.9935 32.3688 14.4214 31.6015 13.668 31.0443C12.9146 30.487 12.0134 30.1646 11.0775 30.1175C9.88503 30.0878 8.72275 30.4947 7.80915 31.2616C6.89555 32.0286 6.29354 33.1029 6.11627 34.2825L4.46252 44.7387C3.93752 48.0112 5.24127 50.5575 7.77877 51.205C8.1699 51.3089 8.57282 51.3618 8.97752 51.3625C10.1122 51.3643 11.2102 50.9606 12.0734 50.2242C12.9366 49.4877 13.5082 48.467 13.685 47.3462L14.035 45.1587C14.119 44.6224 14.3759 44.1282 14.7667 43.7514C15.1574 43.3746 15.6606 43.1359 16.1996 43.0715C16.7386 43.0071 17.2839 43.1206 17.7524 43.3947C18.221 43.6688 18.5871 44.0886 18.795 44.59C19.2285 45.7238 19.9719 46.713 20.9403 47.4447C21.9088 48.1765 23.0634 48.6214 24.2725 48.7287C25.9482 48.8472 27.6065 48.3263 28.9135 47.2709C30.2205 46.2156 31.079 44.7042 31.3163 43.0412L34.125 25.305C34.147 25.1534 34.1993 25.0078 34.279 24.8769C34.3587 24.7461 34.4641 24.6328 34.5888 24.5437C34.8421 24.3629 35.1559 24.2876 35.4638 24.3337C35.7118 24.3759 35.9399 24.4963 36.1147 24.6773C36.2894 24.8584 36.4017 25.0906 36.435 25.34C36.6376 26.7628 37.3054 28.0786 38.3342 29.0821C39.363 30.0856 40.6951 30.7204 42.1225 30.8875C43.8179 31.0373 45.5066 30.5352 46.8446 29.4833C48.1826 28.4315 49.0692 26.909 49.3238 25.2262L51.5725 11.0162C51.7116 10.1569 51.6756 9.27833 51.4666 8.43328C51.2575 7.58823 50.8799 6.79415 50.3563 6.09873Z" fill="black"/>
<path d="M46.7508 43.2512C45.8358 43.2504 44.9412 43.5209 44.18 44.0287C43.4189 44.5365 42.8255 45.2587 42.4749 46.1039C42.1244 46.9491 42.0324 47.8792 42.2107 48.7767C42.389 49.6741 42.8295 50.4985 43.4765 51.1455C44.1235 51.7925 44.9479 52.233 45.8453 52.4113C46.7428 52.5896 47.673 52.4977 48.5181 52.1471C49.3633 51.7966 50.0855 51.2032 50.5933 50.442C51.1011 49.6809 51.3717 48.7862 51.3708 47.8712C51.3685 46.6466 50.881 45.4728 50.0151 44.6069C49.1492 43.741 47.9754 43.2535 46.7508 43.2512Z" fill="black"/>
<path d="M44.5642 37.0213C44.565 36.4095 44.3845 35.8112 44.0453 35.3021C43.7062 34.7929 43.2236 34.3958 42.6588 34.1609C42.0939 33.926 41.4721 33.8639 40.8719 33.9824C40.2717 34.1009 39.7202 34.3947 39.287 34.8266C38.8538 35.2586 38.5584 35.8093 38.4382 36.4092C38.318 37.009 38.3784 37.631 38.6117 38.1965C38.845 38.7621 39.2408 39.2457 39.749 39.5863C40.2572 39.9269 40.8549 40.1091 41.4667 40.11C42.2862 40.1085 43.0719 39.7829 43.6522 39.2042C44.2325 38.6255 44.5604 37.8408 44.5642 37.0213Z" fill="black"/>
<path d="M14.8749 16.7038C15.7895 16.7046 16.6838 16.4343 17.4448 15.9269C18.2057 15.4194 18.7991 14.6978 19.1499 13.8531C19.5008 13.0084 19.5932 12.0787 19.4156 11.1815C19.238 10.2843 18.7984 9.4599 18.1523 8.81256C17.5062 8.16522 16.6826 7.72401 15.7857 7.54473C14.8888 7.36545 13.959 7.45615 13.1136 7.80536C12.2683 8.15456 11.5455 8.7466 11.0367 9.50659C10.5278 10.2666 10.2557 11.1604 10.2549 12.075C10.2553 13.301 10.742 14.4767 11.608 15.3444C12.4741 16.2121 13.6489 16.701 14.8749 16.7038Z" fill="black"/>
<path d="M9.59848 26.0312C10.2111 26.0312 10.81 25.8496 11.3194 25.5092C11.8287 25.1689 12.2258 24.6851 12.4602 24.1191C12.6946 23.5531 12.756 22.9303 12.6365 22.3295C12.5169 21.7286 12.2219 21.1767 11.7887 20.7435C11.3555 20.3103 10.8036 20.0153 10.2028 19.8958C9.60191 19.7762 8.97911 19.8376 8.41311 20.072C7.84712 20.3065 7.36336 20.7035 7.023 21.2129C6.68264 21.7222 6.50098 22.3211 6.50098 22.9337C6.50075 23.3406 6.58071 23.7435 6.73629 24.1194C6.89187 24.4953 7.12003 24.8368 7.4077 25.1245C7.69538 25.4122 8.03693 25.6403 8.41284 25.7959C8.78875 25.9515 9.19164 26.0315 9.59848 26.0312Z" fill="black"/>
</svg>
