<svg width="20" height="20" viewBox="0 0 20 20" fill="none" xmlns="http://www.w3.org/2000/svg">
<g clip-path="url(#clip0_2041_2179)">
<path d="M0.585067 15.2736H15.8983C16.0356 15.2736 16.1683 15.2256 16.2736 15.138C16.4207 15.0148 19.7758 12.1286 19.9804 5.89819H3.53434C3.33054 11.5537 0.240637 14.2119 0.208527 14.2385C0.020276 14.3975 -0.0489849 14.6573 0.0357064 14.8885C0.119812 15.1191 0.339001 15.2736 0.585067 15.2736Z" fill="#EFE3CD"/>
<path d="M19.4138 2.38244H16.484V1.79647C16.484 1.46833 16.2262 1.21051 15.898 1.21051C15.5699 1.21051 15.3121 1.46833 15.3121 1.79647V2.38244H12.3432V1.79647C12.3432 1.46833 12.0853 1.21051 11.7572 1.21051C11.4291 1.21051 11.1712 1.46833 11.1712 1.79647V2.38244H8.24142V1.79647C8.24142 1.46833 7.9836 1.21051 7.65546 1.21051C7.32732 1.21051 7.06949 1.46833 7.06949 1.79647V2.38244H4.13967C3.81154 2.38244 3.55371 2.64026 3.55371 2.9684V4.72629H19.9998V2.9684C19.9998 2.64026 19.7419 2.38244 19.4138 2.38244Z" fill="#EFE3CD"/>
<path d="M17.0259 16.0365C16.7077 16.3014 16.3083 16.4456 15.898 16.4456H3.55371V18.2035C3.55371 18.5274 3.81579 18.7895 4.13967 18.7895H19.4138C19.7377 18.7895 19.9998 18.5274 19.9998 18.2035V11.635C18.87 14.4067 17.2935 15.8124 17.0259 16.0365Z" fill="#EFE3CD"/>
</g>
<defs>
<clipPath id="clip0_2041_2179">
<rect width="20" height="20" fill="white"/>
</clipPath>
</defs>
</svg>
