<svg width="24" height="24" viewBox="0 0 24 24" fill="none" xmlns="http://www.w3.org/2000/svg">
<path d="M20.3205 1.0775H10.856C9.3785 1.0775 8.1765 2.27925 8.1765 3.75725V8.51575H3.67775C2.20125 8.516 1 9.71775 1 11.1943V17.1443C1 18.6208 2.20125 19.8228 3.67775 19.8228H4.097V21.6758C4.097 22.179 4.3835 22.6175 4.84475 22.8183C5.00525 22.8883 5.17525 22.9225 5.34375 22.9225C5.65325 22.9225 5.95875 22.8075 6.1965 22.587L9.13925 19.8228H13.145C14.622 19.8228 15.8235 18.621 15.8235 17.1443V13.2853L17.8055 15.142C18.041 15.364 18.347 15.48 18.6572 15.48C18.824 15.48 18.9925 15.4458 19.1518 15.377C19.6073 15.1803 19.9018 14.7313 19.9018 14.2345V12.3868H20.3207C21.798 12.387 23 11.185 23 9.70725V3.75725C23 2.2795 21.798 1.0775 20.3205 1.0775ZM13.145 18.4703H8.87175C8.69975 18.4703 8.534 18.5363 8.40875 18.6538L5.4495 21.434V19.1465C5.4495 18.7728 5.14675 18.4703 4.77325 18.4703H3.67775C2.947 18.4703 2.3525 17.876 2.3525 17.1443V11.1943C2.3525 10.4625 2.947 9.86825 3.67775 9.86825H8.18475C8.26875 11.271 9.433 12.387 10.856 12.387H14.4707V17.1443C14.471 17.876 13.876 18.4703 13.145 18.4703ZM21.6475 9.70725C21.6475 10.439 21.0522 11.0345 20.3205 11.0345H19.2253C18.8517 11.0345 18.549 11.337 18.549 11.7107V13.9865C18.549 13.9865 15.619 11.2367 15.6135 11.2315L15.5995 11.2183L15.5977 11.2203L15.5942 11.217C15.469 11.0995 15.3035 11.0347 15.1318 11.0347H10.856C10.1243 11.0347 9.529 10.439 9.529 9.7075V9.70625H9.534L9.529 3.75775C9.529 3.026 10.1243 2.4305 10.856 2.4305H20.3205C21.0522 2.4305 21.6475 3.02625 21.6475 3.75775V9.70725Z" fill="#EFE3CD"/>
<path d="M18.293 4.662H12.8835C12.51 4.662 12.2073 4.9645 12.2073 5.33825C12.2073 5.712 12.51 6.0145 12.8835 6.0145H18.2933C18.6668 6.0145 18.9695 5.712 18.9695 5.33825C18.9695 4.9645 18.6665 4.662 18.293 4.662Z" fill="#EFE3CD"/>
<path d="M18.293 7.36674H12.8835C12.51 7.36674 12.2073 7.66925 12.2073 8.043C12.2073 8.41675 12.51 8.71925 12.8835 8.71925H18.2933C18.6668 8.71925 18.9695 8.41675 18.9695 8.043C18.9695 7.66925 18.6665 7.36674 18.293 7.36674Z" fill="#EFE3CD"/>
<path d="M5.71295 13.5095C5.63195 13.536 5.5642 13.59 5.4967 13.6442C5.37495 13.779 5.2937 13.956 5.2937 14.1315C5.2937 14.307 5.3747 14.4827 5.4967 14.6042C5.63195 14.739 5.7942 14.8077 5.96995 14.8077C6.06445 14.8077 6.15945 14.78 6.24045 14.7535C6.3217 14.7257 6.3892 14.6715 6.4567 14.6042C6.57845 14.4827 6.6597 14.307 6.6597 14.1315C6.6597 13.956 6.57845 13.7787 6.4567 13.6442C6.26745 13.4687 5.96995 13.4012 5.71295 13.5095Z" fill="#EFE3CD"/>
<path d="M8.94521 13.5095C8.68821 13.4012 8.39071 13.4685 8.20146 13.6443C8.07971 13.779 8.01221 13.956 8.01221 14.1315C8.01221 14.307 8.07971 14.4828 8.20146 14.6043C8.26896 14.6715 8.33671 14.7258 8.41771 14.7535C8.51246 14.78 8.59346 14.8078 8.68821 14.8078C8.86421 14.8078 9.02646 14.739 9.16171 14.6043C9.28346 14.4828 9.36471 14.307 9.36471 14.1315C9.36471 13.956 9.28346 13.7788 9.16171 13.6443C9.09396 13.5903 9.02646 13.536 8.94521 13.5095Z" fill="#EFE3CD"/>
<path d="M11.6502 13.5095C11.488 13.4408 11.2985 13.4408 11.1227 13.5095C11.0417 13.536 10.974 13.59 10.9065 13.6443C10.7847 13.779 10.7035 13.956 10.7035 14.1315C10.7035 14.307 10.7845 14.4828 10.9065 14.6043C11.0417 14.739 11.204 14.8078 11.38 14.8078C11.4745 14.8078 11.5692 14.78 11.6505 14.7535C11.7317 14.7258 11.7992 14.6715 11.867 14.6043C11.9887 14.4828 12.0562 14.307 12.0562 14.1315C12.0562 13.956 11.9885 13.7788 11.867 13.6443C11.799 13.5903 11.7315 13.536 11.6502 13.5095Z" fill="#EFE3CD"/>
<path d="M4.62498 6.69075H5.97748C6.35098 6.69075 6.65373 6.38825 6.65373 6.0145C6.65373 5.64075 6.35098 5.33825 5.97748 5.33825H4.62498C4.25148 5.33825 3.94873 5.64075 3.94873 6.0145C3.94848 6.38825 4.25123 6.69075 4.62498 6.69075Z" fill="#EFE3CD"/>
<path d="M19.5015 17.51H18.149C17.7755 17.51 17.4728 17.8125 17.4728 18.1862C17.4728 18.56 17.7755 18.8625 18.149 18.8625H19.5015C19.875 18.8625 20.1778 18.56 20.1778 18.1862C20.1778 17.8125 19.875 17.51 19.5015 17.51Z" fill="#EFE3CD"/>
</svg>
