<svg width="88" height="88" viewBox="0 0 88 88" fill="none" xmlns="http://www.w3.org/2000/svg">
<path d="M44.6652 65.4329C39.8829 65.4329 35.9923 61.5384 35.9923 56.7502V30.1058C35.9923 25.3235 39.8829 21.4329 44.6652 21.4329H65.1985V16.9742C65.1985 13.7964 62.6074 11.2053 59.4296 11.2053H52.6145C52.6145 11.2249 52.6047 11.2444 52.5949 11.264L51.4021 14.1973C51.1772 14.7547 50.6394 15.1164 50.0429 15.1164H39.7567C39.1701 15.1164 38.6421 14.7644 38.4074 14.2169L37.1265 11.2053H29.9007C26.7229 11.2053 24.1318 13.7964 24.1318 16.9742V72.8933C24.1318 76.0809 26.7229 78.672 29.9007 78.672H59.4296C62.6074 78.672 65.1985 76.0809 65.1985 72.8933V65.4329H44.6652ZM49.3781 76.2667H40.5781C39.7675 76.2667 39.1114 75.6096 39.1114 74.8C39.1114 73.9904 39.7675 73.3333 40.5781 73.3333H49.3781C50.1886 73.3333 50.8447 73.9904 50.8447 74.8C50.8447 75.6096 50.1886 76.2667 49.3781 76.2667Z" fill="#FFB727"/>
<path d="M75.2309 23.3884H44.6656C40.9598 23.3884 37.9482 26.4 37.9482 30.1058V56.7502C37.9482 60.456 40.9598 63.4773 44.6656 63.4773H75.2309C78.9367 63.4773 81.9482 60.456 81.9482 56.7502V30.1058C81.9482 26.4 78.9367 23.3884 75.2309 23.3884ZM79.0149 56.7502C79.0149 58.8427 77.3136 60.544 75.2309 60.544H44.6656C42.5829 60.544 40.8816 58.8427 40.8816 56.7502V30.1058C40.8816 28.0133 42.5829 26.3218 44.6656 26.3218H75.2309C77.3136 26.3218 79.0149 28.0133 79.0149 30.1058V56.7502Z" fill="#FFB727"/>
<path d="M51.6352 57.6057C52.7153 57.6057 53.5908 56.7302 53.5908 55.6501C53.5908 54.5701 52.7153 53.6946 51.6352 53.6946C50.5552 53.6946 49.6797 54.5701 49.6797 55.6501C49.6797 56.7302 50.5552 57.6057 51.6352 57.6057Z" fill="#FFB727"/>
<path d="M77.46 38.8862L75.964 36.2951L76.6094 33.3813C76.7854 32.6089 76.316 31.8462 75.5631 31.6409L72.6689 30.8684L71.0654 28.3458C70.6449 27.6809 69.7747 27.4755 69.0903 27.8667L66.5089 29.3627L63.5854 28.7173C62.8227 28.5511 62.0502 29.0107 61.8449 29.7733L61.0822 32.6578L58.5596 34.2613C57.9338 34.6622 57.7187 35.4444 58.012 36.0995H49.564L49.1045 35.024C48.8698 34.4862 48.3418 34.144 47.7551 34.144H44.3036C43.492 34.144 42.8369 34.7991 42.8369 35.6107C42.8369 36.4124 43.492 37.0773 44.3036 37.0773H46.7969L50.6005 45.8969C48.8209 46.0044 47.3934 47.4809 47.3934 49.2995C47.3934 51.1769 48.9285 52.7218 50.8156 52.7218H62.8814C63.6929 52.7218 64.348 52.0569 64.348 51.2551C64.348 50.4435 63.6929 49.7884 62.8814 49.7884H50.8156C50.5516 49.7884 50.3267 49.5635 50.3267 49.2995C50.3267 49.0258 50.5516 48.8107 50.8156 48.8107H64.0156C64.6218 48.8107 65.1596 48.4391 65.3845 47.872L65.5605 47.432C65.6094 47.4418 65.6582 47.4515 65.7169 47.4515C65.9614 47.4515 66.2156 47.3929 66.4502 47.256L69.0316 45.76L71.9551 46.4053C72.7178 46.5715 73.4902 46.112 73.6858 45.3493L74.4582 42.4649L76.9809 40.8613C77.6458 40.4311 77.8609 39.5609 77.46 38.8862ZM72.4049 40.2942C72.092 40.4898 71.8671 40.8027 71.7694 41.1547L71.212 43.2373L69.1098 42.768C68.7578 42.6898 68.3765 42.7484 68.0538 42.9342L66.196 44.0098L65.0325 42.1911C64.8369 41.888 64.5338 41.6631 64.172 41.5653L62.0894 41.008L62.5587 38.9058C62.6369 38.544 62.5782 38.1724 62.3925 37.8498L61.3169 35.9822L63.1356 34.8284C63.4485 34.6329 63.6734 34.32 63.7614 33.968L64.3187 31.8853L66.4307 32.3547C66.7827 32.4329 67.164 32.3742 67.4769 32.1884L69.3445 31.1129L70.4982 32.9315C70.7036 33.2347 71.0067 33.4595 71.3587 33.5573L73.4414 34.1147L72.9818 36.2169C72.8938 36.5787 72.9525 36.9502 73.1383 37.2729L74.2236 39.1404L72.4049 40.2942Z" fill="#FFB727"/>
<path d="M61.4136 57.6057C62.4936 57.6057 63.3691 56.7302 63.3691 55.6501C63.3691 54.5701 62.4936 53.6946 61.4136 53.6946C60.3335 53.6946 59.458 54.5701 59.458 55.6501C59.458 56.7302 60.3335 57.6057 61.4136 57.6057Z" fill="#FFB727"/>
<path d="M67.0646 41.0139C66.6891 41.0139 66.3137 40.8711 66.0272 40.5846L64.6211 39.1786C64.0482 38.6056 64.0482 37.6777 64.6211 37.1047C65.1941 36.5318 66.122 36.5318 66.695 37.1047L67.0636 37.4734L69.158 35.379C69.731 34.806 70.6589 34.806 71.2319 35.379C71.8049 35.9519 71.8049 36.8798 71.2319 37.4528L68.1011 40.5837C67.8155 40.8711 67.4401 41.0139 67.0646 41.0139Z" fill="#FFB727"/>
<path d="M49.4557 11.2053L49.0548 12.1831H40.7241L40.3135 11.2053H49.4557Z" fill="#FFB727"/>
</svg>
