<svg width="80" height="81" viewBox="0 0 80 81" fill="none" xmlns="http://www.w3.org/2000/svg">
<path d="M79.995 40.5101V40.771C79.9865 41.5956 79.9613 42.4203 79.9024 43.2365C79.8519 43.977 79.7846 44.7091 79.692 45.4328C79.6247 45.9714 79.549 46.5099 79.4649 47.0401C79.3975 47.4524 79.3218 47.8731 79.2377 48.2771C79.0694 49.1438 78.8674 50.0021 78.6403 50.8436C78.3289 52.0301 77.9587 53.1998 77.5295 54.3442C77.1088 55.5054 76.6292 56.6498 76.0991 57.7606C75.1315 59.7802 73.9955 61.6988 72.725 63.5164C70.0661 67.2778 66.7845 70.5596 63.0233 73.2103C61.2142 74.4894 59.2957 75.617 57.2847 76.5762C56.1656 77.1232 55.0128 77.6029 53.8348 78.0404C53.1196 78.3013 52.396 78.5453 51.6639 78.7725C51.2264 78.9072 50.7804 79.0334 50.3345 79.1512C49.493 79.3784 48.6432 79.5804 47.7765 79.7402C46.8425 79.9338 45.8917 80.0852 44.9325 80.1946C44.2004 80.2956 43.4684 80.3629 42.7279 80.4134C41.9202 80.4723 41.0955 80.4976 40.2709 80.4976C40.1784 80.506 40.0942 80.506 40.0017 80.506C39.4379 80.506 38.8826 80.4976 38.3188 80.4639C37.5784 80.4387 36.8379 80.3882 36.0974 80.3124C35.5 80.262 34.911 80.1862 34.322 80.1021C33.632 80.0095 32.9505 79.8917 32.2773 79.7571C31.7304 79.6561 31.1919 79.5383 30.6534 79.4036C30.0139 79.2522 29.3912 79.0839 28.7686 78.9072C28.2637 78.7557 27.7588 78.6042 27.2624 78.4275C26.6734 78.234 26.0928 78.0236 25.5206 77.7964C25.041 77.6197 24.5698 77.4261 24.107 77.2242C23.5601 76.9886 23.0216 76.7361 22.4831 76.4669C22.0455 76.2565 21.608 76.0377 21.1704 75.8021C20.6572 75.5244 20.1439 75.2383 19.639 74.9438C19.2267 74.6997 18.8144 74.4473 18.4105 74.1864C17.9309 73.8751 17.4597 73.5637 16.9969 73.2271C16.6099 72.9578 16.2228 72.6802 15.8442 72.3941C15.3982 72.049 14.9522 71.6956 14.5231 71.3422C14.1613 71.0393 13.8079 70.7363 13.4545 70.425C13.0338 70.0547 12.6215 69.6676 12.2176 69.2721C11.8726 68.9524 11.5444 68.6242 11.2331 68.2876C10.8376 67.8837 10.4506 67.4714 10.0804 67.0506C9.76902 66.6972 9.46611 66.3438 9.1632 65.9819C8.80979 65.5528 8.45639 65.1068 8.11141 64.6608C7.82532 64.2821 7.54765 63.9035 7.26997 63.5164C6.95023 63.0451 6.63048 62.5739 6.31915 62.0943C6.05831 61.6903 5.80588 61.278 5.56187 60.8657C5.25895 60.3608 4.97286 59.8475 4.7036 59.3342C4.468 58.905 4.24923 58.4674 4.03046 58.0299C3.76962 57.4913 3.51718 56.9444 3.28158 56.3974C3.07964 55.9346 2.88611 55.4633 2.701 54.9921C2.48222 54.4115 2.27187 53.8309 2.07834 53.2418C1.90164 52.7453 1.74176 52.2405 1.59872 51.7356C1.4136 51.1129 1.24532 50.4902 1.10227 49.8506C0.967645 49.3121 0.849846 48.7735 0.748874 48.2266C0.614245 47.5534 0.496441 46.8718 0.403884 46.1817C0.319741 45.5927 0.244012 45.0037 0.193526 44.4062C0.117797 43.6657 0.0673107 42.9252 0.0420678 42.1847C0.00841047 41.6293 0 41.0739 0 40.5101C0 40.4176 -4.62194e-06 40.325 0.0084097 40.2324C0.0084097 39.4078 0.0336578 38.5915 0.092558 37.7753C0.143044 37.0348 0.210359 36.3111 0.302916 35.579C0.420717 34.6197 0.572169 33.6688 0.757284 32.7348C0.92557 31.8681 1.12752 31.0097 1.35471 30.1683C1.66604 28.9818 2.03626 27.8205 2.44856 26.6845C2.88611 25.5064 3.37414 24.3536 3.91265 23.2344C4.87189 21.2233 5.99941 19.3131 7.26997 17.5039C9.92048 13.7424 13.2105 10.4438 16.9801 7.79313C18.7976 6.51407 20.7161 5.38648 22.7271 4.42718C23.8462 3.88022 24.9989 3.39216 26.1685 2.963C27.3045 2.54226 28.4741 2.172 29.6605 1.86065C30.5019 1.63345 31.3602 1.43149 32.2268 1.26319C33.1608 1.07807 34.1117 0.926597 35.0709 0.808789C35.7945 0.716225 36.5266 0.648906 37.267 0.598417C38.0832 0.539513 38.8994 0.51427 39.724 0.51427C39.8166 0.505855 39.9091 0.505859 40.0017 0.505859C40.5654 0.505859 41.1208 0.51427 41.6761 0.54793C42.4166 0.573174 43.1571 0.623664 43.8975 0.699398C44.4949 0.749887 45.0839 0.825621 45.6729 0.909769C46.3629 1.00233 47.0445 1.12014 47.7176 1.25478C48.2645 1.35576 48.8031 1.47357 49.3416 1.6082C49.9811 1.75126 50.6037 1.91955 51.2264 2.10468C51.7312 2.24773 52.2361 2.40761 52.7325 2.58433C53.3215 2.77787 53.9021 2.98824 54.4827 3.20703C54.9539 3.39216 55.4251 3.5857 55.8879 3.78765C56.4348 4.02327 56.9818 4.27571 57.5203 4.53657C57.9578 4.74695 58.3954 4.97415 58.8245 5.20977C59.3378 5.47904 59.8511 5.76514 60.3559 6.06808C60.7682 6.31211 61.1805 6.56456 61.5844 6.82542C62.064 7.12835 62.5352 7.44812 63.0064 7.7763C63.3935 8.05399 63.7721 8.33168 64.1508 8.61779C64.5967 8.95438 65.0427 9.30781 65.4718 9.66965C65.8337 9.96417 66.187 10.2671 66.5405 10.5869C66.9612 10.9571 67.3819 11.3442 67.7858 11.7313C68.1224 12.0595 68.4421 12.3792 68.7703 12.7158C69.1573 13.1197 69.5444 13.5405 69.9146 13.9612C70.2343 14.3147 70.5373 14.6681 70.8318 15.0299C71.1936 15.4591 71.547 15.9051 71.8836 16.351C72.1696 16.7297 72.4473 17.1084 72.725 17.4955C73.0531 17.9667 73.3729 18.4379 73.6758 18.9176C73.9366 19.3215 74.1891 19.7338 74.4331 20.1462C74.736 20.651 75.0221 21.1644 75.2914 21.6777C75.527 22.1068 75.7541 22.5444 75.9561 22.9904C76.2253 23.5205 76.4778 24.0675 76.7134 24.6144C76.9153 25.0773 77.1088 25.5485 77.294 26.0197C77.5127 26.6004 77.7231 27.181 77.9166 27.77C78.0933 28.2665 78.2532 28.7714 78.3962 29.2763C78.5813 29.899 78.7496 30.5301 78.8927 31.1612C79.0273 31.6998 79.1451 32.2383 79.2461 32.7853C79.3807 33.4585 79.4985 34.1401 79.5911 34.8301C79.6752 35.4191 79.7509 36.0082 79.8014 36.6056C79.8772 37.3377 79.9276 38.0782 79.9529 38.8272C79.9865 39.3825 79.995 39.9463 79.995 40.5101Z" fill="#2C2C2C"/>
<path d="M40.0029 77.1405C39.5065 77.1405 39.0176 77.1346 38.5212 77.1043L38.4336 77.1001C37.7731 77.0774 37.1033 77.032 36.4428 76.9638C35.8496 76.9125 35.3245 76.8443 34.7995 76.7694C34.192 76.6878 33.592 76.5868 32.9382 76.4564C32.4123 76.3588 31.9411 76.2553 31.4699 76.1383C30.8406 75.9885 30.265 75.8328 29.6895 75.6688C29.2856 75.5476 28.8354 75.4138 28.3928 75.2564C27.7904 75.0578 27.2729 74.8702 26.7638 74.6682C26.2682 74.4848 25.8584 74.3156 25.4562 74.1398C24.9497 73.9218 24.4701 73.6963 23.9888 73.4557C23.5512 73.2444 23.16 73.0501 22.7687 72.8388C22.2924 72.5805 21.8103 72.3129 21.3366 72.0361C20.9798 71.8248 20.6054 71.596 20.2385 71.3587C19.8153 71.0835 19.3929 70.8058 18.978 70.5046C18.5683 70.2193 18.2165 69.9668 17.8732 69.7077C17.487 69.4081 17.068 69.0757 16.6641 68.7442C16.3452 68.4774 16.0128 68.1921 15.6813 67.8993C15.3027 67.5661 14.9341 67.2202 14.5731 66.866L14.5092 66.8054C14.2282 66.5437 13.9606 66.2769 13.7056 66.0026L13.64 65.9328C13.2858 65.5709 12.9391 65.2023 12.6067 64.8254C12.3156 64.4947 12.0303 64.1623 11.7451 63.8223C11.4304 63.4386 11.098 63.0195 10.7732 62.6005C10.5359 62.2866 10.2835 61.9416 10.0303 61.5899C9.7206 61.1338 9.42779 60.7021 9.14254 60.262C8.90946 59.901 8.68059 59.5265 8.45845 59.1521C8.17741 58.6842 7.9233 58.2273 7.68434 57.7712C7.44285 57.3311 7.24763 56.9398 7.05242 56.5485C6.82019 56.0689 6.58879 55.5682 6.37255 55.0666C6.17986 54.6249 6.00316 54.1932 5.83235 53.7607C5.64807 53.2709 5.4537 52.7357 5.27532 52.1921C5.09693 51.6872 4.95978 51.253 4.83693 50.8188C4.6434 50.1675 4.50036 49.6247 4.38676 49.1165C4.24961 48.5653 4.14696 48.0941 4.05861 47.6153C3.91977 46.9202 3.81796 46.3202 3.73971 45.7337C3.66145 45.1825 3.59245 44.6566 3.54701 44.1231C3.47381 43.4011 3.42837 42.7304 3.40565 42.0707L3.40145 41.9807C3.372 41.4926 3.36527 41.0054 3.36527 40.5098L3.35938 40.5451L3.37368 40.3886V40.2321C3.37368 39.4428 3.39808 38.7191 3.44941 38.0181C3.49905 37.286 3.56216 36.6314 3.6421 36.0019C3.75148 35.1091 3.89116 34.2348 4.05861 33.3891C4.20754 32.6208 4.39013 31.8374 4.60386 31.0456C4.88153 29.9853 5.20969 28.9419 5.61189 27.8319C6.00736 26.7675 6.45837 25.7038 6.94472 24.694C7.8055 22.8882 8.83962 21.1236 10.0235 19.4373C12.4687 15.9678 15.4609 12.9747 18.9149 10.5453C20.5911 9.36552 22.3606 8.32965 24.1747 7.46376C25.1987 6.96391 26.2489 6.51624 27.3276 6.12074C28.376 5.73282 29.4455 5.39538 30.5141 5.11433C31.3235 4.89554 32.1086 4.71294 32.8684 4.56568C33.7267 4.3957 34.6018 4.25601 35.4811 4.14746C36.1147 4.06667 36.7684 4.00441 37.4954 3.95476C38.2107 3.90343 38.9351 3.87902 39.7236 3.87902H39.8792L39.9701 3.87061C40.5145 3.87061 40.9941 3.87734 41.4746 3.90595L41.5604 3.91016C42.2226 3.93288 42.8941 3.97916 43.5563 4.04648C44.147 4.09697 44.672 4.16513 45.1971 4.24002C45.8071 4.32164 46.4054 4.42262 47.0566 4.5539C47.5842 4.65151 48.0546 4.75417 48.5249 4.87198L48.6074 4.89133C49.1181 5.00577 49.6466 5.14462 50.2692 5.32974C50.743 5.46438 51.178 5.60239 51.6054 5.75386C52.2256 5.95918 52.7616 6.15356 53.2967 6.35552C53.6846 6.50867 54.1188 6.68622 54.5437 6.87135C55.057 7.09266 55.5585 7.32491 56.0532 7.56389C56.4453 7.75238 56.829 7.95182 57.2052 8.15798C57.7167 8.42726 58.1745 8.68223 58.6238 8.9515C59.0176 9.18459 59.392 9.41432 59.7597 9.65162C60.2242 9.9453 60.6542 10.2373 61.0833 10.536C61.4089 10.77 61.7649 11.0308 62.1216 11.3009C62.5213 11.6022 62.9193 11.9177 63.3013 12.24C63.664 12.5362 63.9736 12.8013 64.2824 13.0807C64.7023 13.4501 65.0868 13.8044 65.4571 14.1595C65.7507 14.4464 66.0511 14.746 66.3582 15.0615C66.6957 15.4133 67.0499 15.7978 67.3882 16.1824C67.6987 16.5266 67.9637 16.8354 68.2212 17.1526C68.5822 17.5809 68.8969 17.9781 69.1964 18.3753C69.4682 18.7346 69.729 19.0914 69.9907 19.4558C70.2625 19.8471 70.5545 20.2762 70.8305 20.713C71.0854 21.1085 71.3151 21.4838 71.5356 21.8574C71.8166 22.3261 72.0707 22.7822 72.3097 23.2383C72.5722 23.7171 72.7464 24.0596 72.8886 24.3759L72.9559 24.5148C73.1747 24.9448 73.3985 25.4261 73.6232 25.9462C73.8142 26.3837 73.9917 26.8179 74.1625 27.2513C74.346 27.7402 74.5412 28.2762 74.7196 28.8198C74.898 29.3247 75.0359 29.7598 75.1596 30.1948C75.3439 30.8167 75.492 31.3788 75.6106 31.9039C75.7461 32.4475 75.8488 32.9179 75.9371 33.3958C76.076 34.0918 76.1778 34.6909 76.256 35.2782C76.3351 35.8311 76.4033 36.3553 76.4487 36.888C76.5219 37.6041 76.5674 38.2731 76.5901 38.9387L76.5943 39.0296C76.6237 39.5177 76.6305 40.0133 76.6305 40.5089V40.7698C76.6212 41.6079 76.5951 42.3249 76.5463 42.9921C76.4958 43.7327 76.4344 44.3857 76.3545 45.0042C76.2905 45.5183 76.2198 46.0198 76.1416 46.5138C76.0844 46.8622 76.0179 47.2349 75.943 47.5926C75.7873 48.3903 75.6048 49.1746 75.391 49.9647C75.1016 51.0687 74.7633 52.1357 74.3788 53.1607C73.9842 54.2504 73.5449 55.2972 73.0628 56.3104C72.2037 58.1019 71.162 59.8791 69.968 61.5865C67.5295 65.0357 64.5382 68.0247 61.0858 70.4583C59.4223 71.6338 57.6578 72.6689 55.837 73.5373C54.8576 74.0152 53.8293 74.452 52.6639 74.8845C52.0177 75.1201 51.3463 75.3465 50.6672 75.5577C50.281 75.6763 49.878 75.7899 49.4749 75.8968C48.6242 76.1265 47.8754 76.2999 47.1669 76.4303C46.2707 76.6154 45.415 76.7517 44.5509 76.851C43.8895 76.9411 43.2441 77.005 42.4994 77.0555C41.7977 77.1069 41.053 77.1321 40.2722 77.1321H40.1232L40.0029 77.1405Z" fill="#EFE3CD"/>
<path d="M22.7353 4.42603L3.9209 23.2332C4.88013 21.2221 6.00766 19.3119 7.27822 17.5027L16.9883 7.79197C18.8058 6.51291 20.7243 5.38532 22.7353 4.42603Z" fill="#2C2C2C"/>
<path d="M29.67 1.85986L1.36426 30.1675C1.67559 28.981 2.04581 27.8197 2.45812 26.6837L26.1781 2.96222C27.314 2.54147 28.4836 2.17121 29.67 1.85986Z" fill="#2C2C2C"/>
<path d="M35.0775 0.807129L0.30957 35.5774C0.427371 34.6181 0.578823 33.6672 0.763938 32.7331L32.2335 1.26153C33.1675 1.07641 34.1183 0.924937 35.0775 0.807129Z" fill="#2C2C2C"/>
<path d="M39.7303 0.513184L0.0146484 40.2314C0.0146484 39.4067 0.0398965 38.5905 0.0987968 37.7742L37.2733 0.597331C38.0895 0.538427 38.9057 0.513184 39.7303 0.513184Z" fill="#2C2C2C"/>
<path d="M43.9043 0.698343L0.200286 44.4052C0.124557 43.6646 0.0740711 42.9241 0.0488281 42.1836L41.6829 0.546875C42.4234 0.57212 43.1638 0.622609 43.9043 0.698343Z" fill="#2C2C2C"/>
<path d="M47.7239 1.25322L0.755147 48.225C0.620517 47.5518 0.502714 46.8702 0.410156 46.1802L45.6792 0.908203C46.3692 1.00077 47.0508 1.11858 47.7239 1.25322Z" fill="#2C2C2C"/>
<path d="M51.2325 2.10341L1.60484 51.7343C1.41973 51.1116 1.25144 50.4889 1.1084 49.8493L49.3477 1.60693C49.9872 1.74999 50.6099 1.91828 51.2325 2.10341Z" fill="#2C2C2C"/>
<path d="M54.4894 3.2062L2.70762 54.9913C2.48885 54.4107 2.27849 53.83 2.08496 53.241L52.7392 2.5835C53.3282 2.77704 53.9088 2.98741 54.4894 3.2062Z" fill="#2C2C2C"/>
<path d="M57.5258 4.53457L4.03599 58.0279C3.77515 57.4893 3.52271 56.9423 3.28711 56.3954L55.8935 3.78564C56.4404 4.02126 56.9873 4.27371 57.5258 4.53457Z" fill="#2C2C2C"/>
<path d="M60.3594 6.06657L5.5653 60.8642C5.26238 60.3593 4.97629 59.846 4.70703 59.3327L58.828 5.20825C59.3412 5.47753 59.8545 5.76363 60.3594 6.06657Z" fill="#2C2C2C"/>
<path d="M63.0125 7.77486L7.27602 63.5149C6.95627 63.0437 6.63653 62.5725 6.3252 62.0928L61.5905 6.82397C62.0701 7.12691 62.5413 7.44668 63.0125 7.77486Z" fill="#2C2C2C"/>
<path d="M65.4786 9.66831L9.16995 65.9806C8.81655 65.5514 8.46315 65.1054 8.11816 64.6595L64.1576 8.61646C64.6035 8.95305 65.0495 9.30647 65.4786 9.66831Z" fill="#2C2C2C"/>
<path d="M67.7884 11.7304L11.2358 68.2867C10.8403 67.8828 10.4532 67.4704 10.083 67.0497L66.5431 10.5859C66.9638 10.9562 67.3846 11.3433 67.7884 11.7304Z" fill="#2C2C2C"/>
<path d="M69.9246 13.9602L13.4644 70.424C13.0437 70.0537 12.6314 69.6667 12.2275 69.2712L68.7802 12.7148C69.1673 13.1188 69.5543 13.5395 69.9246 13.9602Z" fill="#2C2C2C"/>
<path d="M71.8878 16.3504L15.8484 72.3934C15.4024 72.0484 14.9565 71.695 14.5273 71.3416L70.836 15.0293C71.1978 15.4585 71.5512 15.9044 71.8878 16.3504Z" fill="#2C2C2C"/>
<path d="M73.6847 18.9167L18.4195 74.1856C17.9398 73.8742 17.4686 73.5629 17.0059 73.2263L72.7339 17.4946C73.0621 17.9659 73.3818 18.4371 73.6847 18.9167Z" fill="#2C2C2C"/>
<path d="M75.2969 21.6768L21.1759 75.8012C20.6627 75.5235 20.1494 75.2374 19.6445 74.9429L74.4386 20.1453C74.7415 20.6502 75.0276 21.1635 75.2969 21.6768Z" fill="#2C2C2C"/>
<path d="M76.7225 24.6136L24.1161 77.2233C23.5692 76.9877 23.0307 76.7352 22.4922 76.466L75.9652 22.9895C76.2345 23.5196 76.4869 24.0666 76.7225 24.6136Z" fill="#2C2C2C"/>
<path d="M77.9214 27.7681L27.2672 78.4256C26.6782 78.2321 26.0976 78.0217 25.5254 77.7945L77.2987 26.0178C77.5175 26.5984 77.7278 27.1791 77.9214 27.7681Z" fill="#2C2C2C"/>
<path d="M78.8995 31.1601L30.6602 79.4025C30.0207 79.251 29.3981 79.0827 28.7754 78.906L78.4031 29.2751C78.5882 29.8978 78.7565 30.529 78.8995 31.1601Z" fill="#2C2C2C"/>
<path d="M79.6008 34.829L34.3318 80.101C33.6418 80.0084 32.9603 79.8906 32.2871 79.756L79.2559 32.7842C79.3905 33.4574 79.5083 34.139 79.6008 34.829Z" fill="#2C2C2C"/>
<path d="M79.9619 38.8253L38.3278 80.462C37.5874 80.4368 36.8469 80.3863 36.1064 80.3106L79.8104 36.6038C79.8862 37.3359 79.9366 38.0764 79.9619 38.8253Z" fill="#2C2C2C"/>
<path d="M80.0014 40.7693C79.993 41.5939 79.9677 42.4186 79.9088 43.2348L42.7343 80.4117C41.9265 80.4706 41.1019 80.4959 40.2773 80.4959L80.0014 40.7693Z" fill="#2C2C2C"/>
<path d="M79.6981 45.4319C79.6307 45.9704 79.555 46.509 79.4709 47.0391C79.4035 47.4515 79.3278 47.8722 79.2437 48.2761L47.7825 79.7393C46.8485 79.9328 45.8977 80.0843 44.9385 80.1937L79.6981 45.4319Z" fill="#2C2C2C"/>
<path d="M78.6466 50.842C78.3353 52.0285 77.965 53.1982 77.5359 54.3426L53.8412 78.0389C53.126 78.2997 52.4023 78.5438 51.6703 78.771C51.2327 78.9056 50.7868 79.0318 50.3408 79.1497L78.6466 50.842Z" fill="#2C2C2C"/>
<path d="M76.1045 57.7593C75.1368 59.7788 74.0009 61.6974 72.7303 63.515L63.0286 73.209C61.2195 74.488 59.3011 75.6156 57.29 76.5749L76.1045 57.7593Z" fill="#2C2C2C"/>
<path d="M79.4659 47.0395C76.9837 62.1442 66.045 74.3963 51.6649 78.772L35.4505 62.5565L35.2318 62.3378V42.8994H28.332V34.9053H35.2318V29.0149C35.2318 22.182 39.4053 18.4626 45.5057 18.4626C47.929 18.4626 50.0662 18.6057 51.1433 18.7151L79.4659 47.0395Z" fill="#2C2C2C"/>
<path d="M51.6649 18.774V25.9182H47.441C44.1173 25.9182 43.4778 27.4918 43.4778 29.8059V34.9053H51.3873L50.3607 42.8994H43.4778V62.5565H35.2318V42.8994H28.332V34.9053H35.2318V29.0149C35.2318 22.182 39.4053 18.4626 45.5057 18.4626C47.929 18.4626 50.0662 18.6057 51.1433 18.7151C51.362 18.7403 51.5387 18.7572 51.6649 18.774Z" fill="#EFE3CD"/>
</svg>
