<svg width="80" height="81" viewBox="0 0 80 81" fill="none" xmlns="http://www.w3.org/2000/svg">
<path d="M79.9944 40.5102V40.7711C79.9944 41.1161 79.986 41.4611 79.9692 41.8061C79.9608 42.2857 79.9356 42.7654 79.9019 43.2366C79.8514 43.9771 79.7841 44.7092 79.6915 45.4329C79.6242 45.9714 79.5485 46.51 79.4644 47.0401C79.397 47.4525 79.3213 47.8732 79.2372 48.2771C79.0689 49.1439 78.8669 50.0022 78.6398 50.8437C78.3284 52.0302 77.9582 53.1998 77.5291 54.3443C77.1084 55.5055 76.6288 56.6499 76.0987 57.7607C75.131 59.7803 73.9951 61.6989 72.7245 63.5165C70.0656 67.2779 66.7841 70.5597 63.0229 73.2104C61.2138 74.4895 59.2954 75.6171 57.2843 76.5764C56.1652 77.1233 55.0125 77.603 53.8345 78.0405C53.1193 78.3014 52.3957 78.5454 51.6636 78.7727C51.2261 78.9073 50.7801 79.0335 50.3341 79.1513C49.4927 79.3785 48.6429 79.5805 47.7762 79.7404C46.8422 79.9339 45.8914 80.0854 44.9322 80.1948C44.2002 80.2957 43.4681 80.3631 42.7277 80.4136C42.1555 80.4556 41.5833 80.4809 41.0027 80.4893C40.7587 80.4977 40.5147 80.4977 40.2707 80.4977C40.1781 80.5061 40.094 80.5061 40.0014 80.5061C39.4377 80.5061 38.8823 80.4977 38.3186 80.464C37.5781 80.4388 36.8377 80.3883 36.0972 80.3126C35.4998 80.2621 34.9108 80.1863 34.3218 80.1022C33.6318 80.0096 32.9503 79.8918 32.2771 79.7572C31.7302 79.6562 31.1917 79.5384 30.6532 79.4038C30.0137 79.2523 29.391 79.084 28.7684 78.9073C28.2635 78.7558 27.7587 78.6043 27.2622 78.4276C26.6732 78.2341 26.0926 78.0237 25.5205 77.7965C25.0409 77.6198 24.5697 77.4263 24.1069 77.2243C23.56 76.9887 23.0214 76.7362 22.4829 76.467C22.0454 76.2566 21.6078 76.0378 21.1703 75.8022C20.657 75.5245 20.1438 75.2384 19.6389 74.9439C19.2266 74.6998 18.8143 74.4474 18.4104 74.1865C17.9308 73.8752 17.4596 73.5638 16.9968 73.2272C16.6098 72.958 16.2227 72.6803 15.8441 72.3942C15.3981 72.0492 14.9522 71.6957 14.523 71.3423C14.1612 71.0394 13.8078 70.7364 13.4544 70.4251C13.0337 70.0548 12.6214 69.6677 12.2175 69.2722C11.8725 68.9525 11.5444 68.6243 11.2331 68.2877C10.8376 67.8838 10.4505 67.4715 10.0803 67.0507C9.76898 66.6973 9.46605 66.3439 9.16314 65.982C8.80974 65.5529 8.45634 65.1069 8.11135 64.6609C7.82527 64.2822 7.5476 63.9036 7.26993 63.5165C6.95019 63.0452 6.63045 62.574 6.31912 62.0944C6.05828 61.6904 5.80585 61.2781 5.56183 60.8658C5.25892 60.3609 4.97284 59.8476 4.70359 59.3343C4.46799 58.9051 4.24921 58.4675 4.03044 58.03C3.7696 57.4914 3.51717 56.9444 3.28157 56.3975C3.07963 55.9347 2.8861 55.4634 2.70099 54.9922C2.48221 54.4116 2.27185 53.8309 2.07833 53.2419C1.90163 52.7454 1.74176 52.2405 1.59872 51.7356C1.4136 51.1129 1.24532 50.4902 1.10228 49.8507C0.967652 49.3121 0.849841 48.7736 0.748869 48.2266C0.614241 47.5534 0.496451 46.8718 0.403894 46.1818C0.319751 45.5928 0.244023 45.0037 0.193537 44.4063C0.117809 43.6658 0.0673167 42.9253 0.0420739 42.1847C0.00841684 41.6294 0 41.074 0 40.5102C0 40.4176 8.21725e-06 40.3251 0.00842249 40.2325C0.00842249 39.4078 0.0336576 38.5916 0.0925575 37.7754C0.143043 37.0348 0.210357 36.3112 0.302914 35.5791C0.420714 34.6198 0.572178 33.6689 0.757292 32.7348C0.925577 31.8681 1.12751 31.0098 1.3547 30.1683C1.66603 28.9818 2.03626 27.8206 2.44856 26.6845C2.8861 25.5065 3.37413 24.3536 3.91264 23.2344C4.87187 21.2233 5.99937 19.3131 7.26993 17.5039C9.92042 13.7425 13.2104 10.4438 16.98 7.79314C18.7975 6.51408 20.7159 5.38649 22.7269 4.42719C23.846 3.88022 24.9988 3.39216 26.1684 2.963C27.3043 2.54226 28.4739 2.172 29.6603 1.86065C30.5017 1.63345 31.36 1.43149 32.2267 1.26319C33.1606 1.07807 34.1115 0.926597 35.0707 0.808789C35.7943 0.716225 36.5263 0.648906 37.2668 0.598417C38.083 0.539513 38.8992 0.51427 39.7238 0.51427C39.8163 0.505855 39.9089 0.505859 40.0014 0.505859C40.5652 0.505859 41.1205 0.51427 41.6759 0.54793C42.4163 0.573175 43.1568 0.623664 43.8972 0.699398C44.4947 0.749887 45.0837 0.825621 45.6727 0.90977C46.3626 1.00233 47.0442 1.12015 47.7173 1.25478C48.2642 1.35576 48.8028 1.47357 49.3413 1.60821C49.9808 1.75126 50.6034 1.91955 51.2261 2.10468C51.7309 2.24773 52.2358 2.40762 52.7322 2.58433C53.3212 2.77787 53.9018 2.98825 54.4824 3.20703C54.9536 3.39216 55.4248 3.5857 55.8876 3.78766C56.4345 4.02327 56.9814 4.27572 57.5199 4.53658C57.9575 4.74695 58.395 4.97416 58.8242 5.20977C59.3374 5.47905 59.8507 5.76515 60.3555 6.06809C60.7678 6.31212 61.1802 6.56457 61.584 6.82543C62.0637 7.12836 62.5349 7.44813 63.0061 7.77631C63.3931 8.05401 63.7717 8.3317 64.1504 8.6178C64.5963 8.9544 65.0423 9.30782 65.4714 9.66966C65.8332 9.96418 66.1866 10.2671 66.54 10.5869C66.9607 10.9571 67.3815 11.3442 67.7854 11.7313C68.1219 12.0595 68.4417 12.3792 68.7698 12.7158C69.1569 13.1198 69.5439 13.5405 69.9142 13.9612C70.2339 14.3147 70.5368 14.6681 70.8313 15.0299C71.1931 15.4591 71.5465 15.9051 71.8831 16.3511C72.1692 16.7297 72.4469 17.1084 72.7245 17.4955C73.0527 17.9667 73.3724 18.438 73.6753 18.9176C73.9362 19.3215 74.1886 19.7339 74.4326 20.1462C74.7355 20.6511 75.0216 21.1644 75.2909 21.6777C75.5265 22.1068 75.7537 22.5444 75.9556 22.9904C76.2249 23.5205 76.4773 24.0675 76.7129 24.6145C76.9148 25.0773 77.1084 25.5485 77.2935 26.0198C77.5122 26.6004 77.7226 27.181 77.9161 27.7701C78.0928 28.2665 78.2527 28.7714 78.3957 29.2763C78.5808 29.899 78.7491 30.5301 78.8922 31.1613C79.0268 31.6998 79.1446 32.2384 79.2456 32.7853C79.3802 33.4585 79.498 34.1401 79.5906 34.8301C79.6747 35.4192 79.7505 36.0082 79.8009 36.6057C79.8767 37.3378 79.9271 38.0783 79.9524 38.8272C79.986 39.3826 79.9944 39.9464 79.9944 40.5102Z" fill="#2C2C2C"/>
<path d="M40.0027 77.1406C39.5062 77.1406 39.0165 77.1347 38.5201 77.1044L38.4326 77.1002C37.7721 77.0775 37.1023 77.0321 36.4417 76.9639C35.8485 76.9126 35.3235 76.8444 34.7984 76.7695C34.1909 76.6879 33.591 76.5869 32.9372 76.4565C32.4113 76.3589 31.9401 76.2554 31.4689 76.1384C30.8395 75.9886 30.264 75.833 29.6885 75.6689C29.2846 75.5477 28.8344 75.4139 28.3918 75.2565C27.7894 75.058 27.2719 74.8703 26.7628 74.6683C26.2672 74.4849 25.8574 74.3158 25.4552 74.1399C24.9487 73.9219 24.4691 73.6964 23.9878 73.4558C23.5502 73.2445 23.159 73.0502 22.7677 72.839C22.2915 72.5806 21.8093 72.313 21.3356 72.0362C20.9789 71.8249 20.6044 71.5961 20.2375 71.3588C19.8143 71.0836 19.3919 70.8059 18.9771 70.5047C18.5682 70.2194 18.2164 69.9669 17.8723 69.7078C17.4861 69.4082 17.0671 69.0758 16.664 68.7443C16.3451 68.4775 16.0128 68.1922 15.6812 67.8994C15.3026 67.5662 14.934 67.2203 14.5731 66.8661L14.5091 66.8055C14.2281 66.5438 13.9605 66.277 13.7056 66.0027L13.6399 65.9329C13.2857 65.571 12.939 65.2024 12.6066 64.8255C12.3155 64.4947 12.0303 64.1624 11.7459 63.8224C11.4312 63.4387 11.0988 63.0196 10.774 62.6006C10.5367 62.2867 10.2843 61.9417 10.031 61.5891C9.72139 61.133 9.42858 60.7013 9.14334 60.2612C8.91026 59.9002 8.68139 59.5258 8.45925 59.1513C8.17906 58.6834 7.92411 58.2265 7.68514 57.7704C7.44365 57.3303 7.24929 56.939 7.05324 56.5486C6.82016 56.0681 6.58876 55.5674 6.37335 55.0659C6.18067 54.6241 6.00397 54.1924 5.83316 53.7599C5.64889 53.2701 5.45453 52.735 5.27615 52.1914C5.09776 51.6865 4.95976 51.2523 4.83775 50.8181C4.64422 50.1659 4.50119 49.624 4.38675 49.1157C4.25044 48.5645 4.14695 48.0933 4.0586 47.6145C3.91976 46.9194 3.81795 46.3195 3.7397 45.7329C3.66144 45.1818 3.59244 44.6558 3.54701 44.1223C3.4738 43.4012 3.42837 42.7305 3.40565 42.0708L3.40144 41.9807C3.37199 41.4927 3.36526 41.0055 3.36526 40.5098L3.35938 40.5452L3.37368 40.3887V40.2321C3.37368 39.4428 3.39808 38.7191 3.4494 38.0182C3.49905 37.2861 3.56216 36.6314 3.64209 36.002C3.75148 35.1092 3.89114 34.2349 4.05943 33.3892C4.20836 32.6209 4.39096 31.8375 4.60468 31.0456C4.88235 29.9853 5.21051 28.9419 5.61271 27.832C6.00818 26.7675 6.45919 25.7038 6.94553 24.6941C7.80631 22.8882 8.84042 21.1236 10.0243 19.4373C12.4695 15.9678 15.4616 12.9747 18.9157 10.5453C20.5918 9.36553 22.3613 8.32965 24.1754 7.46376C25.1995 6.96392 26.2495 6.51625 27.3283 6.12075C28.3767 5.73282 29.4461 5.39539 30.5147 5.11433C31.3242 4.89554 32.1092 4.71294 32.8691 4.56568C33.7273 4.3957 34.6024 4.25601 35.4817 4.14746C36.1153 4.06667 36.7691 4.00441 37.4961 3.95476C38.2113 3.90343 38.9357 3.87902 39.7242 3.87902H39.8807L39.9707 3.87061C40.5151 3.87061 40.9947 3.87734 41.4735 3.90595L41.5593 3.91016C42.2215 3.93288 42.893 3.97916 43.5552 4.04648C44.1459 4.09697 44.6701 4.16513 45.1951 4.24002C45.8068 4.32249 46.4059 4.42347 47.0564 4.5539C47.5823 4.65151 48.0534 4.75417 48.523 4.87198L48.6063 4.89133C49.112 5.00494 49.6555 5.14798 50.2681 5.32975C50.7426 5.46438 51.1768 5.60239 51.6034 5.75386C52.2261 5.95918 52.7612 6.15356 53.2981 6.35552C53.6834 6.50783 54.1176 6.68623 54.5425 6.87135C55.0549 7.09266 55.5573 7.32491 56.0512 7.5639C56.4467 7.75407 56.8304 7.9535 57.2073 8.16051C57.7156 8.4281 58.1733 8.68308 58.6234 8.95235C59.0164 9.1846 59.39 9.41349 59.7569 9.65079C60.2255 9.94699 60.6538 10.239 61.0838 10.5377C61.4077 10.77 61.7637 11.0308 62.1179 11.2993C62.5201 11.603 62.9181 11.9178 63.3001 12.2409C63.6619 12.5363 63.9724 12.8013 64.282 13.0815C64.7011 13.4509 65.0864 13.8044 65.4558 14.1586C65.752 14.4473 66.0507 14.7468 66.3578 15.0616C66.6936 15.4133 67.0486 15.7987 67.3886 16.1849C67.6974 16.5266 67.9633 16.8354 68.2191 17.1518C68.5809 17.581 68.8964 17.979 69.1968 18.3779C69.4669 18.7355 69.7286 19.0923 69.9894 19.4566C70.2604 19.8471 70.5532 20.2771 70.83 20.7155C71.0867 21.1119 71.3147 21.4863 71.5368 21.8599C71.8137 22.3236 72.0695 22.7805 72.3084 23.2374C72.5701 23.7146 72.7443 24.0579 72.889 24.3785L72.9546 24.5148C73.1734 24.9448 73.3972 25.4262 73.6219 25.9462C73.8129 26.3846 73.9904 26.8171 74.1596 27.2488C74.3464 27.7419 74.5399 28.2763 74.7174 28.8182C74.8967 29.3239 75.0338 29.7581 75.1567 30.1923C75.3418 30.8167 75.4898 31.3788 75.6085 31.9039C75.744 32.4475 75.8466 32.9188 75.935 33.3959C76.0738 34.0918 76.1748 34.6909 76.2547 35.2783C76.333 35.8303 76.4011 36.3562 76.4474 36.8906C76.5198 37.5983 76.566 38.2681 76.5879 38.9405L76.593 39.0297C76.6224 39.5177 76.6283 40.0133 76.6283 40.509V40.7698C76.6283 41.0618 76.6216 41.353 76.6081 41.645L76.6047 41.7418C76.5963 42.1617 76.5745 42.5824 76.545 42.9947C76.4945 43.7327 76.4314 44.3882 76.3532 45.0076C76.2892 45.515 76.2194 46.0157 76.1403 46.508C76.083 46.8614 76.0166 47.2342 75.9417 47.5918C75.7869 48.3878 75.6043 49.1729 75.3906 49.9665C75.1019 51.0663 74.7637 52.1341 74.3783 53.1616C73.9837 54.248 73.5461 55.2956 73.0615 56.3104C72.2049 58.0986 71.1632 59.8758 69.9667 61.5874C67.5291 65.0367 64.537 68.0256 61.0846 70.4584C59.422 71.6339 57.6583 72.669 55.8367 73.5382C54.8581 74.0162 53.8298 74.4521 52.6628 74.8854C52.0216 75.1194 51.3443 75.3483 50.6661 75.5586C50.2799 75.6773 49.8768 75.7909 49.4738 75.8978C48.6222 76.1275 47.8734 76.3008 47.1657 76.4313C46.2696 76.6164 45.4139 76.7527 44.5506 76.852C43.8884 76.942 43.2422 77.006 42.4992 77.0565C41.975 77.0952 41.4693 77.1171 40.956 77.1246C40.7179 77.1322 40.5319 77.1331 40.3544 77.1331C40.3266 77.1331 40.1213 77.1331 40.1213 77.1331L40.0027 77.1406Z" fill="#EFE3CD"/>
<path d="M22.7342 4.42603L3.91992 23.2333C4.87915 21.2221 6.00666 19.3119 7.27722 17.5027L16.9873 7.79198C18.8048 6.51292 20.7232 5.38532 22.7342 4.42603Z" fill="#2C2C2C"/>
<path d="M29.6699 1.85986L1.36426 30.1675C1.67559 28.981 2.04582 27.8198 2.45812 26.6838L26.1779 2.96222C27.3139 2.54147 28.4834 2.17121 29.6699 1.85986Z" fill="#2C2C2C"/>
<path d="M35.0773 0.807129L0.30957 35.5774C0.42737 34.6181 0.578834 33.6672 0.763948 32.7332L32.2333 1.26153C33.1673 1.07641 34.1181 0.924937 35.0773 0.807129Z" fill="#2C2C2C"/>
<path d="M39.73 0.513184L0.0146484 40.2314C0.0146484 39.4068 0.0398835 38.5905 0.0987834 37.7743L37.273 0.597331C38.0892 0.538427 38.9054 0.513184 39.73 0.513184Z" fill="#2C2C2C"/>
<path d="M43.905 0.698343L0.201268 44.4052C0.12554 43.6647 0.0750475 42.9242 0.0498047 42.1837L41.6836 0.546875C42.4241 0.57212 43.1645 0.622609 43.905 0.698343Z" fill="#2C2C2C"/>
<path d="M47.7236 1.25322L0.755144 48.2251C0.620516 47.5519 0.502713 46.8703 0.410156 46.1802L45.6789 0.908203C46.3689 1.00077 47.0504 1.11858 47.7236 1.25322Z" fill="#2C2C2C"/>
<path d="M51.2322 2.10341L1.60484 51.7344C1.41972 51.1117 1.25144 50.4889 1.1084 49.8494L49.3474 1.60693C49.9869 1.74999 50.6096 1.91828 51.2322 2.10341Z" fill="#2C2C2C"/>
<path d="M54.489 3.2062L2.70762 54.9914C2.48885 54.4107 2.27849 53.8301 2.08496 53.2411L52.7389 2.5835C53.3279 2.77704 53.9085 2.98741 54.489 3.2062Z" fill="#2C2C2C"/>
<path d="M57.5255 4.53457L4.03598 58.028C3.77514 57.4894 3.52271 56.9424 3.28711 56.3955L55.8931 3.78564C56.44 4.02126 56.987 4.27371 57.5255 4.53457Z" fill="#2C2C2C"/>
<path d="M60.358 6.06657L5.5643 60.8643C5.26139 60.3594 4.97531 59.8461 4.70605 59.3327L58.8266 5.20825C59.3399 5.47753 59.8532 5.76363 60.358 6.06657Z" fill="#2C2C2C"/>
<path d="M63.0121 7.77486L7.27601 63.515C6.95627 63.0438 6.63652 62.5725 6.3252 62.0929L61.5901 6.82397C62.0697 7.12691 62.5409 7.44668 63.0121 7.77486Z" fill="#2C2C2C"/>
<path d="M65.4782 9.66831L9.16995 65.9807C8.81655 65.5515 8.46315 65.1055 8.11816 64.6595L64.1572 8.61646C64.6031 8.95305 65.0491 9.30647 65.4782 9.66831Z" fill="#2C2C2C"/>
<path d="M67.7881 11.7304L11.2358 68.2868C10.8403 67.8828 10.4532 67.4705 10.083 67.0498L66.5428 10.5859C66.9635 10.9562 67.3842 11.3433 67.7881 11.7304Z" fill="#2C2C2C"/>
<path d="M69.9242 13.9602L13.4644 70.4241C13.0437 70.0538 12.6314 69.6667 12.2275 69.2712L68.7798 12.7148C69.1669 13.1188 69.554 13.5395 69.9242 13.9602Z" fill="#2C2C2C"/>
<path d="M71.8874 16.3504L15.8484 72.3935C15.4024 72.0485 14.9565 71.6951 14.5273 71.3417L70.8356 15.0293C71.1974 15.4585 71.5508 15.9044 71.8874 16.3504Z" fill="#2C2C2C"/>
<path d="M73.6844 18.9167L18.4195 74.1857C17.9398 73.8743 17.4686 73.563 17.0059 73.2264L72.7336 17.4946C73.0617 17.9659 73.3815 18.4371 73.6844 18.9167Z" fill="#2C2C2C"/>
<path d="M75.2965 21.6768L21.1759 75.8013C20.6627 75.5236 20.1494 75.2375 19.6445 74.9429L74.4382 20.1453C74.7412 20.6502 75.0272 21.1635 75.2965 21.6768Z" fill="#2C2C2C"/>
<path d="M76.7222 24.6136L24.1161 77.2234C23.5692 76.9878 23.0307 76.7353 22.4922 76.4661L75.9649 22.9895C76.2341 23.5196 76.4866 24.0666 76.7222 24.6136Z" fill="#2C2C2C"/>
<path d="M77.9201 27.7681L27.2662 78.4257C26.6772 78.2321 26.0966 78.0218 25.5244 77.7946L77.2974 26.0178C77.5162 26.5984 77.7266 27.1791 77.9201 27.7681Z" fill="#2C2C2C"/>
<path d="M78.9002 31.1603L30.6612 79.4028C30.0217 79.2514 29.399 79.083 28.7764 78.9063L78.4037 29.2754C78.5888 29.8981 78.7571 30.5292 78.9002 31.1603Z" fill="#2C2C2C"/>
<path d="M79.5996 34.829L34.3308 80.101C33.6408 80.0085 32.9593 79.8907 32.2861 79.756L79.2546 32.7842C79.3892 33.4574 79.507 34.139 79.5996 34.829Z" fill="#2C2C2C"/>
<path d="M79.9616 38.8253L38.3278 80.4621C37.5874 80.4369 36.8469 80.3864 36.1064 80.3106L79.8102 36.6038C79.8859 37.3359 79.9364 38.0764 79.9616 38.8253Z" fill="#2C2C2C"/>
<path d="M80.0001 40.7695C80.0001 41.1145 79.9917 41.4595 79.9749 41.8046C79.9665 42.2842 79.9412 42.7639 79.9076 43.2351L42.7333 80.412C42.1612 80.4541 41.589 80.4793 41.0084 80.4878C40.7644 80.4962 40.5204 80.4962 40.2764 80.4962L80.0001 40.7695Z" fill="#2C2C2C"/>
<path d="M79.6978 45.4321C79.6305 45.9707 79.5548 46.5092 79.4706 47.0394C79.4033 47.4517 79.3276 47.8724 79.2434 48.2764L47.7825 79.7396C46.8485 79.9331 45.8977 80.0846 44.9385 80.194L79.6978 45.4321Z" fill="#2C2C2C"/>
<path d="M78.6425 50.8423C78.3312 52.0288 77.961 53.1985 77.5318 54.3429L53.8373 78.0392C53.122 78.3 52.3984 78.5441 51.6664 78.7713C51.2288 78.9059 50.7829 79.0321 50.3369 79.1499L78.6425 50.8423Z" fill="#2C2C2C"/>
<path d="M76.1044 57.7595C75.1367 59.7791 74.0008 61.6977 72.7302 63.5153L63.0286 73.2092C61.2195 74.4883 59.301 75.6159 57.29 76.5752L76.1044 57.7595Z" fill="#2C2C2C"/>
<path d="M79.9703 41.8054C79.9618 42.285 79.9366 42.7647 79.903 43.2359C79.8525 43.9764 79.7852 44.7085 79.6926 45.4322C79.6253 45.9708 79.5496 46.5093 79.4654 47.0395C79.3981 47.4518 79.3224 47.8725 79.2382 48.2764C79.0699 49.1432 78.868 50.0015 78.6408 50.843C78.3295 52.0295 77.9593 53.1992 77.5301 54.3436C77.1094 55.5048 76.6298 56.6493 76.0997 57.76C75.1321 59.7796 73.9961 61.6982 72.7256 63.5158C70.0667 67.2772 66.7851 70.559 63.0239 73.2097C61.2149 74.4888 59.2964 75.6164 57.2854 76.5757C56.1663 77.1227 55.0135 77.6023 53.8355 78.0399C53.1203 78.3007 52.3967 78.5448 51.6647 78.772C51.2271 78.9066 50.7812 79.0328 50.3352 79.1506C49.4938 79.3778 48.644 79.5798 47.7773 79.7397C46.8433 79.9332 45.8925 80.0847 44.9333 80.1941C44.2012 80.295 43.4692 80.3624 42.7287 80.4129C42.1565 80.4549 41.5844 80.4802 41.0038 80.4886L18.3442 57.8273C18.2264 57.6001 18.117 57.3645 18.016 57.1289C17.772 56.5567 17.57 55.9592 17.4354 55.3365C17.3092 54.7727 17.2251 54.1837 17.1998 53.5862C17.1914 53.4348 17.1914 53.2833 17.1914 53.1234V27.8956C17.1914 27.7273 17.1914 27.559 17.2082 27.3907C17.2587 26.3557 17.4607 25.3627 17.8056 24.4287C18.8238 21.5929 21.0788 19.3377 23.9144 18.3111C24.8484 17.966 25.8413 17.7641 26.8846 17.7136C27.0529 17.6968 27.2212 17.6968 27.3895 17.6968H52.6155C52.7669 17.6968 52.9184 17.6968 53.0698 17.7136C53.6673 17.7304 54.2563 17.8146 54.8284 17.9408C55.4511 18.0754 56.0485 18.2774 56.6207 18.5214C56.6627 18.5383 56.6964 18.5551 56.7385 18.5719L57.6472 19.4807L58.842 20.6756L59.8265 21.6602L61.0213 22.8551L61.9469 23.7807L62.0142 23.8481L65.3799 27.214L66.3728 28.207L67.5676 29.4019L68.5605 30.3948L69.7469 31.5813L70.7398 32.5743L71.9262 33.7608L74.1139 35.9486L75.0984 36.9332L76.2932 38.1281L78.4725 40.3076L79.4654 41.3005L79.9703 41.8054Z" fill="#2C2C2C"/>
<path d="M61.9469 23.7827C60.9204 21.4602 59.0524 19.6005 56.7385 18.5739C55.4763 18.0101 54.0796 17.6987 52.6155 17.6987H27.3895C21.7688 17.6987 17.1914 22.268 17.1914 27.8976V53.1254C17.1914 54.8252 17.6121 56.424 18.3442 57.8293C19.3118 59.6721 20.8264 61.1868 22.6691 62.1545C24.0827 62.895 25.6898 63.3158 27.3895 63.3158H52.6155C58.2362 63.3158 62.8136 58.7465 62.8136 53.1254V27.8976C62.8136 26.4334 62.5022 25.0365 61.9469 23.7827ZM59.0608 53.1254C59.0608 56.6764 56.1747 59.5712 52.6155 59.5712H27.3895C23.8303 59.5712 20.9442 56.6764 20.9442 53.1254V27.8976C20.9442 24.3381 23.8303 21.4433 27.3895 21.4433H52.6155C56.1747 21.4433 59.0608 24.3381 59.0608 27.8976V53.1254Z" fill="#EFE3CD"/>
<path d="M40.0043 28.0212C33.1215 28.0212 27.5176 33.6171 27.5176 40.5089C27.5176 47.3923 33.1215 52.9882 40.0043 52.9882C46.8872 52.9882 52.4911 47.3923 52.4911 40.5089C52.4911 33.6171 46.8872 28.0212 40.0043 28.0212ZM40.0043 49.2436C35.183 49.2436 31.2703 45.3222 31.2703 40.5089C31.2703 35.6872 35.183 31.7659 40.0043 31.7659C44.8173 31.7659 48.7383 35.6872 48.7383 40.5089C48.7383 45.3222 44.8173 49.2436 40.0043 49.2436Z" fill="#EFE3CD"/>
<path d="M50.8516 28.02C50.8516 27.1171 51.5836 26.385 52.4866 26.385C53.3895 26.385 54.1216 27.1171 54.1216 28.02C54.1216 28.9229 53.3895 29.655 52.4866 29.655C51.5836 29.655 50.8516 28.9238 50.8516 28.02Z" fill="#EFE3CD"/>
</svg>
