<svg width="16" height="16" viewBox="0 0 16 16" fill="none" xmlns="http://www.w3.org/2000/svg">
<path d="M13.6962 6.97799L12.4699 8.20455C12.3449 8.32956 12.1753 8.3998 11.9985 8.3998C11.8218 8.3998 11.6522 8.32956 11.5272 8.20455C11.4022 8.07954 11.3319 7.90999 11.3319 7.73319C11.3319 7.5564 11.4022 7.38685 11.5272 7.26183L12.7534 6.03527C13.1227 5.66485 13.3301 5.16314 13.3301 4.64008C13.3301 4.11703 13.1227 3.61532 12.7534 3.2449C12.008 2.4988 10.7088 2.4988 9.96406 3.2449L7.72453 5.48449C7.65812 5.54855 7.59844 5.61923 7.54641 5.69543C6.94778 6.51105 7.03241 7.58293 7.72478 8.27549C7.84979 8.40059 7.91999 8.57022 7.91993 8.74707C7.91988 8.92392 7.84957 9.09351 7.72447 9.21852C7.59937 9.34353 7.42974 9.41373 7.25289 9.41367C7.07604 9.41361 6.90645 9.3433 6.78144 9.21821C5.62031 8.05612 5.48078 6.25599 6.44953 4.93827C6.54625 4.79544 6.65723 4.66281 6.78078 4.54243L9.02103 2.30221C9.32757 1.99307 9.69215 1.74751 10.0938 1.57964C10.4955 1.41177 10.9264 1.32489 11.3618 1.32398C11.7971 1.32308 12.2284 1.40817 12.6307 1.57437C13.0331 1.74058 13.3987 1.98462 13.7065 2.29248C14.0144 2.60035 14.2583 2.96599 14.4245 3.3684C14.5906 3.77081 14.6756 4.20207 14.6747 4.63742C14.6737 5.07277 14.5867 5.50365 14.4188 5.90531C14.2508 6.30697 14.0052 6.67151 13.696 6.97799H13.6962ZM8.27453 6.78202C8.21262 6.84391 8.1635 6.9174 8.12999 6.99827C8.09648 7.07915 8.07923 7.16584 8.07923 7.25338C8.07923 7.34093 8.09648 7.42761 8.12999 7.50849C8.1635 7.58937 8.21262 7.66285 8.27453 7.72474C8.54143 7.98843 8.72665 8.32348 8.80799 8.68974C8.88934 9.056 8.86337 9.43795 8.73319 9.78983C8.63832 10.0639 8.48134 10.3124 8.27453 10.5157L6.03494 12.7553C5.29016 13.5014 3.991 13.5014 3.24556 12.7553C2.87628 12.3849 2.66891 11.8832 2.66891 11.3601C2.66891 10.8371 2.87628 10.3354 3.24556 9.96496L4.47181 8.7384C4.53371 8.6765 4.58282 8.60301 4.61632 8.52213C4.64982 8.44126 4.66706 8.35458 4.66706 8.26704C4.66706 8.1795 4.64982 8.09282 4.61632 8.01194C4.58282 7.93106 4.53371 7.85758 4.47181 7.79568C4.40991 7.73378 4.33643 7.68468 4.25555 7.65118C4.17468 7.61768 4.08799 7.60043 4.00045 7.60043C3.91292 7.60043 3.82623 7.61768 3.74536 7.65118C3.66448 7.68468 3.591 7.73378 3.5291 7.79568L2.30285 9.02224C1.99365 9.32873 1.74803 9.69326 1.5801 10.0949C1.41216 10.4966 1.3252 10.9275 1.32423 11.3628C1.32325 11.7982 1.40827 12.2294 1.57441 12.6318C1.74054 13.0342 1.98452 13.3999 2.29234 13.7077C2.60015 14.0156 2.96575 14.2597 3.36813 14.4259C3.77051 14.5921 4.20176 14.6772 4.63711 14.6762C5.07247 14.6753 5.50336 14.5885 5.90504 14.4206C6.30673 14.2527 6.67131 14.0072 6.97785 13.698L9.21744 11.4585C9.56707 11.1126 9.83239 10.6909 9.99285 10.226C10.2019 9.63728 10.2399 9.0014 10.1027 8.39193C9.96538 7.78246 9.65837 7.2243 9.21713 6.78202C9.15524 6.72012 9.08176 6.67102 9.0009 6.63753C8.92003 6.60403 8.83336 6.58679 8.74583 6.58679C8.6583 6.58679 8.57163 6.60403 8.49076 6.63753C8.4099 6.67102 8.33642 6.72012 8.27453 6.78202Z" fill="#EFE3CD"/>
</svg>
