<svg width="28" height="28" viewBox="0 0 28 28" fill="none" xmlns="http://www.w3.org/2000/svg">
<path fill-rule="evenodd" clip-rule="evenodd" d="M17.4701 3.29681L22.3761 8.32106C22.9744 8.91919 23.3333 9.75657 23.3333 10.5939V22H4.66667V5.56969C4.66667 3.77532 6.22222 2.22019 8.0171 2.33982H15.077C16.0342 2.33982 16.8718 2.6987 17.4701 3.29681ZM14 11.7902H10.4103C9.93163 11.7902 9.45299 12.1491 9.45299 12.7472C9.45299 13.3453 9.93163 13.7041 10.4103 13.7041H14C14.5983 13.7041 14.9573 13.3453 14.9573 12.7472C14.9573 12.1491 14.4787 11.7902 14 11.7902ZM10.4103 18.4892H17.5897C18.0684 18.4892 18.547 18.1304 18.547 17.5322C18.547 16.9341 18.0684 16.5752 17.5897 16.5752H10.4103C9.81197 16.5752 9.45299 16.9341 9.45299 17.5322C9.45299 18.1304 9.93163 18.4892 10.4103 18.4892Z" fill="#FFB727"/>
<path d="M3 22H25V24H3V22Z" fill="#FFB727"/>
</svg>
