<svg width="100" height="100" viewBox="0 0 100 100" fill="none" xmlns="http://www.w3.org/2000/svg">
<g clip-path="url(#clip0_1959_1922)">
<path d="M50 0.898438C22.898 0.898438 0.897949 22.8984 0.897949 50.0004C0.897949 77.1024 22.898 99.1024 50 99.1024C77.1019 99.1024 99.1019 77.1024 99.1019 50.0004C99.1019 22.8984 77.1019 0.898438 50 0.898438V0.898438ZM50 90.8004C27.5 90.8004 9.19895 72.4994 9.19895 49.9994C9.19895 27.4994 27.5 9.19844 50 9.19844C72.5 9.19844 90.8009 27.4994 90.8009 49.9994C90.8009 72.4994 72.5 90.8004 50 90.8004Z" fill="#EFE3CD"/>
<path d="M41.4999 66.898C42.1015 67.1988 42.6991 67.2965 43.3007 67.2965C44 67.2965 44.8007 67.0972 45.4023 66.5972L65.6013 52.7962C66.6013 52.097 67.2029 50.8978 67.2029 49.6946C67.2029 48.4954 66.6014 47.2962 65.5037 46.593L45.3007 33.198C44.1015 32.3973 42.6991 32.3973 41.4023 32.9988C40.2031 33.698 39.4023 34.8972 39.4023 36.2996V63.4986C39.5 64.9986 40.1992 66.2994 41.5 66.897L41.4999 66.898Z" fill="#EFE3CD"/>
</g>
<defs>
<clipPath id="clip0_1959_1922">
<rect width="100" height="100" fill="white"/>
</clipPath>
</defs>
</svg>
