<svg width="20" height="20" viewBox="0 0 20 20" fill="none" xmlns="http://www.w3.org/2000/svg">
<path d="M14.4746 7.20706C13.8139 7.20706 13.1532 7.00685 12.5926 6.64647L8.76858 9.18915C8.90872 9.72972 8.90872 10.2903 8.76858 10.8309L12.5926 13.3535C13.4735 12.7529 14.5947 12.6128 15.5958 12.9731C16.5968 13.3335 17.3776 14.1344 17.698 15.1554C18.0183 16.1765 17.7981 17.2777 17.1774 18.1386C16.5368 18.9995 15.5357 19.5 14.4746 19.5C13.4135 19.5 12.4124 18.9995 11.7717 18.1386C11.1311 17.2777 10.9509 16.1765 11.2512 15.1554L7.52727 12.6928C6.86657 13.1934 6.02569 13.4336 5.1848 13.3535C4.34392 13.2734 3.58312 12.893 3.02253 12.2724C2.46194 11.6517 2.1416 10.8509 2.1416 10.01C2.1416 9.16913 2.46194 8.36828 3.02253 7.74763C3.58312 7.12698 4.36394 6.74658 5.1848 6.66649C6.00567 6.58641 6.84655 6.82666 7.52727 7.32719L11.2712 4.84458C11.1711 4.52424 11.1311 4.2039 11.1311 3.86354C11.1311 2.9626 11.4914 2.12171 12.1121 1.48104C12.7327 0.860383 13.5937 0.500003 14.4946 0.500003C15.3956 0.500003 16.2364 0.860383 16.8771 1.48104C17.4978 2.10169 17.8581 2.9626 17.8581 3.86354C17.8581 4.76449 17.4978 5.60538 16.8771 6.24605C16.2164 6.84668 15.3555 7.20706 14.4746 7.20706Z" fill="#FFB727"/>
</svg>
