<svg width="76" height="80" viewBox="0 0 76 80" fill="none" xmlns="http://www.w3.org/2000/svg">
<path d="M75.8974 40.0071V40.268C75.8894 41.0927 75.8657 41.9173 75.8102 42.7335C75.7626 43.4741 75.6992 44.2061 75.612 44.9298C75.5486 45.4684 75.4773 46.0069 75.3981 46.537C75.3347 46.9494 75.2633 47.3701 75.1841 47.774C75.1444 47.9928 75.0969 48.22 75.0493 48.4388C74.9225 49.0783 74.7799 49.7179 74.6213 50.3406C74.3281 51.5271 73.9794 52.6967 73.5752 53.8412C73.1789 55.0024 72.7271 56.1468 72.2278 57.2576C71.3164 59.2771 70.2464 61.1957 69.0497 63.0133C66.5452 66.7748 63.4542 70.0566 59.9115 72.7072C58.2075 73.9863 56.4004 75.1139 54.5062 76.0732C53.4521 76.6201 52.3663 77.0998 51.2567 77.5374C50.583 77.7982 49.9014 78.0423 49.2119 78.2695C48.7998 78.4041 48.3797 78.5303 47.9597 78.6481C47.1671 78.8753 46.3666 79.0773 45.5503 79.2372C44.6706 79.4307 43.775 79.5822 42.8715 79.6916C42.1819 79.7926 41.4924 79.8599 40.7949 79.9104C40.0341 79.9693 39.2574 79.9945 38.4807 79.9945C38.3935 80.0029 38.3142 80.0029 38.2271 80.0029C37.696 80.0029 37.173 79.9945 36.6419 79.9608C35.9445 79.9356 35.247 79.8851 34.5496 79.8094C33.9869 79.7589 33.4321 79.6832 32.8773 79.599C32.2274 79.5064 31.5854 79.3886 30.9514 79.254C30.4362 79.153 29.929 79.0352 29.4217 78.9006C28.8194 78.7491 28.2329 78.5808 27.6464 78.4041C27.1709 78.2526 26.6953 78.1012 26.2277 77.9245C25.6729 77.7309 25.1261 77.5205 24.5871 77.2933C24.1354 77.1166 23.6915 76.9231 23.2556 76.7211C22.7405 76.4855 22.2332 76.2331 21.726 75.9638C21.3139 75.7534 20.9017 75.5346 20.4896 75.299C20.0061 75.0213 19.5227 74.7352 19.0472 74.4407C18.6588 74.1967 18.2704 73.9442 17.89 73.6834C17.4383 73.372 16.9944 73.0607 16.5585 72.7241C16.1939 72.4548 15.8294 72.1771 15.4727 71.891C15.0526 71.546 14.6326 71.1926 14.2284 70.8391C13.8876 70.5362 13.5547 70.2333 13.2218 69.9219C12.8256 69.5517 12.4372 69.1646 12.0568 68.7691C11.7318 68.4493 11.4227 68.1211 11.1295 67.7845C10.757 67.3806 10.3924 66.9683 10.0437 66.5476C9.75044 66.1941 9.46511 65.8407 9.17979 65.4789C8.84691 65.0497 8.51404 64.6037 8.18909 64.1577C7.91962 63.7791 7.65808 63.4004 7.39653 63.0133C7.09536 62.5421 6.7942 62.0709 6.50095 61.5912C6.25526 61.1873 6.01748 60.775 5.78764 60.3627C5.50232 59.8578 5.23286 59.3445 4.97924 58.8312C4.75732 58.402 4.55125 57.9644 4.34519 57.5268C4.0995 56.9883 3.86173 56.4413 3.63981 55.8944C3.4496 55.4315 3.26731 54.9603 3.09295 54.4891C2.88688 53.9085 2.68874 53.3278 2.50645 52.7388C2.34001 52.2423 2.18943 51.7374 2.0547 51.2325C1.88033 50.6099 1.72182 49.9871 1.58709 49.3476C1.46028 48.8091 1.34931 48.2705 1.2542 47.7235C1.1274 47.0504 1.01645 46.3688 0.929265 45.6787C0.850009 45.0897 0.778679 44.5006 0.731125 43.9032C0.659795 43.1627 0.612235 42.4222 0.588458 41.6817C0.556756 41.1263 0.548828 40.5709 0.548828 40.0071C0.548828 39.9146 0.548836 39.822 0.556761 39.7294C0.556761 38.9048 0.580531 38.0886 0.63601 37.2723C0.683564 36.5318 0.746968 35.8081 0.83415 35.076C0.945108 34.1167 1.08778 33.1658 1.26214 32.2318C1.42065 31.3651 1.61086 30.5068 1.82485 29.6653C2.11809 28.4788 2.46682 27.3175 2.85518 26.1815C3.26731 25.0034 3.72699 23.8506 4.23423 22.7315C5.13775 20.7203 6.19977 18.8101 7.39653 17.0009C9.89309 13.2395 12.992 9.94087 16.5427 7.29019C18.2546 6.01114 20.0616 4.88355 21.9558 3.92425C23.0099 3.37729 24.0957 2.88921 25.1974 2.46005C26.2674 2.03931 27.369 1.66906 28.4865 1.35771C29.2791 1.13051 30.0875 0.928558 30.9038 0.760261C31.7836 0.575134 32.6792 0.42366 33.5827 0.305852C34.2643 0.213289 34.9538 0.14597 35.6512 0.0954807C36.42 0.0365768 37.1888 0.0113528 37.9655 0.0113528C38.0527 0.00293791 38.1399 0.00292969 38.2271 0.00292969C38.7581 0.00292969 39.2812 0.0113343 39.8042 0.0449937C40.5017 0.0702382 41.1992 0.120747 41.8966 0.196481C42.4593 0.24697 43.0141 0.322703 43.5689 0.406852C44.2188 0.499415 44.8608 0.6172 45.4948 0.751838C46.01 0.852816 46.5172 0.970636 47.0245 1.10527C47.6268 1.24833 48.2133 1.41662 48.7998 1.60175C49.2753 1.7448 49.7509 1.90469 50.2185 2.0814C50.7733 2.27494 51.3201 2.4853 51.867 2.70409C52.3108 2.88922 52.7547 3.08276 53.1906 3.28472C53.7057 3.52033 54.2209 3.77279 54.7281 4.03365C55.1403 4.24402 55.5524 4.47121 55.9566 4.70683C56.4401 4.9761 56.9235 5.2622 57.399 5.56513C57.7874 5.80917 58.1758 6.06163 58.5562 6.32249C59.008 6.62543 59.4518 6.94517 59.8956 7.27335C60.2602 7.55104 60.6168 7.82873 60.9735 8.11483C61.3935 8.45143 61.8136 8.80485 62.2178 9.16669C62.5586 9.46121 62.8915 9.76417 63.2243 10.0839C63.6206 10.4542 64.0169 10.8413 64.3973 11.2283C64.7144 11.5565 65.0155 11.8763 65.3246 12.2129C65.6892 12.6168 66.0538 13.0375 66.4025 13.4583C66.7037 13.8117 66.989 14.1651 67.2664 14.527C67.6072 14.9561 67.9401 15.4021 68.2571 15.8481C68.5266 16.2268 68.7881 16.6054 69.0497 16.9925C69.3588 17.4637 69.6599 17.935 69.9453 18.4146C70.1909 18.8185 70.4287 19.2309 70.6586 19.6432C70.9439 20.1481 71.2133 20.6614 71.4669 21.1747C71.6889 21.6039 71.9029 22.0414 72.0931 22.4874C72.3467 23.0175 72.5845 23.5645 72.8064 24.1115C72.9966 24.5743 73.1789 25.0455 73.3532 25.5168C73.5593 26.0974 73.7574 26.678 73.9397 27.267C74.1062 27.7635 74.2568 28.2684 74.3915 28.7733C74.5659 29.396 74.7244 30.0271 74.8591 30.6582C74.9859 31.1968 75.0969 31.7353 75.192 32.2823C75.3188 32.9555 75.4298 33.6371 75.5169 34.3271C75.5962 34.9162 75.6675 35.5052 75.7151 36.1026C75.7864 36.8347 75.834 37.5752 75.8577 38.3242C75.8894 38.8796 75.8974 39.4433 75.8974 40.0071Z" fill="#EFE3CD"/>
<path d="M38.2257 76.6368C37.758 76.6368 37.2968 76.6301 36.8292 76.6006L36.7491 76.5964C36.1214 76.5745 35.4897 76.5283 34.87 76.4609C34.3144 76.4096 33.8182 76.3415 33.3221 76.2674C32.7459 76.1841 32.1808 76.0831 31.5721 75.9544C31.0752 75.8568 30.6321 75.7541 30.1891 75.6355C29.5963 75.4857 29.0526 75.3308 28.5105 75.1667C28.1063 75.0372 27.6941 74.9059 27.2891 74.7536C26.7225 74.555 26.2342 74.3665 25.7532 74.1645C25.2871 73.9811 24.8996 73.8111 24.5191 73.6352C24.0484 73.4198 23.5958 73.1951 23.1433 72.9536C22.7295 72.7424 22.361 72.5472 21.9925 72.336C21.5431 72.0776 21.0889 71.8092 20.6419 71.5332C20.3067 71.3228 19.9532 71.0923 19.6069 70.855C19.209 70.5807 18.8111 70.3029 18.4204 70.0009C18.0376 69.7164 17.7055 69.464 17.3814 69.2048C17.0176 68.9061 16.6229 68.5737 16.2432 68.2413C15.9429 67.9737 15.6298 67.6893 15.3175 67.3965C14.9617 67.0632 14.6137 66.7165 14.2737 66.3631L14.2119 66.3008C13.9464 66.0391 13.6944 65.7707 13.4542 65.4964L13.3956 65.4316C13.0619 65.0681 12.7346 64.6995 12.4215 64.3225C12.1465 63.9901 11.8778 63.6578 11.6091 63.3178C11.3135 62.9366 11.0005 62.5175 10.6961 62.0985C10.471 61.7821 10.2333 61.4388 9.9963 61.0879C9.69434 60.6141 9.42328 60.1908 9.16015 59.7592C8.93982 59.3973 8.72424 59.0237 8.51579 58.6492C8.25108 58.1814 8.01253 57.7253 7.78744 57.2692C7.55522 56.8198 7.36897 56.421 7.18113 56.0221C6.97269 55.5652 6.75473 55.0637 6.55184 54.563C6.37113 54.1237 6.2039 53.6904 6.04301 53.257C5.87024 52.7681 5.68636 52.2312 5.51834 51.6876C5.35111 51.1844 5.22113 50.7502 5.10542 50.3152C4.92313 49.6639 4.7884 49.1203 4.68061 48.6137C4.55222 48.0625 4.45473 47.5904 4.37151 47.1125C4.24074 46.4166 4.14562 45.8157 4.07112 45.2309C3.99742 44.6797 3.93244 44.1546 3.88964 43.6211C3.82068 42.9 3.77789 42.2293 3.75649 41.5688L3.75252 41.4787C3.72478 40.9907 3.71844 40.5034 3.71844 40.0086L3.71289 40.0448L3.72716 39.8883V39.731C3.72716 38.9417 3.75014 38.2171 3.79849 37.517C3.84525 36.7858 3.9039 36.1311 3.97999 35.5C4.08302 34.6055 4.21458 33.7329 4.3723 32.8888C4.51258 32.1206 4.68456 31.3363 4.88587 30.5445C5.14742 29.4842 5.45653 28.4408 5.83537 27.33C6.20787 26.2672 6.63268 25.2036 7.09157 24.1929C7.90156 22.3888 8.87562 20.6242 9.99154 18.937C12.2939 15.4676 15.1131 12.4744 18.3665 10.0459C19.9437 8.86781 21.6112 7.83027 23.3216 6.96438C24.2861 6.4637 25.276 6.01769 26.2889 5.62303C27.2796 5.23258 28.287 4.896 29.2911 4.61578C30.0583 4.39615 30.7978 4.2127 31.5087 4.06713C32.3124 3.89799 33.1374 3.75832 33.9704 3.64893C34.564 3.56899 35.1814 3.50587 35.8686 3.45622C36.5446 3.40489 37.2278 3.38049 37.9657 3.38049H38.1076L38.1916 3.37207C38.7075 3.37207 39.1601 3.3788 39.6118 3.40741L39.6982 3.41247C40.3133 3.4335 40.9441 3.47979 41.5742 3.54795C42.1298 3.59928 42.6252 3.66743 43.1205 3.74148C43.6983 3.82479 44.2634 3.92577 44.8721 4.05452C45.3674 4.15213 45.8112 4.25478 46.2535 4.37259L46.3319 4.39196C46.8083 4.50556 47.3203 4.64861 47.8972 4.83121C48.3442 4.96501 48.7532 5.10301 49.155 5.25532L49.2311 5.28223C49.7423 5.45979 50.244 5.65333 50.7473 5.85613C51.115 6.01012 51.5224 6.18683 51.9218 6.37112C52.4061 6.59411 52.8793 6.82468 53.3437 7.06451C53.7178 7.25468 54.0776 7.45328 54.4319 7.66029C54.9153 7.92956 55.3465 8.18537 55.7697 8.4538C56.1375 8.68437 56.4894 8.91325 56.8333 9.1497C57.2787 9.44843 57.6822 9.74043 58.0872 10.0392C58.3915 10.2714 58.7268 10.5323 59.062 10.8016C59.4393 11.1036 59.8149 11.4192 60.1756 11.7423C60.5164 12.0368 60.808 12.3019 61.0989 12.5821C61.4928 12.9507 61.8558 13.305 62.2045 13.6592C62.4843 13.9487 62.7657 14.2474 63.0541 14.5621C63.3712 14.9139 63.7056 15.2993 64.025 15.6838C64.3159 16.0255 64.5656 16.3335 64.8065 16.6499C65.1489 17.0815 65.4461 17.4804 65.7298 17.8793C65.9818 18.2335 66.2291 18.5912 66.4748 18.9555C66.7292 19.3452 67.005 19.7751 67.2658 20.2136C67.5083 20.6107 67.7231 20.9843 67.9315 21.358C68.1939 21.8233 68.4348 22.2811 68.6599 22.7372C68.9064 23.2151 69.0712 23.5601 69.206 23.8765L69.2678 24.0137C69.4731 24.4412 69.6839 24.9225 69.8963 25.4451C70.0762 25.8835 70.2434 26.3151 70.4027 26.7468C70.5787 27.2399 70.761 27.7735 70.9282 28.3154L70.9536 28.3962C71.097 28.8228 71.227 29.257 71.3419 29.6912C71.5163 30.3147 71.6558 30.8769 71.7675 31.4019C71.8951 31.9455 71.9918 32.4168 72.075 32.8939C72.2058 33.5881 72.3009 34.1881 72.3762 34.7755C72.4499 35.3275 72.5141 35.8534 72.5577 36.3877C72.6259 37.0963 72.6695 37.7661 72.6901 38.4384L72.6948 38.5276C72.7225 39.0148 72.7281 39.5105 72.7281 40.007V40.2678C72.7202 41.0866 72.6948 41.8254 72.6488 42.4936C72.6013 43.2324 72.5419 43.887 72.4681 44.5055C72.4079 45.013 72.3421 45.5136 72.2676 46.0067C72.2137 46.3602 72.1511 46.7321 72.0814 47.0898C72.0386 47.3195 71.9989 47.5071 71.9609 47.6864C71.8341 48.3225 71.7057 48.8989 71.5622 49.4619C71.2896 50.5626 70.971 51.6304 70.6072 52.6604C70.2371 53.7459 69.8242 54.7935 69.3676 55.8084C68.5608 57.5965 67.5797 59.3729 66.4526 61.0853C64.1558 64.5346 61.3375 67.5235 58.0864 69.9546C56.5219 71.1293 54.8607 72.1652 53.1432 73.0344C52.2278 73.509 51.2585 73.9457 50.1537 74.3825C49.5466 74.6164 48.9133 74.8436 48.2721 75.0557C47.9076 75.1752 47.5279 75.2879 47.1483 75.3948C46.3462 75.6237 45.6408 75.7962 44.9783 75.9266C44.1318 76.1126 43.3266 76.2489 42.515 76.3465C41.8841 76.4382 41.2929 76.5005 40.5796 76.5527C39.9193 76.6032 39.2171 76.6284 38.4824 76.6284H38.3406L38.2257 76.6368Z" fill="#2C2C2C"/>
<path d="M21.9648 3.92676L4.24316 22.734C5.14668 20.7228 6.20871 18.8126 7.40548 17.0034L16.5516 7.2927C18.2635 6.01364 20.0706 4.88605 21.9648 3.92676Z" fill="#EFE3CD"/>
<path d="M28.4986 1.35938L1.83691 29.6669C2.13016 28.4804 2.47889 27.3192 2.86724 26.1832L25.2095 2.46172C26.2794 2.04098 27.3811 1.67072 28.4986 1.35938Z" fill="#EFE3CD"/>
<path d="M33.5913 0.306641L0.842773 35.0768C0.953732 34.1175 1.0964 33.1666 1.27076 32.2326L30.9124 0.76105C31.7922 0.575923 32.6878 0.424449 33.5913 0.306641Z" fill="#EFE3CD"/>
<path d="M37.9723 0.0126953L0.563477 39.7308C0.563477 38.9061 0.587246 38.0899 0.642725 37.2737L35.658 0.096849C36.4268 0.037945 37.1955 0.0126953 37.9723 0.0126953Z" fill="#EFE3CD"/>
<path d="M41.9048 0.19736L0.739347 43.9041C0.668016 43.1636 0.620456 42.4231 0.59668 41.6826L39.8125 0.0458984C40.5099 0.071143 41.2074 0.121626 41.9048 0.19736Z" fill="#EFE3CD"/>
<path d="M45.5011 0.752239L1.2605 47.7239C1.13369 47.0508 1.02273 46.3691 0.935547 45.6791L43.5752 0.407227C44.2251 0.49979 44.8671 0.617601 45.5011 0.752239Z" fill="#EFE3CD"/>
<path d="M48.8065 1.60292L2.06136 51.2337C1.88699 50.611 1.72848 49.9883 1.59375 49.3488L47.0311 1.10645C47.6335 1.2495 48.22 1.41779 48.8065 1.60292Z" fill="#EFE3CD"/>
<path d="M51.8742 2.70572L3.10017 54.4907C2.8941 53.9101 2.69596 53.3295 2.51367 52.7404L50.2257 2.08301C50.7805 2.27655 51.3274 2.48694 51.8742 2.70572Z" fill="#EFE3CD"/>
<path d="M54.7348 4.03504L4.35186 57.5283C4.10617 56.9897 3.8684 56.4427 3.64648 55.8958L53.1972 3.28613C53.7124 3.52175 54.2276 3.77418 54.7348 4.03504Z" fill="#EFE3CD"/>
<path d="M57.4061 5.56729L5.79473 60.3648C5.50941 59.8599 5.23995 59.3466 4.98633 58.8333L55.9637 4.70898C56.4472 4.97826 56.9306 5.26436 57.4061 5.56729Z" fill="#EFE3CD"/>
<path d="M59.9045 7.27412L7.40536 63.0141C7.10419 62.5429 6.80301 62.0716 6.50977 61.592L58.565 6.32324C59.0168 6.62618 59.4606 6.94595 59.9045 7.27412Z" fill="#EFE3CD"/>
<path d="M62.2241 9.16807L9.18601 65.4803C8.85314 65.0511 8.52026 64.6051 8.19531 64.1591L60.9797 8.11621C61.3998 8.45281 61.8199 8.80623 62.2241 9.16807Z" fill="#EFE3CD"/>
<path d="M64.4064 11.2294L11.1385 67.7856C10.766 67.3817 10.4015 66.9694 10.0527 66.5486L63.2334 10.085C63.6297 10.4552 64.026 10.8423 64.4064 11.2294Z" fill="#EFE3CD"/>
<path d="M66.4151 13.4593L13.2344 69.9229C12.8381 69.5527 12.4498 69.1656 12.0693 68.7701L65.3372 12.2139C65.7018 12.6178 66.0664 13.0385 66.4151 13.4593Z" fill="#EFE3CD"/>
<path d="M68.2651 15.8495L15.4806 71.8924C15.0606 71.5474 14.6405 71.1939 14.2363 70.8405L67.2744 14.5283C67.6152 14.9575 67.948 15.4035 68.2651 15.8495Z" fill="#EFE3CD"/>
<path d="M69.9561 18.4163L17.9008 73.685C17.4491 73.3737 17.0052 73.0623 16.5693 72.7257L69.0605 16.9941C69.3696 17.4654 69.6708 17.9366 69.9561 18.4163Z" fill="#EFE3CD"/>
<path d="M71.4764 21.176L20.4991 75.3003C20.0156 75.0227 19.5322 74.7366 19.0566 74.442L70.668 19.6445C70.9534 20.1494 71.2228 20.6627 71.4764 21.176Z" fill="#EFE3CD"/>
<path d="M72.8158 24.1133L23.265 76.723C22.7498 76.4874 22.2426 76.2349 21.7354 75.9657L72.1025 22.4893C72.3561 23.0194 72.5938 23.5664 72.8158 24.1133Z" fill="#EFE3CD"/>
<path d="M73.9464 27.2689L26.2344 77.9263C25.6796 77.7327 25.1327 77.5223 24.5938 77.2951L73.3599 25.5186C73.5659 26.0992 73.7641 26.6798 73.9464 27.2689Z" fill="#EFE3CD"/>
<path d="M74.8641 30.6594L29.4267 78.9017C28.8244 78.7502 28.2379 78.5819 27.6514 78.4052L74.3965 28.7744C74.5708 29.3971 74.7294 30.0282 74.8641 30.6594Z" fill="#EFE3CD"/>
<path d="M75.5246 34.329L32.8849 79.6009C32.235 79.5083 31.593 79.3905 30.959 79.2559L75.1996 32.2842C75.3264 32.9574 75.4374 33.639 75.5246 34.329Z" fill="#EFE3CD"/>
<path d="M75.8619 38.3241L70.6944 43.8105L36.6461 79.9607C35.9486 79.9355 35.2512 79.885 34.5537 79.8093L75.7192 36.1025C75.7905 36.8346 75.8381 37.5752 75.8619 38.3241Z" fill="#EFE3CD"/>
<path d="M75.904 40.2676C75.896 41.0922 75.8723 41.9169 75.8168 42.7331L40.8016 79.9099C40.0407 79.9688 39.264 79.9941 38.4873 79.9941L75.904 40.2676Z" fill="#EFE3CD"/>
<path d="M75.6175 44.9287C75.5541 45.4673 75.4828 46.0058 75.4036 46.536C75.3402 46.9483 75.2688 47.369 75.1896 47.7729L74.8091 48.1769L45.5558 79.2361C44.6761 79.4296 43.7805 79.5811 42.877 79.6905L75.6175 44.9287Z" fill="#EFE3CD"/>
<path d="M74.6226 50.3408C74.3294 51.5273 73.9806 52.697 73.5764 53.8414L51.258 77.5376C50.5843 77.7985 49.9027 78.0425 49.2132 78.2697C48.8011 78.4044 48.381 78.5306 47.9609 78.6484L74.6226 50.3408Z" fill="#EFE3CD"/>
<path d="M72.2324 57.2588C71.3209 59.2784 70.251 61.1969 69.0542 63.0145L59.916 72.7084C58.212 73.9875 56.405 75.1151 54.5107 76.0744L72.2324 57.2588Z" fill="#EFE3CD"/>
<path d="M75.0505 48.4383C74.9237 49.0778 74.781 49.7174 74.6225 50.3401C74.3293 51.5266 73.9806 52.6962 73.5764 53.8406C73.1801 55.0019 72.7283 56.1463 72.229 57.2571C71.3176 59.2766 70.2476 61.1952 69.0508 63.0128C66.5464 66.7743 63.4554 70.0561 59.9127 72.7067C58.2086 73.9858 56.4016 75.1134 54.5074 76.0727C53.4533 76.6196 52.3675 77.0993 51.2579 77.5368C50.5842 77.7977 49.9026 78.0418 49.2131 78.269C48.801 78.4036 48.3809 78.5298 47.9609 78.6476C47.1683 78.8748 46.3678 79.0768 45.5515 79.2367C44.6717 79.4302 43.7762 79.5817 42.8726 79.6911C42.1831 79.7921 41.4936 79.8594 40.7961 79.9098C40.0353 79.9687 39.2586 79.994 38.4819 79.994C38.3947 80.0024 38.3154 80.0024 38.2282 80.0024C37.6972 80.0024 37.1741 79.994 36.6431 79.9603C35.9457 79.9351 35.2482 79.8846 34.5508 79.8089L32.4901 77.621L31.5628 76.6365L30.4374 75.4416L28.3847 73.2621L27.4494 72.2692L26.3319 71.0827L20.1658 64.5359L19.2306 63.543L18.1052 62.3481L17.4077 61.6075L17.5821 60.9344L18.4301 57.6442L19.1434 54.9009L19.9835 51.6359L20.1104 51.1479C19.9201 50.8029 19.7378 50.4494 19.5714 50.0876C19.3178 49.5491 19.08 49.0105 18.874 48.4551C18.6837 47.9755 18.5173 47.4958 18.3667 47.0078C18.1765 46.3935 18.0101 45.7792 17.8674 45.1481C17.7485 44.6011 17.6455 44.0542 17.5583 43.4988C17.4553 42.7919 17.3839 42.0683 17.3443 41.3446C17.3205 40.8986 17.3047 40.4526 17.3047 39.9982C17.3047 39.7878 17.3047 39.5859 17.3205 39.3839C17.3364 38.5004 17.4077 37.6421 17.5266 36.7922C17.6376 35.9423 17.7961 35.1176 18.0021 34.3014C18.3271 33.0055 18.7551 31.7517 19.2861 30.5567C21.3705 25.836 24.9767 22.0072 29.4229 19.7941C30.5483 19.2303 31.7293 18.7675 32.9498 18.4309C33.7186 18.2122 34.4953 18.0439 35.2958 17.926C36.0963 17.7998 36.9047 17.7241 37.7368 17.7073C37.9271 17.6904 38.1173 17.6904 38.3154 17.6904C38.7434 17.6904 39.1635 17.7073 39.5835 17.7325C40.2651 17.7746 40.9388 17.8503 41.6045 17.9681C42.1276 18.0439 42.6507 18.1533 43.1659 18.2879C43.7603 18.431 44.3468 18.6077 44.9254 18.8096C45.385 18.9695 45.8368 19.1546 46.2886 19.3482C46.8117 19.5754 47.3189 19.8194 47.8261 20.0887C48.2224 20.3159 48.6187 20.5431 49.007 20.7871L49.0229 20.8039L50.1404 21.9904L51.0756 22.9834L65.4606 38.2563L66.586 39.4512L67.5133 40.4358L75.0505 48.4383Z" fill="#EFE3CD"/>
<path d="M56.4111 28.6466C55.5234 27.0562 54.4376 25.5752 53.1774 24.2288C51.9093 22.8824 50.5144 21.7296 49.0086 20.7871C45.8066 18.7676 42.145 17.6904 38.3169 17.6904C26.7377 17.6904 17.3141 27.6957 17.3062 39.9982C17.3062 43.9279 18.2731 47.7651 20.1119 51.1479L17.4092 61.6075L17.1318 62.7015L18.1701 62.4154L28.2673 59.6048C31.3345 61.3803 34.7901 62.3144 38.309 62.3144H38.3169C49.8962 62.3144 59.3198 52.3091 59.3277 40.015C59.3277 35.9507 58.3132 32.0546 56.4111 28.6466ZM38.3169 58.5529H38.309C35.1784 58.5529 32.1033 57.6526 29.4244 55.9696L28.7825 55.5657L22.1804 57.4085L23.9399 50.5673L23.5278 49.8604C21.7762 46.9068 20.8569 43.4988 20.8569 39.9982C20.8569 29.7742 28.6953 21.4603 38.3249 21.4603C42.9851 21.4603 47.3759 23.3873 50.6729 26.8963C53.97 30.3969 55.7849 35.0587 55.777 40.0066C55.777 50.2307 47.9386 58.5529 38.3169 58.5529Z" fill="#2C2C2C"/>
<path fill-rule="evenodd" clip-rule="evenodd" d="M48.9079 45.3168C48.7732 45.0812 48.4244 44.9465 47.9014 44.6689C47.3703 44.3828 44.7945 43.0364 44.3111 42.8512C43.8276 42.6661 43.4789 42.5736 43.1302 43.1289C42.7814 43.6927 41.7749 44.9466 41.4658 45.3168C41.1646 45.6871 40.8555 45.7375 40.3324 45.4599C39.8093 45.1737 38.1133 44.5847 36.1081 42.6914C34.5467 41.2104 33.4926 39.3843 33.1915 38.8289C32.8824 38.2736 33.1598 37.9707 33.4213 37.693C33.6591 37.4405 33.9444 37.0366 34.2059 36.7168C34.4675 36.3887 34.5547 36.153 34.729 35.7828C34.9034 35.4125 34.8162 35.0843 34.6894 34.8066C34.5547 34.529 33.5085 31.7857 33.0726 30.6666C32.6446 29.581 32.2087 29.7325 31.8917 29.7157C31.5826 29.6988 31.2338 29.6904 30.8851 29.6904C30.5364 29.6904 29.9657 29.8335 29.4823 30.3889C28.9988 30.9526 27.6436 32.299 27.6436 35.0423C27.6436 37.7855 29.5298 40.4362 29.7914 40.8064C30.0529 41.1767 33.4926 46.8062 38.7552 49.2213C40.0075 49.7935 40.9823 50.1385 41.7511 50.3994C43.0033 50.8201 44.1526 50.7612 45.0561 50.6182C46.0626 50.4583 48.1629 49.2718 48.5988 47.9675C49.0347 46.6632 49.0347 45.5524 48.9079 45.3168Z" fill="#2C2C2C"/>
</svg>
