<svg width="80" height="81" viewBox="0 0 80 81" fill="none" xmlns="http://www.w3.org/2000/svg">
<path d="M80 40.5101V40.7709C79.9916 41.5956 79.9664 42.4203 79.9075 43.2365C79.857 43.977 79.7897 44.7091 79.6971 45.4328C79.655 45.7525 79.6129 46.0723 79.5625 46.3836C79.5372 46.6024 79.5035 46.8212 79.4699 47.04C79.4026 47.4523 79.3268 47.8731 79.2427 48.277C79.0744 49.1437 78.8724 50.002 78.6452 50.8435C78.3339 52.03 77.9636 53.1997 77.5345 54.3441C77.1137 55.5053 76.6341 56.6497 76.1039 57.7605C75.1362 59.7801 74.0002 61.6987 72.7296 63.5163C70.0705 67.2777 66.7887 70.5595 63.0273 73.2102C61.2181 74.4893 59.2995 75.6168 57.2883 76.5761C56.1692 77.1231 55.0163 77.6027 53.8382 78.0403C53.123 78.3012 52.3993 78.5452 51.6672 78.7724C51.2296 78.907 50.7836 79.0333 50.3377 79.1511C49.4962 79.3783 48.6463 79.5802 47.7795 79.7401C47.2073 79.8579 46.6351 79.9589 46.0545 80.0431C45.6842 80.102 45.314 80.1524 44.9353 80.1945C44.2032 80.2955 43.4711 80.3628 42.7306 80.4133C41.9228 80.4722 41.0982 80.4975 40.2735 80.4975C40.1809 80.5059 40.0968 80.5059 40.0042 80.5059C39.4404 80.5059 38.885 80.4975 38.3212 80.4638C37.5807 80.4385 36.8402 80.3881 36.0997 80.3123C35.5023 80.2618 34.9132 80.1861 34.3242 80.102C33.6342 80.0094 32.9526 79.8916 32.2794 79.757C31.7324 79.656 31.1939 79.5381 30.6553 79.4035C30.0158 79.252 29.3931 79.0837 28.7704 78.907C28.2655 78.7556 27.7606 78.6041 27.2641 78.4274C26.6751 78.2338 26.0945 78.0235 25.5223 77.7963C25.0426 77.6196 24.5714 77.426 24.1086 77.2241C23.5616 76.9885 23.023 76.736 22.4845 76.4667C22.0469 76.2564 21.6093 76.0376 21.1718 75.802C20.6585 75.5243 20.1452 75.2382 19.6403 74.9436C19.2279 74.6996 18.8156 74.4472 18.4117 74.1863C17.9321 73.875 17.4608 73.5636 16.998 73.227C16.6109 72.9577 16.2239 72.6801 15.8452 72.394C15.3992 72.0489 14.9532 71.6955 14.524 71.3421C14.1622 71.0392 13.8088 70.7362 13.4554 70.4249C13.0346 70.0546 12.6223 69.6675 12.2184 69.272C11.8734 68.9523 11.5452 68.6241 11.2338 68.2875C10.8383 67.8836 10.4513 67.4713 10.081 67.0505C9.76965 66.6971 9.46672 66.3437 9.16379 65.9818C8.81036 65.5527 8.45694 65.1067 8.11193 64.6607C7.82583 64.282 7.54814 63.9034 7.27045 63.5163C6.95068 63.045 6.63091 62.5738 6.31956 62.0942C6.0587 61.6902 5.80626 61.2779 5.56223 60.8656C5.2593 60.3607 4.97318 59.8474 4.7039 59.3341C4.46828 58.9049 4.24951 58.4674 4.03072 58.0298C3.76986 57.4912 3.51743 56.9443 3.28181 56.3973C3.07986 55.9345 2.88631 55.4633 2.70119 54.992C2.4824 54.4114 2.27201 53.8308 2.07847 53.2417C1.90176 52.7453 1.7419 52.2404 1.59884 51.7355C1.41372 51.1128 1.2454 50.4901 1.10234 49.8506C0.967706 49.312 0.849913 48.7735 0.748934 48.2265C0.614297 47.5533 0.496486 46.8717 0.403922 46.1817C0.319774 45.5927 0.24404 45.0036 0.193551 44.4061C0.117817 43.6656 0.0673342 42.9251 0.0420897 42.1846C0.00843026 41.6293 0 41.0739 0 40.5101C0 40.4175 8.21782e-06 40.3249 0.00842307 40.2324C0.00842307 39.4077 0.0336728 38.5915 0.0925767 37.7752C0.143066 37.0347 0.210385 36.3111 0.302948 35.579C0.420756 34.6197 0.572231 33.6688 0.757357 32.7347C0.925654 31.868 1.1276 31.0097 1.3548 30.1682C1.66615 28.9817 2.0364 27.8205 2.44873 26.6845C2.8863 25.5064 3.37438 24.3535 3.91293 23.2344C4.87222 21.2232 5.9998 19.3131 7.27045 17.5039C9.92112 13.7424 13.2113 10.4438 16.9812 7.79312C18.7988 6.51407 20.7174 5.38648 22.7285 4.42718C23.8477 3.88022 25.0005 3.39215 26.1702 2.96299C27.3062 2.54225 28.4759 2.172 29.6624 1.86065C30.5038 1.63345 31.3622 1.43149 32.2289 1.26319C33.163 1.07806 34.1138 0.926603 35.0731 0.808795C35.7968 0.716231 36.5289 0.648912 37.2694 0.598423C38.0856 0.539519 38.9019 0.51427 39.7265 0.51427C39.8191 0.505855 39.9117 0.505859 40.0042 0.505859C40.568 0.505859 41.1234 0.514277 41.6788 0.547936C42.4193 0.573181 43.1598 0.623664 43.9003 0.699397C44.4978 0.749886 45.0868 0.82562 45.6758 0.909769C46.3658 1.00233 47.0475 1.12014 47.7206 1.25478C48.2676 1.35576 48.8062 1.47357 49.3447 1.6082C49.9842 1.75126 50.6069 1.91955 51.2296 2.10468C51.7345 2.24773 52.2394 2.40762 52.7359 2.58433C53.3249 2.77787 53.9055 2.98825 54.4862 3.20703C54.9574 3.39216 55.4286 3.58569 55.8915 3.78765C56.4384 4.02326 56.9854 4.27571 57.5239 4.53657C57.9615 4.74694 58.3991 4.97414 58.8282 5.20976C59.3415 5.47903 59.8549 5.76514 60.3598 6.06808C60.7721 6.31211 61.1844 6.56455 61.5883 6.82541C62.068 7.12834 62.5392 7.44811 63.0104 7.77629C63.3975 8.05398 63.7762 8.33167 64.1549 8.61778C64.6008 8.95437 65.0468 9.30779 65.476 9.66963C65.8378 9.96415 66.1912 10.2671 66.5447 10.5868C66.9654 10.9571 67.3861 11.3442 67.7901 11.7313C68.1266 12.0594 68.4464 12.3792 68.7746 12.7158C69.1617 13.1197 69.5488 13.5405 69.919 13.9612C70.2388 14.3146 70.5417 14.6681 70.8363 15.0299C71.1981 15.459 71.5515 15.905 71.8881 16.351C72.1742 16.7297 72.4519 17.1084 72.7296 17.4954C73.0578 17.9667 73.3775 18.4379 73.6805 18.9176C73.9413 19.3215 74.1938 19.7338 74.4378 20.1461C74.7407 20.651 75.0268 21.1643 75.2961 21.6776C75.5317 22.1068 75.7589 22.5444 75.9609 22.9903C76.2302 23.5205 76.4826 24.0674 76.7182 24.6144C76.9202 25.0772 77.1137 25.5485 77.2989 26.0197C77.5176 26.6003 77.728 27.1809 77.9215 27.77C78.0983 28.2665 78.2581 28.7714 78.4012 29.2762C78.5863 29.8989 78.7546 30.5301 78.8977 31.1612C79.0323 31.6997 79.1501 32.2383 79.2511 32.7852C79.3857 33.4584 79.5035 34.14 79.5961 34.83C79.6802 35.4191 79.756 36.0081 79.8065 36.6056C79.8822 37.3377 79.9327 38.0782 79.958 38.8271C79.9916 39.3825 80 39.9463 80 40.5101Z" fill="#2C2C2C"/>
<path d="M40.0032 77.1398C39.5068 77.1398 39.017 77.133 38.5205 77.1036L38.4355 77.0994C37.7699 77.0775 37.0984 77.0312 36.4404 76.9639C35.8497 76.9126 35.3237 76.8444 34.797 76.7704C34.1852 76.6879 33.5861 76.5861 32.939 76.4573C32.4097 76.3589 31.9384 76.2554 31.4655 76.1376C30.8403 75.9886 30.2639 75.8321 29.6875 75.668C29.2852 75.5477 28.8342 75.4139 28.3924 75.2565C27.7899 75.0579 27.2724 74.8703 26.7616 74.6675C26.266 74.484 25.857 74.3157 25.4548 74.1399C24.9474 73.9219 24.4677 73.6973 23.9881 73.4557C23.5505 73.2454 23.1592 73.051 22.7688 72.8398C22.2908 72.5815 21.8095 72.3139 21.3374 72.0378C20.9764 71.8241 20.6019 71.5952 20.2325 71.3571C19.8135 71.0844 19.3919 70.8067 18.9779 70.5055C18.5656 70.2177 18.2147 69.9661 17.8722 69.7078C17.4843 69.4082 17.0652 69.0758 16.6621 68.7443C16.3432 68.4767 16.01 68.1906 15.6759 67.8969C15.3014 67.5662 14.932 67.2187 14.5693 66.8644L14.5071 66.8047C14.2252 66.543 13.9567 66.2745 13.7009 65.9994L13.6395 65.9346C13.2852 65.571 12.9377 65.2024 12.6053 64.8255C12.3133 64.4939 12.0281 64.1607 11.7411 63.8191C11.4289 63.4396 11.0965 63.0205 10.7734 62.6014C10.5285 62.2766 10.2668 61.9207 10.006 61.5563C9.74677 61.1734 9.44047 60.7224 9.14259 60.2621C8.91118 59.9028 8.68146 59.5283 8.45847 59.1522C8.17825 58.6843 7.92329 58.2274 7.68347 57.7705C7.44196 57.3304 7.24758 56.9391 7.05236 56.5495C6.81926 56.069 6.5887 55.5691 6.37412 55.0693C6.18058 54.6267 6.00302 54.195 5.83304 53.7633C5.64707 53.2694 5.45353 52.7325 5.27429 52.1889C5.0959 51.6865 4.95958 51.2532 4.83588 50.819C4.64234 50.1685 4.49928 49.6257 4.38484 49.1166C4.24936 48.5671 4.14587 48.0951 4.05667 47.6154C3.91782 46.9195 3.816 46.3195 3.7369 45.7339C3.65864 45.1818 3.59048 44.6551 3.5442 44.1207C3.47183 43.4063 3.42555 42.7356 3.40368 42.0692L3.39862 41.9817C3.36917 41.4936 3.36328 41.0064 3.36328 40.5108L3.37674 40.3627L3.37168 40.2331C3.37168 39.4471 3.3961 38.7234 3.44743 38.0191C3.49708 37.2946 3.55933 36.6399 3.64011 36.0029C3.75035 35.1059 3.89006 34.2324 4.05667 33.3918C4.20645 32.6193 4.38904 31.8367 4.60194 31.0483C4.87626 29.9989 5.21369 28.9269 5.61003 27.8338C6.00553 26.7693 6.45658 25.7057 6.94296 24.695C7.8038 22.8892 8.83882 21.1238 10.022 19.4383C12.4673 15.9688 15.4605 12.9757 18.9139 10.5471C20.5876 9.36907 22.3581 8.33235 24.1749 7.46562C25.1973 6.96578 26.2483 6.51895 27.3263 6.12345C28.3764 5.73469 29.4468 5.39725 30.5138 5.11704C31.325 4.89825 32.1092 4.71566 32.8674 4.5684C33.7224 4.39842 34.5967 4.25872 35.4802 4.15017C36.1139 4.06939 36.7677 4.00713 37.4956 3.95748C38.2134 3.90531 38.9387 3.8809 39.723 3.8809H39.872L40.0201 3.86743C40.4955 3.87248 40.9836 3.87837 41.4725 3.90783L41.56 3.91204C42.2273 3.93476 42.8979 3.9802 43.5535 4.04836C44.1459 4.09885 44.6709 4.16784 45.196 4.24273C45.8053 4.32436 46.4053 4.42534 47.0582 4.55577C47.5842 4.65339 48.0537 4.75604 48.5233 4.87385L48.6074 4.89321C49.1157 5.00681 49.6584 5.14985 50.2668 5.33077C50.7423 5.46625 51.1773 5.60343 51.604 5.75489C52.2258 5.96022 52.761 6.1546 53.2962 6.35655C53.6849 6.5097 54.1175 6.68641 54.5416 6.87154C55.0608 7.09453 55.5615 7.32678 56.0562 7.56576C56.4467 7.75341 56.8304 7.95285 57.2066 8.15901C57.7182 8.42829 58.176 8.68325 58.6253 8.95253C59.0183 9.18478 59.3919 9.41367 59.7588 9.65013C60.2275 9.94633 60.6567 10.2383 61.085 10.5371C61.4115 10.771 61.7691 11.0327 62.125 11.3028C62.5214 11.6024 62.9202 11.9179 63.304 12.2419C63.6675 12.5373 63.9755 12.8023 64.2843 13.0817C64.7034 13.4511 65.0888 13.8045 65.4582 14.1588C65.7552 14.4483 66.0539 14.7478 66.3611 15.0634C66.6951 15.4126 67.0503 15.7972 67.3885 16.1817C67.7007 16.5267 67.9666 16.8364 68.2233 17.1528C68.5843 17.5811 68.8981 17.9783 69.1969 18.3755C69.4695 18.7356 69.7312 19.0924 69.9921 19.4568C70.2647 19.8481 70.5559 20.2764 70.8302 20.7123C71.0894 21.112 71.3174 21.4865 71.5396 21.8601C71.8189 22.3263 72.0731 22.7823 72.3112 23.2376C72.5763 23.7206 72.7505 24.0631 72.891 24.3744L72.9575 24.5141C73.1771 24.945 73.4009 25.4271 73.6256 25.9463C73.8183 26.3864 73.9959 26.8198 74.1658 27.2523C74.3493 27.7395 74.5428 28.2739 74.7212 28.8166L74.7482 28.8974C74.9005 29.3241 75.0376 29.7583 75.1605 30.1925C75.3456 30.816 75.4937 31.3781 75.6124 31.904C75.7479 32.4476 75.8505 32.9172 75.9389 33.3952C76.0777 34.0894 76.1787 34.6894 76.2586 35.2776C76.3369 35.8271 76.4059 36.3521 76.4505 36.8848C76.5245 37.6076 76.5708 38.2766 76.5919 38.9363L76.5969 39.0289C76.6264 39.517 76.6331 40.0126 76.6331 40.5082V40.7699C76.623 41.6148 76.5969 42.3326 76.5489 42.9923C76.4984 43.7337 76.4362 44.3858 76.3571 45.0043C76.3209 45.2786 76.2847 45.563 76.2393 45.8399L76.2182 45.9939C76.198 46.1689 76.1694 46.3439 76.1425 46.5198C76.087 46.8656 76.0197 47.2376 75.9456 47.5935C75.7908 48.3879 75.609 49.173 75.3944 49.9665C75.1041 51.0714 74.7658 52.1384 74.3821 53.16C73.9849 54.2547 73.5474 55.3015 73.066 56.3071C72.2077 58.0986 71.166 59.875 69.9694 61.5858C67.5324 65.0342 64.5401 68.0231 61.0866 70.4575C59.4222 71.6331 57.6576 72.669 55.8383 73.5365C54.8664 74.0111 53.8373 74.4479 52.6634 74.8846C52.0188 75.1185 51.3456 75.3457 50.6657 75.5578C50.2853 75.6747 49.8806 75.7883 49.4775 75.8952C48.6259 76.1249 47.8778 76.2983 47.1693 76.4287C46.5895 76.5474 46.0821 76.6357 45.568 76.7114C45.2045 76.7687 44.8864 76.8116 44.5641 76.8478L44.4749 76.8587C43.89 76.9403 43.2446 77.0034 42.5024 77.0531C41.799 77.1044 41.0551 77.1305 40.2734 77.1305H40.1244L40.0032 77.1398Z" fill="#EFE3CD"/>
<path d="M22.7267 4.42847L3.91113 23.2357C4.87043 21.2245 5.99801 19.3143 7.26865 17.5052L16.9794 7.79441C18.797 6.51535 20.7156 5.38776 22.7267 4.42847Z" fill="#2C2C2C"/>
<path d="M29.6621 1.8623L1.35449 30.1699C1.66584 28.9834 2.03611 27.8221 2.44844 26.6861L26.1699 2.96465C27.3059 2.54391 28.4756 2.17365 29.6621 1.8623Z" fill="#2C2C2C"/>
<path d="M35.07 0.80957L0.299805 35.5798C0.417613 34.6205 0.569087 33.6696 0.754214 32.7355L32.2258 1.26397C33.1598 1.07884 34.1107 0.927378 35.07 0.80957Z" fill="#2C2C2C"/>
<path d="M39.723 0.515625L0.00488281 40.2337C0.00488281 39.4091 0.0301325 38.5928 0.0890365 37.7766L37.2659 0.599779C38.0821 0.540875 38.8983 0.515625 39.723 0.515625Z" fill="#2C2C2C"/>
<path d="M43.8973 0.70079L0.190524 44.4075C0.11479 43.667 0.0643071 42.9265 0.0390625 42.186L41.6758 0.549316C42.4163 0.574561 43.1568 0.625057 43.8973 0.70079Z" fill="#2C2C2C"/>
<path d="M47.7171 1.25566L0.745403 48.2274C0.610765 47.5542 0.492954 46.8726 0.400391 46.1825L45.6723 0.910645C46.3623 1.00237 47.0439 1.12102 47.7171 1.25566Z" fill="#2C2C2C"/>
<path d="M51.2259 2.10585L1.59511 51.7366C1.40998 51.1139 1.24169 50.4913 1.09863 49.8517L49.341 1.60938C49.9805 1.75243 50.6032 1.92072 51.2259 2.10585Z" fill="#2C2C2C"/>
<path d="M54.4829 3.20864L2.69789 54.9936C2.4791 54.413 2.26874 53.8324 2.0752 53.2434L52.7326 2.58594C53.3216 2.77948 53.9023 2.98986 54.4829 3.20864Z" fill="#2C2C2C"/>
<path d="M57.5195 4.53701L4.02628 58.0302C3.76542 57.4917 3.51296 56.9447 3.27734 56.3977L55.887 3.78809C56.434 4.0237 56.9809 4.27615 57.5195 4.53701Z" fill="#2C2C2C"/>
<path d="M60.3531 6.06901L5.55557 60.8665C5.25264 60.3616 4.96654 59.8483 4.69727 59.335L58.8216 5.21069C59.3349 5.47997 59.8482 5.76608 60.3531 6.06901Z" fill="#2C2C2C"/>
<path d="M63.0063 7.7773L7.26631 63.5173C6.94655 63.0461 6.62678 62.5748 6.31543 62.0952L61.5842 6.82642C62.0639 7.12935 62.5351 7.44912 63.0063 7.7773Z" fill="#2C2C2C"/>
<path d="M65.4725 9.67075L9.16025 65.9829C8.80683 65.5538 8.45341 65.1078 8.1084 64.6618L64.1513 8.6189C64.5973 8.95549 65.0433 9.30891 65.4725 9.67075Z" fill="#2C2C2C"/>
<path d="M67.7833 11.7316L11.2271 68.2878C10.8316 67.8839 10.4445 67.4716 10.0742 67.0508L66.5379 10.5872C66.9586 10.9583 67.3794 11.3453 67.7833 11.7316Z" fill="#2C2C2C"/>
<path d="M69.9194 13.9627L13.4557 70.4263C13.035 70.0561 12.6227 69.669 12.2188 69.2735L68.775 12.7173C69.1621 13.1212 69.5492 13.5419 69.9194 13.9627Z" fill="#2C2C2C"/>
<path d="M71.8826 16.3529L15.8397 72.3958C15.3937 72.0508 14.9477 71.6974 14.5186 71.3439L70.8308 15.0317C71.1926 15.4609 71.546 15.9069 71.8826 16.3529Z" fill="#2C2C2C"/>
<path d="M73.6795 18.9192L18.4108 74.1879C17.9311 73.8766 17.4599 73.5653 16.9971 73.2287L72.7287 17.4971C73.0568 17.9683 73.3766 18.4395 73.6795 18.9192Z" fill="#2C2C2C"/>
<path d="M75.2916 21.6792L21.1673 75.8035C20.6539 75.5259 20.1406 75.2398 19.6357 74.9452L74.4333 20.1477C74.7362 20.6526 75.0223 21.1659 75.2916 21.6792Z" fill="#2C2C2C"/>
<path d="M76.7171 24.6158L24.1075 77.2254C23.5605 76.9898 23.0219 76.7374 22.4834 76.4681L75.9598 22.9917C76.2291 23.521 76.4815 24.0688 76.7171 24.6158Z" fill="#2C2C2C"/>
<path d="M77.9169 27.7706L27.2595 78.428C26.6704 78.2344 26.0898 78.0241 25.5176 77.7969L77.2942 26.0203C77.513 26.6009 77.7233 27.1815 77.9169 27.7706Z" fill="#2C2C2C"/>
<path d="M78.8948 31.1625L30.6525 79.4049C30.013 79.2534 29.3903 79.0851 28.7676 78.9084L78.3984 29.2776C78.5835 29.9003 78.7518 30.5314 78.8948 31.1625Z" fill="#2C2C2C"/>
<path d="M79.596 34.8314L34.3241 80.1033C33.6341 80.0108 32.9525 79.893 32.2793 79.7583L79.251 32.7866C79.3856 33.4598 79.5035 34.1414 79.596 34.8314Z" fill="#2C2C2C"/>
<path d="M79.9568 38.8277L38.3202 80.4644C37.5797 80.4392 36.8391 80.3887 36.0986 80.313L79.8054 36.6062C79.8811 37.3383 79.9316 38.0788 79.9568 38.8277Z" fill="#2C2C2C"/>
<path d="M79.9961 40.7717C79.9877 41.5964 79.9624 42.421 79.9035 43.2373L42.7267 80.4141C41.9189 80.473 41.0942 80.4982 40.2695 80.4982L79.9961 40.7717Z" fill="#2C2C2C"/>
<path d="M79.6934 45.4331C79.6513 45.7529 79.6092 46.0726 79.5588 46.384C79.5335 46.6028 79.4998 46.8216 79.4662 47.0403C79.3989 47.4527 79.3231 47.8734 79.239 48.2773L47.7758 79.7405C47.2036 79.8583 46.6314 79.9593 46.0508 80.0434C45.6806 80.1023 45.3103 80.1528 44.9316 80.1949L45.5712 79.5637L79.1548 45.9801L79.6934 45.4331Z" fill="#2C2C2C"/>
<path d="M78.6425 50.8433C78.3312 52.0298 77.9609 53.1994 77.5318 54.3438L53.8355 78.0401C53.1203 78.3009 52.3966 78.545 51.6645 78.7722C51.2269 78.9068 50.7809 79.033 50.335 79.1508L78.6425 50.8433Z" fill="#2C2C2C"/>
<path d="M76.0988 57.7617C75.1311 59.7813 73.9951 61.6999 72.7245 63.5175L63.0221 73.2114C61.2129 74.4905 59.2944 75.6181 57.2832 76.5773L76.0988 57.7617Z" fill="#2C2C2C"/>
<path d="M79.5627 46.3831C79.5374 46.6019 79.5038 46.8207 79.4701 47.0395C79.4028 47.4518 79.3271 47.8726 79.2429 48.2765C79.0746 49.1432 78.8727 50.0015 78.6455 50.843C78.3341 52.0295 77.9639 53.1991 77.5347 54.3436C77.114 55.5048 76.6343 56.6492 76.1042 57.76C75.1365 59.7796 74.0005 61.6981 72.7298 63.5158C70.0707 67.2772 66.7889 70.559 63.0275 73.2097C61.2183 74.4887 59.2997 75.6163 57.2886 76.5756C56.1694 77.1226 55.0166 77.6022 53.8385 78.0398C53.1232 78.3007 52.3996 78.5447 51.6675 78.7719C51.2299 78.9065 50.7839 79.0328 50.3379 79.1506C49.4964 79.3778 48.6465 79.5797 47.7798 79.7396C47.2076 79.8574 46.6354 79.9584 46.0547 80.0425L44.5821 78.5699L43.3956 77.3834L42.4027 76.3905L40.2233 74.211L39.0283 73.0161L38.0354 72.0232L36.8489 70.8367L35.8559 69.8437L34.6694 68.6572L33.6765 67.6643L31.4971 65.4848L30.3021 64.2899L29.3092 63.297L18.2437 52.2314C18.008 51.7518 17.8313 51.2301 17.7219 50.6915C17.6378 50.2876 17.5957 49.8753 17.5957 49.4461V31.3794C17.6294 30.0162 18.0922 28.754 18.8579 27.7274C19.2282 27.2309 19.6742 26.7849 20.1706 26.4147C21.1973 25.6321 22.4679 25.1609 23.8395 25.1356C23.89 25.1272 23.9489 25.1272 23.9994 25.1272H56.0011C56.1189 25.1272 56.2367 25.1272 56.3461 25.144C57.0361 25.1693 57.7009 25.3207 58.3152 25.5648C58.6013 25.6742 58.8706 25.8004 59.1314 25.9519L59.5269 26.3474L61.5633 28.3838L61.7064 28.5268L62.8929 29.7133L65.0807 31.9012L66.0653 32.8857L67.2602 34.0806L68.2531 35.0736L69.4396 36.2601L70.4326 37.253L71.6191 38.4395L73.8069 40.6274L74.7999 41.6203L75.9864 42.8068L76.9793 43.7998L78.1658 44.9863L79.1588 45.9792L79.5627 46.3831Z" fill="#2C2C2C"/>
<path d="M61.5633 28.3838C60.9911 27.374 60.1496 26.5241 59.1314 25.9519C58.2058 25.4217 57.1371 25.1272 56.0011 25.1272H23.9994C20.482 25.1272 17.5957 28.0051 17.5957 31.5309V49.4461C17.5957 50.4391 17.8313 51.3899 18.2437 52.2314C18.8664 53.5189 19.9266 54.5792 21.2141 55.2019C22.0556 55.6142 23.0065 55.8498 23.9994 55.8498H56.0011C59.5185 55.8498 62.3964 52.9635 62.3964 49.4461V31.5309C62.3964 30.3865 62.0934 29.3094 61.5633 28.3838ZM35.3679 45.9792V33.399L47.4769 39.7102L35.3679 45.9792Z" fill="#EFE3CD"/>
</svg>
