<svg width="1170" height="687" viewBox="0 0 1170 687" fill="none" xmlns="http://www.w3.org/2000/svg">
<path fill-rule="evenodd" clip-rule="evenodd" d="M1156.57 353.558C1156.57 529.378 900.197 673.23 585.001 673.23C269.804 673.23 13.4268 529.378 13.4268 353.558C13.4268 325.427 19.8204 298.574 31.9679 272.361C28.1318 287.705 26.2136 303.05 26.2136 318.394C26.2136 404.066 85.0336 484.623 191.165 544.722C296.657 604.181 436.673 636.787 585.001 636.787C733.968 636.787 873.345 604.181 978.837 544.722C1085.61 484.623 1143.79 404.066 1143.79 318.394C1143.79 303.05 1142.08 287.705 1138.67 272.361C1150.18 298.574 1156.57 325.427 1156.57 353.558ZM1152.1 338.853C1152.1 338.853 1151.46 344.607 1150.82 354.837C1150.18 359.951 1149.54 366.345 1147.62 374.017C1146.77 377.427 1145.92 381.263 1145.07 385.525C1143.79 390.001 1142.51 393.837 1140.59 398.312C1134.2 416.853 1123.97 437.951 1107.35 459.05C1091.36 480.787 1069.62 502.525 1044.05 522.345C1030.62 532.574 1016.56 542.164 1001.21 551.115C985.869 560.066 969.886 569.656 952.624 577.328C935.361 585.64 917.46 592.673 898.919 599.705C880.378 606.738 861.197 613.132 841.378 618.886C801.738 630.394 759.542 638.705 716.705 644.46C673.23 649.574 629.115 652.771 585.001 652.771C540.886 652.771 496.771 649.574 453.935 644.46C411.099 638.705 368.902 630.394 329.263 618.886C309.443 613.132 290.263 606.738 271.083 599.705C252.542 592.673 234.64 585.64 218.017 577.328C200.755 569.656 184.771 560.066 169.427 551.115C154.083 542.164 139.378 532.574 126.591 522.345C100.378 502.525 78.64 480.787 62.6563 459.05C46.6727 437.951 35.8038 416.853 29.4104 398.312C28.1317 393.837 26.2138 390.001 25.5745 385.525C24.2958 381.263 23.2302 377.427 22.3777 374.017C21.099 366.345 20.4597 359.951 19.181 354.837C18.5417 344.607 18.5418 338.853 18.5418 338.853C18.5418 338.853 18.5418 344.607 18.5418 354.837C19.1812 359.951 19.8203 366.345 21.099 374.017C21.9514 377.853 22.804 381.902 23.6565 386.164C24.2958 390.001 26.2137 394.476 27.4924 399.591C33.2465 418.132 42.8368 439.869 58.8204 462.246C74.1647 484.623 95.9022 507.001 122.115 528.099C134.902 538.968 149.607 548.558 164.312 558.787C180.296 568.378 196.28 577.328 213.542 586.279C230.804 594.591 248.706 602.263 267.886 609.935C286.427 616.968 305.607 624.001 326.066 629.755C366.345 641.263 408.542 650.853 452.017 656.607C496.132 662.361 540.247 665.558 585.001 665.558C629.755 665.558 674.509 662.361 717.984 656.607C761.46 650.853 804.296 641.263 844.574 629.755C864.394 624.001 884.214 616.968 902.755 609.935C921.296 602.263 939.837 594.591 957.099 585.64C974.361 577.328 990.345 568.378 1005.69 558.787C1021.03 548.558 1035.1 538.968 1048.53 528.099C1074.74 507.001 1095.84 484.623 1111.82 462.246C1127.16 439.869 1137.39 418.132 1143.15 399.591C1144.43 394.476 1146.35 390.001 1146.98 386.164C1147.84 381.902 1148.69 377.853 1149.54 374.017C1150.82 366.345 1150.82 359.951 1151.46 354.837C1152.1 344.607 1152.1 338.853 1152.1 338.853Z" fill="#EFE3CD" fill-opacity="0.04"/>
<path fill-rule="evenodd" clip-rule="evenodd" d="M1170 353.557C1170 443.066 1108.62 526.82 997.377 590.115C887.41 652.131 741 686.656 585 686.656C429.639 686.656 283.229 652.131 173.262 590.115C61.3769 526.82 0 443.066 0 353.557C0 297.934 23.6558 244.23 68.4099 196.918C95.9017 157.918 137.459 122.115 191.164 92.0656C296.656 32.6065 436.672 0 585 0C733.967 0 873.344 32.6065 978.836 92.0656C1032.54 122.115 1074.1 157.918 1102.23 196.918C1146.98 244.23 1170 297.934 1170 353.557ZM1138.67 272.361C1142.08 287.705 1143.79 303.049 1143.79 318.393C1143.79 404.066 1085.61 484.623 978.836 544.721C873.344 604.18 733.967 636.787 585 636.787C436.672 636.787 296.656 604.18 191.164 544.721C85.0329 484.623 26.213 404.066 26.213 318.393C26.213 303.049 28.1311 287.705 31.9672 272.361C19.8197 298.574 13.4261 325.426 13.4261 353.557C13.4261 529.377 269.803 673.23 585 673.23C900.197 673.23 1156.57 529.377 1156.57 353.557C1156.57 325.426 1150.18 298.574 1138.67 272.361ZM40.2786 302.41L212.902 267.885C212.475 264.475 212.262 260.852 212.262 257.016C212.262 223.771 225.688 191.803 249.983 163.672L128.508 151.525C77.3605 195.639 45.3934 246.787 40.2786 302.41ZM1041.49 151.525L962.213 159.197C998.656 172.623 1036.38 193.721 1038.93 224.41C1040.85 245.508 1029.98 264.049 1015.28 279.393L1129.72 302.41C1124.61 246.787 1093.28 195.639 1041.49 151.525ZM1130.36 306.246L1012.72 282.59C983.951 312 941.115 330.541 941.115 330.541C941.115 330.541 956.459 306.885 959.656 271.721L957.098 271.082C953.262 307.525 932.803 341.41 900.836 370.82L1065.15 462.885C1107.34 420.049 1131 370.82 1131 318.393C1130.57 314.131 1130.36 310.082 1130.36 306.246ZM39.6394 318.393C39.6394 370.82 63.2952 420.049 104.853 462.885L269.164 370.82C237.197 341.41 217.377 307.525 212.902 271.082L40.2786 306.246C39.8524 310.082 39.6394 314.131 39.6394 318.393ZM297.295 137.459C251.902 170.705 225.688 212.262 225.688 257.016C225.688 367.623 386.803 457.131 585 457.131C781.918 457.131 941.754 368.902 944.951 259.574C939.836 292.82 922.574 322.23 922.574 322.23L914.262 316.475C912.557 319.033 910.639 321.803 908.508 324.787C898.918 338.852 886.131 352.279 870.147 365.705C853.524 378.492 834.984 390 813.885 400.869C792.147 411.098 769.131 420.689 744.197 427.721C694.967 442.426 639.984 449.459 585 450.098C530.016 449.459 475.033 442.426 425.803 427.721C401.508 420.689 377.852 411.098 356.754 400.869C335.656 390 316.475 378.492 300.492 365.705C284.508 352.279 271.082 338.852 261.492 324.787C251.902 310.721 246.148 297.295 242.312 286.426C238.476 274.918 237.836 265.328 237.197 258.934C238.475 265.328 239.754 274.279 243.59 285.787C247.426 296.656 254.459 310.082 264.049 322.869C274.279 336.295 287.066 349.721 303.689 361.869C319.672 374.016 338.213 385.525 359.312 395.754C380.41 405.344 403.426 414.295 427.721 420.689C476.951 434.754 531.295 441.787 585 441.787C639.344 441.787 693.688 434.754 742.279 420.689C767.213 414.295 790.23 405.344 811.328 395.754C831.787 385.525 850.967 374.016 866.951 361.869C882.934 349.721 896.361 336.295 905.951 322.869C908.082 320.311 910.213 317.541 912.344 314.557L905.951 310.082C927.049 272.361 930.885 242.311 920.656 212.902C922.787 221.426 923.852 230.377 923.852 239.754C923.852 346.525 772.328 434.115 585 434.115C398.311 434.115 246.148 346.525 246.148 239.754C246.148 202.033 264.689 167.508 297.295 137.459ZM909.148 258.295L904.033 256.377C900.836 273.639 893.803 290.262 884.853 304.967L751.869 233.361C751.869 233.361 763.377 224.41 772.328 210.344L770.41 209.705C762.738 219.082 753.148 227.82 741.639 235.918L877.82 318.393C894.443 299.852 905.312 279.393 909.148 258.295ZM292.18 318.393L429 235.918C417.492 227.82 407.901 219.082 400.229 209.705L261.492 258.295C265.328 279.393 276.197 299.852 292.18 318.393ZM260.852 255.098L398.311 206.508C391.065 197.131 386.164 186.902 383.607 175.82L270.443 193.721C263.41 208.426 259.574 223.77 259.574 239.754C259.574 244.869 260 249.984 260.852 255.098ZM507.64 65.2131C460.967 79.918 429 107.41 429 139.377C429 186.049 499.328 224.41 585 224.41C671.311 224.41 741 186.049 741 139.377C741 127.869 737.164 117 730.131 107.41C734.607 115.721 737.164 125.311 737.164 135.541C736.525 167.508 709.033 184.77 709.033 184.77L677.066 136.82C681.541 129.148 684.098 121.475 684.738 115.082C676.426 143.213 635.508 164.311 585 164.311C528.738 164.311 483.984 138.098 483.984 104.213C483.984 92.0656 490.377 80.5574 500.606 70.9672C500.18 70.1147 500.607 69.4754 501.885 69.0492C502.311 68.623 502.951 68.4098 503.803 68.4098C505.082 67.1312 506.361 66.0656 507.64 65.2131ZM898.279 252.541C898.279 252.541 891.246 249.984 881.016 246.148C875.262 244.23 869.508 241.672 862.476 239.115C856.082 237.197 848.41 234.639 841.377 232.082C834.344 229.525 827.311 226.967 820.279 224.41C813.885 222.492 807.492 219.934 801.738 218.656C791.508 214.82 783.836 212.262 783.836 212.262C783.836 212.262 790.869 215.459 801.738 219.295C806.853 221.213 813.246 223.771 820.279 225.689C826.672 228.246 833.705 230.803 840.738 233.361C848.41 235.918 855.443 238.475 861.836 240.393C868.869 242.951 875.262 244.869 880.377 246.787C891.246 250.623 898.279 252.541 898.279 252.541ZM519.787 86.9508C519.787 80.5574 522.344 74.8033 526.82 69.6885C508.918 78.6393 497.41 90.7869 497.41 104.213C497.41 129.148 537.689 150.885 585 150.885C632.951 150.885 672.59 129.148 672.59 104.213C672.59 101.23 672.164 98.2459 671.311 95.2623C671.951 108.689 661.721 120.197 661.721 120.197L644.459 106.131C644.459 106.131 646.377 103.574 647.656 98.459C638.705 113.164 614.41 124.033 585 124.033C549.197 124.033 519.787 107.41 519.787 86.9508ZM395.754 161.115C395.754 218.656 480.787 265.328 585 265.328C679.623 265.328 758.262 226.967 772.328 177.098C762.098 200.754 737.164 217.377 737.164 217.377L725.656 199.475C735.246 192.443 748.033 178.377 751.869 157.918C736.524 203.311 667.475 237.836 585 237.836C491.656 237.836 415.574 193.721 415.574 139.377C415.574 126.59 420.049 114.443 427.721 102.934C407.262 119.557 395.754 139.377 395.754 161.115ZM774.246 207.787C778.721 200.754 781.918 193.082 783.836 185.41C781.279 192.656 777.443 199.689 772.328 206.508L774.246 207.787ZM898.279 190.525C895.295 185.41 892.098 180.295 888.689 175.18C891.672 180.295 894.23 185.41 896.361 190.525H898.279ZM771.049 91.4262C756.983 85.8852 742.279 80.9836 726.935 76.7213C737.164 82.6885 746.328 89.082 754.426 95.9016L771.049 91.4262ZM398.951 91.4262L415.574 96.541C423.672 89.2951 432.836 82.9016 443.065 77.3607C427.721 81.6229 413.017 86.3115 398.951 91.4262ZM317.754 136.82C297.295 152.803 281.951 171.344 271.721 190.525L382.967 173.262C382.115 169.426 381.689 165.377 381.689 161.115C381.689 153.443 382.967 145.984 385.525 138.738L317.754 136.82ZM294.098 321.59C312 340.771 335.016 358.033 363.147 372.738L471.836 258.934C456.918 252.967 443.492 246.148 431.557 238.475L294.098 321.59ZM365.705 374.016C394.475 388.721 428.361 400.23 464.803 408.541L524.901 273.639C507 270.443 490.377 265.967 475.033 260.213L365.705 374.016ZM467.361 409.18C503.164 416.852 542.164 421.328 582.442 421.328V279.393C563.262 278.967 544.934 277.262 527.459 274.279L467.361 409.18ZM585.639 421.328C626.557 421.328 664.918 416.852 700.721 409.18L640.623 274.918C623.148 277.902 604.82 279.393 585.639 279.393V421.328ZM703.918 408.541C740.36 400.23 774.246 388.721 803.016 374.656L693.689 260.852C678.344 266.607 661.721 271.082 643.82 274.279L703.918 408.541ZM806.213 372.738C833.705 358.033 857.361 340.771 875.262 321.59L737.803 238.475C725.869 246.574 712.442 253.393 697.524 258.934L806.213 372.738ZM836.902 49.2295L786.393 78.6393C831.787 95.2623 870.147 117.639 898.918 143.852C909.787 145.771 930.885 150.246 953.902 157.918L1037.66 149.607C986.508 107.41 918.099 72.8853 836.902 49.2295ZM775.525 94.623L756.344 99.7377C756.77 99.7377 757.197 99.9508 757.623 100.377L778.721 95.9016C777.869 95.4754 776.803 95.0492 775.525 94.623ZM528.738 79.2787C528.738 96.541 553.672 110.607 584.361 110.607C615.049 110.607 639.983 96.541 639.983 79.2787C639.983 78.8525 639.983 78.6393 639.983 78.6393C638.705 85.0328 634.23 90.1475 634.23 90.1475L622.721 80.5574C622.721 80.5574 624.639 78.6393 625.279 74.1639C624.426 75.4426 623.574 76.7213 622.721 78C618.885 82.4754 614.41 85.0328 609.935 87.5902C600.344 90.7869 590.754 92.0656 581.803 91.4262C572.852 90.7869 564.541 88.2295 558.147 85.0328C551.754 81.1967 547.279 76.082 546 72.2459C544.721 68.4098 545.361 66.4918 545.361 65.8525C545.361 66.2787 545.574 66.918 546 67.7705C546 68.4098 546.639 69.6885 547.918 71.6066C549.836 74.8033 554.311 78 560.065 80.5574C566.459 83.1148 574.131 84.3934 581.803 83.7541C590.115 84.3934 599.066 82.4754 606.738 79.2787C614.41 76.082 620.803 70.3279 619.525 63.9344C618.885 61.3771 616.967 58.1803 614.41 55.623C611.852 53.0656 608.656 51.1475 606.098 49.8689C605.672 49.8689 605.246 49.8689 604.82 49.8689C598.426 48.1639 591.607 47.3115 584.361 47.3115C553.672 47.3115 528.738 61.377 528.738 79.2787ZM393.197 94.623C365.705 105.492 341.41 118.918 320.951 134.262L386.164 136.18C391.279 123.393 400.23 110.607 412.377 99.7377L393.197 94.623ZM959.016 269.803C959.656 258.295 958.377 245.508 955.82 232.082C953.262 222.492 950.066 213.541 945.59 205.23C953.262 221.852 957.098 239.754 957.098 258.295C957.098 261.705 957.098 265.328 957.098 269.164L959.016 269.803ZM909.787 241.033C909.787 225.049 905.951 209.705 899.557 195L897 194.361C904.672 214.82 906.59 234.639 903.393 254.459L908.508 256.377C909.361 251.262 909.787 246.148 909.787 241.033ZM106.771 466.721C153.443 514.033 222.492 553.672 305.606 581.803L403.426 444.984C349.721 428.361 304.328 403.426 271.082 374.016L106.771 466.721ZM308.803 583.082C389.361 609.295 483.344 624.639 583.082 624.639V472.475C519.787 471.836 459.689 462.885 407.262 446.262L308.803 583.082ZM586.279 625.279C686.016 625.279 779.361 609.934 859.918 583.082L762.098 446.902C709.672 462.885 649.574 472.475 586.279 472.475V625.279ZM863.115 582.443C946.23 554.312 1015.28 514.672 1062.59 467.361L897.64 374.656C864.394 404.066 819 428.361 765.295 445.623L863.115 582.443ZM874.623 141.295C873.77 140.869 872.918 140.23 872.066 139.377C872.918 140.23 873.77 141.082 874.623 141.934C874.623 141.508 874.623 141.295 874.623 141.295ZM832.426 48.5902C758.262 27.4918 674.508 15.3442 585.639 15.3442V42.1967C604.82 42.8361 622.721 44.7541 639.983 47.9508C691.131 52.4262 739.721 62.6557 781.918 78L832.426 48.5902ZM582.442 15.3442C494.213 15.3442 410.459 27.4918 336.295 48.5902L386.164 78.6393C429 63.2951 476.951 52.4262 528.738 47.9508C546 44.7541 563.901 42.8361 582.442 42.8361V15.3442ZM331.82 49.8689C251.262 73.5246 182.213 108.689 131.066 150.885L251.902 162.393C281.951 128.508 327.344 100.377 382.328 79.918L331.82 49.8689Z" fill="#2C2C2C"/>
<path d="M387.444 76.0826C429.64 60.7383 478.23 50.5089 529.378 46.0335C546.64 42.8367 564.542 40.9187 583.722 40.2793V26.8531V13.4269C494.853 13.4269 411.099 25.5744 336.936 46.6728L387.444 76.0826Z" fill="#EFE3CD" fill-opacity="0.04"/>
<path d="M787.034 77.9999C832.428 94.6228 870.789 116.361 899.559 142.574C910.428 144.492 932.165 149.606 954.542 156.639L1038.3 148.328C987.789 106.131 918.739 71.6064 837.543 47.9507L787.034 77.9999Z" fill="#EFE3CD" fill-opacity="0.04"/>
<path d="M586.916 26.853V40.2792C605.457 40.9186 623.998 42.8366 640.621 46.0333C692.408 50.5087 740.359 60.7382 783.195 76.0825L833.703 46.6727C759.539 25.5743 675.785 13.4268 586.916 13.4268V26.853Z" fill="#EFE3CD" fill-opacity="0.04"/>
<path d="M941.114 330.54C941.114 330.54 956.458 306.885 959.654 271.721L957.097 271.081C953.261 307.524 932.802 341.409 900.835 370.819L1065.15 462.885C1107.34 420.049 1131 370.819 1131 318.393C1130.57 314.131 1130.36 310.081 1130.36 306.245L1012.72 282.59C983.95 311.999 941.114 330.54 941.114 330.54Z" fill="#EFE3CD" fill-opacity="0.04"/>
<path d="M40.2773 302.41L212.9 267.885C212.474 264.475 212.261 260.852 212.261 257.016C212.261 223.77 225.687 191.803 249.982 163.672L128.507 151.524C77.3592 195.639 45.3921 246.787 40.2773 302.41Z" fill="#EFE3CD" fill-opacity="0.04"/>
<path d="M269.165 370.819C237.198 341.409 217.378 307.524 212.903 271.081L40.2798 306.245C39.8536 310.081 39.6406 314.131 39.6406 318.393C39.6406 370.819 63.2964 420.049 104.854 462.885L269.165 370.819Z" fill="#EFE3CD" fill-opacity="0.04"/>
<path d="M762.736 444.984C710.309 460.968 650.211 470.558 586.916 470.558V623.361C686.654 623.361 780.637 608.017 860.555 581.804L762.736 444.984Z" fill="#EFE3CD" fill-opacity="0.04"/>
<path d="M956.459 230.803C953.901 221.213 950.705 212.262 946.229 203.95C953.902 221.212 958.377 239.114 958.377 257.016C958.377 260.852 958.164 264.475 957.738 267.885L959.656 268.524C960.295 257.016 959.656 244.229 956.459 230.803Z" fill="#EFE3CD" fill-opacity="0.04"/>
<path d="M583.721 470.558C519.786 470.558 460.327 460.968 407.901 444.984L309.442 581.804C390 608.017 483.983 623.361 583.721 623.361V470.558Z" fill="#EFE3CD" fill-opacity="0.04"/>
<path d="M898.278 372.738C865.032 402.148 819.639 426.443 765.934 443.705L864.393 580.525C947.508 552.394 1015.92 512.755 1063.23 465.443L898.278 372.738Z" fill="#EFE3CD" fill-opacity="0.04"/>
<path d="M404.703 443.705C350.998 426.443 304.966 402.148 271.72 372.738L107.408 465.443C154.08 512.755 223.13 552.394 306.245 580.525L404.703 443.705Z" fill="#EFE3CD" fill-opacity="0.04"/>
<path d="M132.346 148.328L252.542 160.475C282.592 126.59 327.985 98.459 382.969 78L332.46 47.9508C251.903 71.6065 182.854 106.131 132.346 148.328Z" fill="#EFE3CD" fill-opacity="0.04"/>
<path d="M962.212 159.197C998.655 172.623 1036.38 193.721 1038.93 224.41C1040.85 245.508 1029.98 264.049 1015.28 279.393L1129.72 302.41C1124.61 246.787 1093.28 195.639 1041.49 151.524L962.212 159.197Z" fill="#EFE3CD" fill-opacity="0.04"/>
<path d="M225.688 257.016C225.688 367.623 386.802 457.131 584.999 457.131C781.917 457.131 941.753 368.902 944.95 259.574C939.835 292.82 922.573 322.229 922.573 322.229L914.261 316.475C912.556 319.033 910.638 321.803 908.507 324.787C898.917 338.852 886.13 352.279 870.146 365.705C853.524 378.492 834.983 390 813.884 400.869C792.147 411.098 769.13 420.688 744.196 427.721C694.966 442.426 639.983 449.459 584.999 450.098C530.015 449.459 475.032 442.426 425.802 427.721C401.507 420.688 377.851 411.098 356.753 400.869C335.655 390 316.474 378.492 300.491 365.705C284.507 352.279 271.081 338.852 261.491 324.787C251.901 310.721 246.147 297.295 242.311 286.426C238.475 274.918 237.835 265.328 237.196 258.934C238.474 265.328 239.753 274.279 243.589 285.787C247.425 296.656 254.458 310.082 264.048 322.869C274.278 336.295 287.065 349.721 303.688 361.869C319.671 374.016 338.212 385.525 359.311 395.754C380.409 405.344 403.425 414.295 427.721 420.689C476.95 434.754 531.294 441.787 584.999 441.787C639.343 441.787 693.687 434.754 742.278 420.689C767.212 414.295 790.229 405.344 811.327 395.754C831.786 385.525 850.966 374.016 866.95 361.869C882.933 349.721 896.36 336.295 905.95 322.869C908.081 320.311 910.212 317.541 912.343 314.557L905.95 310.082C927.048 272.361 930.884 242.311 920.655 212.902C922.786 221.426 923.852 230.377 923.852 239.754C923.852 346.525 772.327 434.115 584.999 434.115C398.311 434.115 246.147 346.525 246.147 239.754C246.147 202.033 264.688 167.508 297.294 137.459C251.901 170.705 225.688 212.262 225.688 257.016Z" fill="#EFE3CD" fill-opacity="0.04"/>
<path d="M875.902 140.016C875.902 139.59 875.902 139.377 875.902 139.377C875.05 138.951 874.197 138.311 873.345 137.459C874.197 138.311 875.05 139.164 875.902 140.016Z" fill="#EFE3CD" fill-opacity="0.04"/>
<path d="M897.639 193.082C905.311 213.541 907.229 233.36 904.032 253.18L909.786 255.098C910.212 249.983 910.426 244.868 910.426 239.754C910.426 223.77 907.229 208.426 900.196 193.721L897.639 193.082Z" fill="#EFE3CD" fill-opacity="0.04"/>
<path d="M758.261 99.7382L779.999 94.6234C778.72 94.1972 777.441 93.771 776.163 93.3447L756.982 98.4595C757.409 98.8857 757.835 99.3119 758.261 99.7382Z" fill="#EFE3CD" fill-opacity="0.04"/>
<path d="M583.721 278.754C564.54 278.328 546.213 276.623 528.737 273.64L468.639 408.541C504.442 416.213 542.803 420.689 583.721 420.689V278.754Z" fill="#EFE3CD" fill-opacity="0.04"/>
<path d="M772.327 206.508L774.245 207.787C778.721 200.754 781.917 193.082 783.835 185.41C781.278 192.656 777.442 199.689 772.327 206.508Z" fill="#EFE3CD" fill-opacity="0.04"/>
<path d="M383.608 175.82L270.444 193.721C263.411 208.426 259.575 223.771 259.575 239.754C259.575 244.869 260.002 249.984 260.854 255.099L398.313 206.508C391.067 197.131 386.166 186.902 383.608 175.82Z" fill="#EFE3CD" fill-opacity="0.04"/>
<path d="M386.803 135.541C391.918 122.115 400.869 109.328 413.016 98.4595L393.836 93.3447C366.344 104.214 342.049 118.279 322.229 133.623L386.803 135.541Z" fill="#EFE3CD" fill-opacity="0.04"/>
<path d="M884.853 304.968L751.869 233.361C751.869 233.361 763.377 224.41 772.328 210.345L770.41 209.705C762.738 219.082 753.148 227.82 741.64 235.918L877.82 318.394C894.443 299.853 905.312 279.394 909.148 258.295L904.033 256.377C900.837 273.64 893.804 290.263 884.853 304.968Z" fill="#EFE3CD" fill-opacity="0.04"/>
<path d="M363.788 372.098L471.837 258.934C456.919 252.967 443.493 245.934 431.558 237.836L294.738 320.95C312.001 340.131 335.657 357.393 363.788 372.098Z" fill="#EFE3CD" fill-opacity="0.04"/>
<path d="M896.361 189.886H898.279C895.721 184.771 892.525 179.656 888.688 174.541C891.672 179.656 894.23 184.771 896.361 189.886Z" fill="#EFE3CD" fill-opacity="0.04"/>
<path d="M272.361 189.885L382.968 172.622C382.542 168.786 382.329 164.95 382.329 161.114C382.329 153.442 383.608 145.983 386.165 138.737L317.755 136.819C297.935 152.803 281.951 170.704 272.361 189.885Z" fill="#EFE3CD" fill-opacity="0.04"/>
<path d="M641.9 273.64C624.424 276.623 606.096 278.328 586.916 278.754V420.689C627.195 420.689 666.195 416.213 701.998 408.541L641.9 273.64Z" fill="#EFE3CD" fill-opacity="0.04"/>
<path d="M416.212 95.9016C424.311 89.082 433.475 82.6885 443.704 76.7213C427.934 80.9836 413.016 85.8852 398.95 91.4262L416.212 95.9016Z" fill="#EFE3CD" fill-opacity="0.04"/>
<path d="M292.18 318.394L428.999 235.918C417.491 227.82 407.901 219.082 400.229 209.705L261.491 258.295C265.327 279.394 276.196 299.853 292.18 318.394Z" fill="#EFE3CD" fill-opacity="0.04"/>
<path d="M465.441 407.902L525.54 273.64C507.638 270.443 491.015 265.329 475.671 259.574L366.343 373.378C395.113 388.083 428.359 399.591 465.441 407.902Z" fill="#EFE3CD" fill-opacity="0.04"/>
<path d="M803.655 373.378L694.966 259.574C679.622 265.329 662.999 270.443 645.098 273.64L705.196 407.902C741.638 399.591 774.884 388.083 803.655 373.378Z" fill="#EFE3CD" fill-opacity="0.04"/>
<path d="M875.903 320.95L738.444 237.836C726.935 245.934 713.509 252.967 698.165 258.934L806.854 372.098C834.985 357.393 858.64 340.131 875.903 320.95Z" fill="#EFE3CD" fill-opacity="0.04"/>
<path d="M726.936 76.7213C737.165 82.6885 746.329 89.082 754.427 95.9016L771.05 91.4262C756.984 85.8852 742.28 80.9836 726.936 76.7213Z" fill="#EFE3CD" fill-opacity="0.04"/>
<path d="M395.754 161.115C395.754 218.656 480.787 265.328 585 265.328C679.623 265.328 758.262 226.968 772.327 177.099C762.098 200.755 737.164 217.378 737.164 217.378L725.655 199.476C735.246 192.443 748.032 178.378 751.868 157.919C736.524 203.312 667.475 237.837 585 237.837C491.655 237.837 415.573 193.722 415.573 139.378C415.573 126.591 420.049 114.443 427.082 102.935C407.262 119.558 395.754 139.378 395.754 161.115Z" fill="#EFE3CD" fill-opacity="0.04"/>
<path fill-rule="evenodd" clip-rule="evenodd" d="M507.641 65.2129C506.362 66.0653 505.083 67.1309 503.804 68.4096C502.952 68.4096 502.313 68.6227 501.886 69.0489C500.608 69.4752 500.181 70.1145 500.608 70.967C490.378 80.5571 483.985 92.0653 483.985 104.213C483.985 138.098 528.739 164.311 585.001 164.311C635.509 164.311 676.427 143.213 684.739 115.082C684.099 121.475 681.542 129.147 677.067 136.819L709.034 184.77C709.034 184.77 736.526 167.508 737.165 135.541C737.165 125.311 734.608 115.721 730.132 107.41C737.165 117 741.001 127.869 741.001 139.377C741.001 186.049 671.313 224.41 585.001 224.41C499.329 224.41 429.001 186.049 429.001 139.377C429.001 107.41 460.969 79.9178 507.641 65.2129ZM664.28 178.377C666.198 179.016 668.755 179.016 670.673 178.377C672.591 177.737 672.591 175.819 671.313 175.18C669.395 173.901 666.837 173.901 664.919 175.18C663.001 175.819 663.001 177.098 664.28 178.377ZM625.28 189.885C625.919 191.164 628.477 191.803 631.034 191.803C632.952 191.164 634.231 189.885 633.591 188.606C632.312 187.328 629.755 186.688 627.837 187.328C625.28 187.328 624.64 189.246 625.28 189.885ZM580.526 193.721C580.526 195 583.083 196.278 585.001 196.278C587.559 196.278 589.477 195 589.477 193.721C589.477 192.442 587.559 191.164 585.001 191.164C583.083 191.164 580.526 192.442 580.526 193.721ZM537.05 188.606C536.411 189.885 537.05 191.164 539.608 191.803C541.526 191.803 544.083 191.164 545.362 189.885C546.001 189.246 544.723 187.328 542.805 187.328C540.247 186.688 537.69 187.328 537.05 188.606ZM499.968 178.377C501.247 179.016 504.444 179.016 505.722 178.377C507.64 177.098 507.001 175.819 505.083 175.18C503.804 173.901 500.608 173.901 499.329 175.18C497.411 175.819 498.05 177.737 499.968 178.377ZM459.05 132.344C456.493 132.344 455.214 133.623 455.854 134.901C455.854 136.18 458.411 136.819 460.329 136.819C462.886 136.819 464.165 135.541 464.165 134.262C463.526 132.983 461.608 132.344 459.05 132.344ZM476.313 159.836C478.231 159.196 479.509 157.918 478.231 156.639C476.952 155.36 474.395 154.721 472.477 155.36C469.919 156 469.28 157.278 470.558 158.557C471.837 159.836 474.395 160.475 476.313 159.836ZM461.608 108.049C459.05 108.049 456.493 108.688 456.493 109.967C455.854 111.246 457.132 112.524 459.69 113.164C462.247 113.164 464.165 112.524 464.804 111.246C465.444 109.967 463.526 108.688 461.608 108.049ZM473.755 90.1473C476.312 91.426 478.87 90.7867 479.509 89.508C480.788 88.8686 480.149 86.9506 478.231 86.3112C476.313 85.6719 473.755 86.3112 472.477 86.9506C471.198 88.2293 471.837 89.508 473.755 90.1473Z" fill="#EFE3CD" fill-opacity="0.04"/>
<path d="M519.785 86.9503C519.785 80.5568 522.343 74.8027 526.818 69.688C508.917 78.6388 497.408 90.7864 497.408 104.213C497.408 129.147 537.687 150.885 584.998 150.885C632.949 150.885 672.589 129.147 672.589 104.213C672.589 101.229 672.162 98.2454 671.31 95.2618C671.949 108.688 661.72 120.196 661.72 120.196L644.457 106.131C644.457 106.131 646.375 103.573 647.654 98.4585C638.703 113.163 614.408 124.032 584.998 124.032C549.195 124.032 519.785 107.409 519.785 86.9503Z" fill="#EFE3CD" fill-opacity="0.04"/>
<path d="M473.753 90.147C476.311 91.4257 478.868 90.7864 479.508 89.5077C480.786 88.8683 480.147 86.9503 478.229 86.311C476.311 85.6716 473.754 86.311 472.475 86.9503C471.196 88.229 471.835 89.5077 473.753 90.147Z" fill="#2C2C2C"/>
<path d="M461.606 108.049C459.048 108.049 456.491 108.688 456.491 109.967C455.852 111.245 457.13 112.524 459.688 113.163C462.245 113.163 464.163 112.524 464.802 111.245C465.442 109.967 463.524 108.688 461.606 108.049Z" fill="#2C2C2C"/>
<path d="M455.851 134.901C455.851 136.18 458.409 136.819 460.327 136.819C462.884 136.819 464.163 135.541 464.163 134.262C463.523 132.983 461.606 132.344 459.048 132.344C456.491 132.344 455.212 133.623 455.851 134.901Z" fill="#2C2C2C"/>
<path d="M476.311 159.836C478.23 159.197 479.508 157.918 478.229 156.639C476.951 155.36 474.394 154.721 472.476 155.36C469.918 156 469.279 157.278 470.557 158.557C471.836 159.836 474.393 160.475 476.311 159.836Z" fill="#2C2C2C"/>
<path d="M505.721 178.377C507.639 177.098 507 175.82 505.082 175.18C503.804 173.902 500.607 173.902 499.328 175.18C497.41 175.82 498.049 177.738 499.968 178.377C501.246 179.016 504.443 179.016 505.721 178.377Z" fill="#2C2C2C"/>
<path d="M539.606 191.803C541.525 191.803 544.082 191.164 545.36 189.885C546 189.246 544.721 187.328 542.803 187.328C540.246 186.688 537.688 187.328 537.049 188.606C536.41 189.885 537.049 191.164 539.606 191.803Z" fill="#2C2C2C"/>
<path d="M584.999 196.278C587.556 196.278 589.474 194.999 589.474 193.721C589.474 192.442 587.556 191.163 584.999 191.163C583.081 191.163 580.523 192.442 580.523 193.721C580.523 194.999 583.081 196.278 584.999 196.278Z" fill="#2C2C2C"/>
<path d="M625.277 189.885C625.917 191.164 628.474 191.803 631.032 191.803C632.95 191.164 634.228 189.885 633.589 188.606C632.31 187.328 629.753 186.688 627.835 187.328C625.278 187.328 624.638 189.246 625.277 189.885Z" fill="#2C2C2C"/>
<path d="M670.673 178.377C672.591 177.738 672.591 175.82 671.313 175.18C669.395 173.902 666.837 173.902 664.919 175.18C663.001 175.82 663.001 177.098 664.28 178.377C666.198 179.017 668.755 179.017 670.673 178.377Z" fill="#2C2C2C"/>
<path d="M529.375 78.0002C529.375 95.2625 554.31 109.328 584.998 109.328C615.687 109.328 641.26 95.2625 641.26 78.0002C641.26 77.574 641.047 77.3609 640.621 77.3609C639.342 83.7543 634.867 88.8691 634.867 88.8691L623.359 79.9183C623.359 79.9183 625.277 77.3609 625.916 72.8855C625.064 74.5904 624.211 76.0822 623.359 77.3609C619.523 81.1969 615.047 84.3937 610.572 86.3117C601.621 90.1478 591.391 91.4265 582.44 90.7871C573.49 90.1478 565.179 87.5904 558.785 83.7543C552.392 79.9183 548.555 75.4429 546.637 71.6068C545.359 67.1314 545.998 64.574 545.998 64.574C545.998 64.574 546.211 65.2133 546.637 66.492C546.637 67.7707 547.277 69.0494 548.555 70.3281C550.473 73.5248 554.949 77.3609 560.703 79.2789C567.096 81.8363 574.769 83.115 583.08 83.115C590.752 83.115 599.703 81.8363 607.375 78.0002C615.047 75.4429 621.441 69.0494 620.162 63.2953C620.162 60.0986 618.244 56.9019 615.047 54.9838C612.49 52.4265 609.933 50.5084 606.736 49.2298C606.31 49.2298 606.096 49.0166 606.096 48.5904C599.703 47.3117 592.67 46.6724 584.998 46.6724C554.31 46.6724 529.375 60.7379 529.375 78.0002Z" fill="#EFE3CD" fill-opacity="0.04"/>
<path d="M881.017 246.147C875.263 244.229 869.509 241.672 862.477 239.114C856.083 237.196 848.411 234.639 841.378 232.082C834.345 229.524 827.312 226.967 820.28 224.41C813.886 222.491 807.493 219.934 801.739 218.655C791.509 214.819 783.837 212.262 783.837 212.262C783.837 212.262 790.87 215.459 801.739 219.295C806.854 221.213 813.247 223.77 820.28 225.688C826.673 228.246 833.706 230.803 840.739 233.36C848.411 235.918 855.444 238.475 861.837 240.393C868.87 242.95 875.263 244.869 880.378 246.787C891.247 250.623 898.28 252.541 898.28 252.541C898.28 252.541 891.247 249.983 881.017 246.147Z" fill="#EFE3CD" fill-opacity="0.04"/>
<path d="M1147.62 374.016C1146.77 377.426 1145.92 381.262 1145.06 385.525C1143.79 390 1142.51 393.836 1140.59 398.312C1134.2 416.853 1123.97 437.951 1107.34 459.049C1091.36 480.787 1069.62 502.525 1044.05 522.344C1030.62 532.574 1016.56 542.164 1001.21 551.115C985.868 560.066 969.884 569.656 952.622 577.328C935.36 585.639 917.458 592.672 898.917 599.705C880.376 606.738 861.196 613.131 841.376 618.885C801.737 630.394 759.54 638.705 716.704 644.459C673.228 649.574 629.114 652.771 584.999 652.771C540.884 652.771 496.769 649.574 453.933 644.459C411.097 638.705 368.901 630.394 329.261 618.885C309.442 613.131 290.261 606.738 271.081 599.705C252.54 592.672 234.638 585.639 218.015 577.328C200.753 569.656 184.769 560.066 169.425 551.115C154.081 542.164 139.376 532.574 126.589 522.344C100.376 502.525 78.6382 480.787 62.6546 459.049C46.671 437.951 35.802 416.853 29.4086 398.312C28.1299 393.836 26.212 390 25.5727 385.525C24.294 381.262 23.2284 377.426 22.3759 374.016C21.0973 366.344 20.4579 359.951 19.1792 354.836C18.5399 344.607 18.54 338.853 18.54 338.853C18.54 338.853 18.54 344.607 18.54 354.836C19.1794 359.951 19.8185 366.344 21.0972 374.016C21.9496 377.853 22.8023 381.902 23.6547 386.164C24.2941 390 26.2119 394.475 27.4906 399.59C33.2447 418.131 42.835 439.869 58.8187 462.246C74.1629 484.623 95.9004 507 122.114 528.098C134.9 538.967 149.606 548.557 164.31 558.787C180.294 568.377 196.278 577.328 213.54 586.279C230.802 594.59 248.704 602.262 267.884 609.935C286.425 616.967 305.605 624 326.064 629.754C366.343 641.262 408.54 650.853 452.015 656.607C496.13 662.361 540.245 665.557 584.999 665.557C629.753 665.557 674.507 662.361 717.982 656.607C761.458 650.853 804.294 641.262 844.573 629.754C864.392 624 884.212 616.967 902.753 609.935C921.294 602.262 939.835 594.59 957.097 585.639C974.36 577.328 990.343 568.377 1005.69 558.787C1021.03 548.557 1035.1 538.967 1048.52 528.098C1074.74 507 1095.84 484.623 1111.82 462.246C1127.16 439.869 1137.39 418.131 1143.15 399.59C1144.43 394.475 1146.34 390 1146.98 386.164C1147.84 381.902 1148.69 377.853 1149.54 374.016C1150.82 366.344 1150.82 359.951 1151.46 354.836C1152.1 344.607 1152.1 338.853 1152.1 338.853C1152.1 338.853 1151.46 344.607 1150.82 354.836C1150.18 359.951 1149.54 366.344 1147.62 374.016Z" fill="#2C2C2C"/>
</svg>
