<svg width="180" height="180" viewBox="0 0 180 180" fill="none" xmlns="http://www.w3.org/2000/svg">
<rect x="0.661606" y="0.664536" width="178.677" height="178.677" fill="#2C2C2C"/>
<rect x="0.661606" y="0.664536" width="178.677" height="178.677" stroke="#EFE3CD" stroke-width="1.32321"/>
<path fill-rule="evenodd" clip-rule="evenodd" d="M8.26031 8.26323C8.1331 8.39008 8.02912 17.2804 8.02912 28.0194V47.5444H27.96H47.8909V27.7882V8.03204H28.1912C17.3561 8.03204 8.38718 8.13602 8.26031 8.26323ZM53.4369 10.7816V13.5485L56.1232 13.6497L58.8095 13.7509L58.9049 19.3832L59.0002 25.0154H56.2185H53.4369V39.226V53.4366H47.7176H41.9983V56.2094V58.9822H39.2253H36.4523V56.2094V53.4366H33.6793H30.9063V56.2094V58.9822H33.6793H36.4523V61.755V64.5278H27.96H19.4677V61.755V58.9822H16.6947H13.9217V56.2094V53.4366H10.9609H8L8.10121 56.1228L8.20243 58.8089L11.0621 58.9095L13.9217 59.0103V61.7689V64.5278H10.9616H8.00104L8.10191 67.3873L8.20243 70.2467L11.0621 70.3473L13.9217 70.4481V67.4878V64.5278H16.6809H19.4396L19.5405 67.3873L19.641 70.2467L22.3274 70.3479L25.0137 70.4492V73.2074V75.9656H16.5068H8L8.10121 78.6518L8.20243 81.3379H19.4677H30.733L30.8339 78.666L30.9351 75.9944L33.6069 75.8932L36.279 75.7923L36.3802 73.1062L36.4814 70.42H42.1861H47.8909V73.1928V75.9656H44.9446H41.9983V78.7384V81.5112H39.2114H36.4242L36.5251 84.3707L36.6256 87.2301L39.3119 87.3313L41.9983 87.4326V90.0175V92.6024H44.9446H47.8909V95.3614V98.12L45.0312 98.2208L42.1716 98.3213L42.0711 101.181L41.9702 104.04H36.4242H30.8782L30.9791 101.181L31.0796 98.3213L33.7802 98.2198L36.4811 98.1182L36.3799 95.447L36.279 92.7757L33.5926 92.6745L30.9063 92.5733V89.9884V87.4034H27.96H25.0137V92.7757V98.148H22.2407H19.4677V92.7757V87.4034H13.7484H8.02912V89.9891V92.5744L10.8888 92.6752L13.7484 92.7757L13.8496 95.4619L13.9508 98.148H16.7093H19.4677V101.094V104.04H25.187H30.9063V106.799V109.558L28.0467 109.659L25.187 109.759L25.0861 112.431L24.9849 115.103L22.3131 115.204L19.641 115.305L19.5405 118.156L19.44 121.007L13.8212 121.102L8.20243 121.197L8.10121 123.883L8 126.569H13.7339H19.4677V123.796V121.024H22.2407H25.0137V123.796V126.569H27.96H30.9063V123.796V121.024H33.6793H36.4523V123.796V126.569H44.9446H53.4369V132.288V138.007H56.2099H58.9829V132.288V126.569H61.9378H64.8928L64.7975 120.937L64.7022 115.305L61.8425 115.204L58.9829 115.103V112.345V109.586H61.9292H64.8755V106.813V104.04H66.5628H68.2502L68.8332 101.963C69.4149 99.8907 69.4142 99.8817 68.4804 97.371C67.1885 93.897 66.9219 87.3761 67.9278 83.8508L68.5951 81.5112H66.7493H64.9035L64.8027 84.3707L64.7022 87.2301L61.8425 87.3307L58.9829 87.4315V95.7357V104.04H56.2185H53.4542L53.3589 98.408L53.2636 92.7757L50.5772 92.6745L47.8909 92.5733V89.9884V87.4034H44.9446H41.9983V84.4712V81.5393L44.8579 81.4385L47.7176 81.3379L47.8184 78.666L47.9197 75.9944L50.5914 75.8932L53.2636 75.7923L53.3644 73.1204L53.4656 70.4488L56.1374 70.3476L58.8095 70.2467L58.9101 67.4011L59.0106 64.5556L61.8564 64.4551L64.7022 64.3545L64.7975 58.8956L64.8931 53.4366H67.6571H70.4215V58.9968V64.557L73.1078 64.4558L75.7941 64.3545L75.8895 58.8956L75.9851 53.4366H73.2031H70.4215V44.9449V36.4532H81.5134H92.6054V39.226V41.9988H90.0057H87.406V44.7716V47.5444H90.0057H92.6054V44.7716V41.9988H95.5517H98.498V50.4905V58.9822H95.5517H92.6054V56.2094V53.4366H90.0057H87.406V56.2094V58.9822H84.633H81.8601V63.5286V68.0746L82.64 67.8528C83.0691 67.7304 84.1998 67.4473 85.153 67.2233C86.1062 66.9991 87.0008 66.6521 87.1409 66.4518C87.2809 66.2515 87.3977 64.4887 87.4008 62.5349L87.406 58.9822H90.0057H92.6054L92.6106 62.5349C92.6137 64.4887 92.7305 66.2477 92.8706 66.4438C93.0106 66.6397 93.9832 66.9762 95.0318 67.1915C101.548 68.5293 107.997 73.3332 110.717 78.8757L112.018 81.5254L119.209 81.4315L126.401 81.3379L126.494 72.9329L126.587 64.5278H123.808H121.029V67.4739V70.42H118.256H115.483V64.7011V58.9822H123.969H132.455L132.548 67.3873L132.64 75.7923H135.24H137.84L137.935 70.1601L138.03 64.5278H152.247H166.464L166.364 67.3873L166.263 70.2467L163.412 70.3473L160.561 70.4478L160.466 75.8929L160.37 81.3379L146.405 81.4284L132.439 81.5192L132.54 84.3745L132.64 87.2301L135.327 87.3313L138.013 87.4326V90.0029V92.5733L140.699 92.6745L143.386 92.7757L143.487 95.4619L143.588 98.148H146.505H149.423L149.524 95.4619L149.625 92.7757L155.084 92.6804L160.544 92.5848V101.085V109.586H157.785H155.027L154.926 106.9L154.824 104.214L149.192 104.118L143.559 104.023V106.804V109.586H149.278H154.998V112.359V115.131H157.771H160.544V118.064V120.996L163.403 121.096L166.263 121.197L166.355 132.375L166.446 143.553H163.495H160.544V149.272V154.99H154.998H149.452V157.763V160.536H146.505H143.559V163.309V166.082H140.786H138.013V163.309V160.536H135.24H132.467V154.817V149.098H143.732H154.998V146.325V143.553H152.225H149.452V140.78V138.007H154.998H160.544V135.061V132.115H154.998H149.452V129.342V126.569H152.225H154.998V123.796V121.024H149.278H143.559V118.078V115.131H138.013H132.467V118.078V121.024H126.748H121.029V118.078V115.131H123.802H126.575V112.344V109.557L123.888 109.658L121.202 109.759L121.101 112.431L121 115.103L118.328 115.204L115.656 115.305L115.555 118.15L115.455 120.996L112.609 121.096L109.763 121.197L109.662 123.883L109.561 126.569H106.802H104.044V120.85V115.131H106.817H109.59V112.359V109.586H112.536H115.483V106.813V104.04H123.975H132.467V106.813V109.586H135.255H138.042L137.941 106.9L137.84 104.214L135.167 104.113L132.495 104.011L132.394 101.167L132.294 98.3213L123.888 98.2284L115.483 98.1356V95.5627C115.483 92.8475 115.248 92.4122 113.96 92.7355C113.339 92.8912 113.082 93.3248 112.759 94.7611C112.533 95.7662 112.255 96.9391 112.141 97.3682C111.948 98.1023 112.04 98.148 113.709 98.148H115.483V101.08V104.012L112.623 104.113L109.763 104.214L109.662 106.885L109.561 109.557L106.889 109.658L104.217 109.759L104.116 112.454L104.015 115.148L98.3965 115.053L92.7787 114.958L92.6702 113.832L92.5614 112.705L90.2439 112.699C88.2182 112.694 85.1464 112.195 82.64 111.465C81.8968 111.249 81.8601 111.33 81.8601 113.185V115.131H76.1408H70.4215V118.086V121.041L76.0541 120.946L81.6867 120.85L81.7876 117.977L81.8885 115.103L84.5606 115.204L87.2327 115.305V120.85V126.396L84.5464 126.497L81.8601 126.598V129.357V132.115H78.9283H75.9966L75.8953 129.429L75.7941 126.743L73.1078 126.641L70.4215 126.54V129.327V132.115H67.6485H64.8755V135.067V138.02L73.2811 137.927L81.6867 137.834L81.7873 134.974L81.8881 132.115H87.2327H92.5773L92.6782 134.974L92.7787 137.834L95.6384 137.934L98.498 138.035V143.581V149.126L95.6384 149.025L92.7787 148.925L92.6775 146.239L92.5763 143.553H87.2182H81.8601V146.311V149.069L84.5464 149.17L87.2327 149.272V152.044V154.817L81.6001 154.912L75.9674 155.008V152.053V149.098H67.4752H58.9829V146.325V143.553H56.2099H53.4369V146.325V149.098H56.2099H58.9829V152.044V154.99H61.9292H64.8755V157.763V160.536H61.9292H58.9829V163.309V166.082H56.2099H53.4369V169.042V172.003L56.1232 171.902L58.8095 171.801L58.9101 168.941L59.0109 166.082H61.943H64.8755V169.042V172.003L67.5618 171.902L70.2481 171.801L70.3487 168.941L70.4495 166.082H67.6623H64.8755V163.323V160.565L67.5618 160.464L70.2481 160.363L70.3494 157.677L70.4506 154.99H73.209H75.9674V157.763V160.536H78.9137H81.8601V166.269V172.003L84.5464 171.902L87.2327 171.801L87.3333 168.955L87.4338 166.11L90.0647 166.009L92.6955 165.908L92.7371 163.309L92.7787 160.709L95.6297 160.609L98.4807 160.508L98.576 166.154L98.6713 171.801L107.077 171.893L115.483 171.986V169.034V166.082H118.242H121L121.101 168.941L121.202 171.801L126.835 171.896L132.467 171.991V169.036V166.082H135.24H138.013V169.028V171.974H143.732H149.452V169.028V166.082H152.225H154.998V163.309V160.536H157.771H160.544V166.269V172.002L163.403 171.901L166.263 171.801L166.364 168.955L166.464 166.11L169.137 166.009L171.809 165.908L171.904 160.449L172 154.99H169.218H166.436V149.272V143.553H169.212H171.988L171.898 123.883L171.809 104.214L169.123 104.112L166.436 104.011V101.08V98.148H169.209H171.982V89.8296V81.5112H169.209H166.436V78.753V75.9948L169.123 75.8935L171.809 75.7923L171.9 64.6145L171.992 53.4366H169.229H166.465L166.364 56.1228L166.263 58.8089L160.63 58.9043L154.998 58.9996V56.2181V53.4366H140.786H126.575V47.7177V41.9988H123.802H121.029V39.226V36.4532H123.802H126.575V33.5071V30.561H123.802H121.029V33.5134V36.4657L112.623 36.3728L104.217 36.2799L104.117 33.4205L104.016 30.561H106.803H109.59V27.7882V25.0154H112.536H115.483V22.2426V19.4698H121.029H126.575V16.5151V13.56L121.115 13.6556L115.656 13.7509L115.555 16.6104L115.455 19.4698H112.522H109.59V13.7364V8.00293L106.904 8.10414L104.217 8.20534L104.116 10.8915L104.015 13.5776H101.256H98.498V10.791V8.00397L95.6384 8.10483L92.7787 8.20534V10.8048V13.4043L95.6384 13.5049L98.498 13.6057V16.5376V19.4698H104.044H109.59V22.2281V24.9863L106.904 25.0875L104.217 25.1887L104.116 27.8891L104.014 30.5898L101.343 30.4886L98.6713 30.3877L98.5701 27.7016L98.4689 25.0154H95.5371H92.6054V22.2426V19.4698H90.0057H87.406V22.2426V25.0154H76.147H64.888L64.7951 16.6104L64.7022 8.20534L59.0695 8.11003L53.4369 8.01471V10.7816ZM70.4215 13.7364V19.4698H76.1408H81.8601V16.5383V13.6068L84.5464 13.5056L87.2327 13.4043V10.8048V8.20534L84.5464 8.10414L81.8601 8.00293V10.7903V13.5776H78.9283H75.9966L75.8953 10.8915L75.7941 8.20534L73.1078 8.10414L70.4215 8.00293V13.7364ZM132.467 27.7855V47.5444H152.228H171.988L171.898 27.8749L171.809 8.20534L152.138 8.11592L132.467 8.02615V27.7855ZM41.9983 27.7882V41.9988H27.96H13.9217V28.0194C13.9217 20.3305 14.0257 13.9357 14.1529 13.8088C14.2798 13.6816 20.597 13.5776 28.1912 13.5776H41.9983V27.7882ZM166.353 27.8749L166.444 41.9988H152.229H138.013V27.7844V13.57L152.138 13.6605L166.263 13.7509L166.353 27.8749ZM19.4677 27.9615V36.4532H27.96H36.4523V27.9615V19.4698H27.96H19.4677V27.9615ZM143.559 27.9615V36.4532H152.051H160.544V27.9615V19.4698H152.051H143.559V27.9615ZM92.6054 27.7882V30.561H90.0057H87.406V27.7882V25.0154H90.0057H92.6054V27.7882ZM64.8755 41.9988V47.5444H61.9292H58.9829V41.9988V36.4532H61.9292H64.8755V41.9988ZM75.9674 44.7716V47.5725L78.8271 47.4717L81.6867 47.3711V44.7716V42.1721L78.8271 42.0716L75.9674 41.9708V44.7716ZM109.59 44.7862V47.5736L106.904 47.4724L104.217 47.3711L104.113 45.1546C104.055 43.9356 104.089 42.727 104.189 42.4685C104.318 42.1309 105.103 41.9988 106.98 41.9988H109.59V44.7862ZM121.029 47.7177V53.4366H118.256H115.483V56.2094V58.9822H112.536H109.59V64.7011V70.42H112.536H115.483V73.1928V75.9656H112.536H109.59V73.2074V70.4492L106.904 70.3479L104.217 70.2467L104.124 61.8417L104.032 53.4366H109.757H115.483V47.7177V41.9988H118.256H121.029V47.7177ZM58.9829 61.755V64.5278H56.2099H53.4369V67.4739V70.42H50.6639H47.8909V67.4739V64.5278H44.9446H41.9983V61.755V58.9822H50.4906H58.9829V61.755ZM86.3738 70.0994C85.3298 70.2852 83.1699 71.0689 81.5744 71.8411C71.9951 76.4776 67.8724 87.41 71.9341 97.4056L72.74 99.3889L71.3851 104.361C70.5327 107.488 70.1514 109.454 70.358 109.661C70.5643 109.867 72.4631 109.518 75.4749 108.718C80.5263 107.378 80.8337 107.371 84.0885 108.52C88.6702 110.136 94.2917 109.738 99.0505 107.46C102.242 105.932 106.552 101.677 108.132 98.4946C111.656 91.3973 110.668 83.2474 105.512 76.8852C103.476 74.3716 99.557 71.7077 96.5129 70.7677C93.8141 69.9341 89.065 69.6211 86.3738 70.0994ZM143.631 73.1062L143.732 75.7923H149.278H154.824L154.926 73.1062L155.027 70.42H149.278H143.53L143.631 73.1062ZM93.1482 73.9152C106.029 76.2675 110.93 92.1834 101.588 101.324C96.7066 106.1 89.5385 107.322 83.3845 104.427L81.3644 103.477L78.5033 104.173C76.9297 104.557 75.573 104.8 75.4888 104.715C75.4045 104.63 75.6579 103.354 76.0517 101.879L76.7681 99.1982L75.6898 96.8535C74.235 93.6894 73.6828 90.2251 74.182 87.3913C75.3127 80.9737 80.3172 75.6066 86.5859 74.0891C89.1229 73.4753 90.535 73.4379 93.1482 73.9152ZM70.4215 76.7011C70.4215 77.316 70.5071 77.3659 70.9414 77.0054C71.2274 76.768 71.4613 76.437 71.4613 76.27C71.4613 76.1025 71.2274 75.9656 70.9414 75.9656C70.6426 75.9656 70.4215 76.2783 70.4215 76.7011ZM81.7328 81.8665C79.3124 84.7426 80.3488 88.4744 84.9391 93.4124C89.0664 97.852 95.2571 100.019 98.1867 98.0493C99.3119 97.293 100.321 95.3198 100.005 94.4956C99.9271 94.2928 98.8172 93.6114 97.5386 92.9809L95.2137 91.8347L94.133 93.0849C93.5382 93.7729 92.7479 94.3354 92.3766 94.3354C91.4054 94.3354 88.8282 92.6045 87.3482 90.9582C85.311 88.6924 85.2306 88.3961 86.2629 86.9456L87.1631 85.6805L86.1357 83.3361C85.1679 81.1276 85.0369 80.9851 83.8767 80.8867C82.8562 80.7997 82.4895 80.9671 81.7328 81.8665ZM121.029 90.0029V92.6024H123.802H126.575V90.0029V87.4034H123.802H121.029V90.0029ZM166.436 90.0029V92.6024H163.49H160.544V90.0029V87.4034H163.49H166.436V90.0029ZM8.26031 104.271C8.1331 104.398 8.02912 105.646 8.02912 107.044V109.586H10.9754H13.9217V106.813V104.04H11.2066C9.71302 104.04 8.38718 104.144 8.26031 104.271ZM53.4369 112.532V121.024H44.9446H36.4523V115.305V109.586H39.2253H41.9983V106.813V104.04H47.7176H53.4369V112.532ZM41.9983 112.345V115.131H44.9591H47.92L47.8188 112.445L47.7176 109.759L44.8579 109.659L41.9983 109.558V112.345ZM166.364 112.445L166.465 115.131H163.505H160.544V112.345V109.558L163.403 109.659L166.263 109.759L166.364 112.445ZM30.9063 118.078V121.024H27.96H25.0137V118.078V115.131H27.96H30.9063V118.078ZM98.498 123.796V126.569H101.271H104.044V129.357V132.144L101.358 132.043L98.6713 131.942L98.5705 129.269L98.4692 126.597L95.6242 126.496L92.7787 126.396L92.6744 124.179C92.6168 122.96 92.6508 121.752 92.7499 121.493C92.881 121.152 93.6914 121.024 95.7143 121.024H98.498V123.796ZM121.029 129.342V132.115H118.256H115.483V129.573C115.483 128.175 115.587 126.927 115.714 126.8C115.841 126.673 117.088 126.569 118.487 126.569H121.029V129.342ZM143.559 135.061V143.553H135.067H126.575V135.061V126.569H135.067H143.559V135.061ZM8.113 151.958L8.20243 171.801L28.0467 171.89L47.8909 171.979V152.047V132.115H27.9572H8.02357L8.113 151.958ZM132.467 135.061V138.007H135.24H138.013V135.061V132.115H135.24H132.467V135.061ZM41.9983 152.048V166.09L28.0467 165.999L14.095 165.908L14.0046 151.958L13.9138 138.007H27.9562H41.9983V152.048ZM109.59 140.78V143.553H112.536H115.483V146.325V149.098H121.029H126.575V154.817V160.536H129.521H132.467V163.309V166.082H129.521H126.575V163.309V160.536H121.029H115.483V163.323V166.11L112.623 166.009L109.763 165.908L109.662 163.236L109.561 160.565L106.889 160.464L104.217 160.363L104.116 157.691L104.015 155.019L101.343 154.918L98.6713 154.817L98.5708 151.958L98.4699 149.098H101.257H104.044V143.784C104.044 140.861 104.148 138.365 104.275 138.238C104.402 138.111 105.65 138.007 107.048 138.007H109.59V140.78ZM19.4677 152.044V160.536H27.96H36.4523V152.044V143.553H27.96H19.4677V152.044Z" fill="#EFE3CD"/>
</svg>
