<svg width="180" height="180" viewBox="0 0 180 180" fill="none" xmlns="http://www.w3.org/2000/svg">
<rect x="0.689401" y="0.69233" width="178.621" height="178.621" fill="#2C2C2C"/>
<rect x="0.689401" y="0.69233" width="178.621" height="178.621" stroke="#EFE3CD" stroke-width="1.38466"/>
<path fill-rule="evenodd" clip-rule="evenodd" d="M5.26953 18.4526V31.6329H18.4499H31.6302V18.4526V5.27222H18.4499H5.26953V18.4526ZM46.6935 7.15512C46.6935 8.99585 46.5677 9.03803 41.0448 9.03803C35.5218 9.03803 35.396 9.08021 35.396 10.9209C35.396 12.7617 35.5218 12.8038 41.0448 12.8038C46.5677 12.8038 46.6935 12.846 46.6935 14.6867C46.6935 16.5275 46.5677 16.5697 41.0448 16.5697C35.5218 16.5697 35.396 16.6118 35.396 18.4526C35.396 19.9589 35.7726 20.3355 37.2789 20.3355C38.7853 20.3355 39.1618 20.712 39.1618 22.2184C39.1618 23.7247 38.7853 24.1013 37.2789 24.1013C35.5218 24.1013 35.396 24.3521 35.396 27.8671C35.396 31.3821 35.5218 31.6329 37.2789 31.6329C38.7853 31.6329 39.1618 32.0095 39.1618 33.5158C39.1618 35.3565 39.0361 35.3987 33.5131 35.3987C27.9902 35.3987 27.8644 35.4409 27.8644 37.2816C27.8644 39.0388 28.1152 39.1645 31.6302 39.1645C35.1452 39.1645 35.396 39.2903 35.396 41.0474C35.396 42.8046 35.6468 42.9303 39.1618 42.9303H42.9277V46.6962V50.462H35.396H27.8644V52.3449C27.8644 53.8512 27.4878 54.2278 25.9815 54.2278C24.4752 54.2278 24.0986 54.6044 24.0986 56.1107C24.0986 57.8678 23.8478 57.9936 20.3328 57.9936C16.8178 57.9936 16.567 57.8678 16.567 56.1107C16.567 54.6044 16.9436 54.2278 18.4499 54.2278C19.9562 54.2278 20.3328 53.8512 20.3328 52.3449C20.3328 50.5877 20.082 50.462 16.567 50.462H12.8012V54.2278C12.8012 57.7428 12.9269 57.9936 14.6841 57.9936C16.1904 57.9936 16.567 58.3702 16.567 59.8765C16.567 61.6336 16.8178 61.7594 20.3328 61.7594C23.8478 61.7594 24.0986 61.6336 24.0986 59.8765C24.0986 58.3702 24.4752 57.9936 25.9815 57.9936C27.4878 57.9936 27.8644 58.3702 27.8644 59.8765C27.8644 61.3828 28.241 61.7594 29.7473 61.7594C31.2536 61.7594 31.6302 62.136 31.6302 63.6423C31.6302 65.3994 31.3794 65.5252 27.8644 65.5252C24.3494 65.5252 24.0986 65.651 24.0986 67.4081C24.0986 69.2489 24.2244 69.291 29.7473 69.291C35.2703 69.291 35.396 69.3332 35.396 71.1739C35.396 73.0147 35.2703 73.0568 29.7473 73.0568H24.0986V76.8227C24.0986 80.3377 23.9728 80.5885 22.2157 80.5885C20.4586 80.5885 20.3328 80.8393 20.3328 84.3543C20.3328 87.8693 20.207 88.1201 18.4499 88.1201C16.6927 88.1201 16.567 88.3709 16.567 91.8859C16.567 95.4009 16.4412 95.6517 14.6841 95.6517C13.1777 95.6517 12.8012 95.2751 12.8012 93.7688C12.8012 92.2625 12.4246 91.8859 10.9183 91.8859C9.41193 91.8859 9.03534 92.2625 9.03534 93.7688C9.03534 95.2751 8.65876 95.6517 7.15244 95.6517C5.64611 95.6517 5.26953 96.0283 5.26953 97.5346V99.4175H20.3328H35.396V101.3C35.396 103.058 35.6468 103.183 39.1618 103.183C42.6769 103.183 42.9277 103.309 42.9277 105.066C42.9277 106.823 42.6769 106.949 39.1618 106.949H35.396V110.715C35.396 114.23 35.2703 114.481 33.5131 114.481C32.0068 114.481 31.6302 114.104 31.6302 112.598C31.6302 110.841 31.3794 110.715 27.8644 110.715C24.3494 110.715 24.0986 110.589 24.0986 108.832C24.0986 107.075 24.3494 106.949 27.8644 106.949C31.3794 106.949 31.6302 106.823 31.6302 105.066V103.183H22.2157H12.8012V105.066C12.8012 106.823 12.5504 106.949 9.03534 106.949H5.26953V112.598C5.26953 118.121 5.31171 118.247 7.15244 118.247C8.90957 118.247 9.03534 117.996 9.03534 114.481C9.03534 110.966 9.16112 110.715 10.9183 110.715C12.4246 110.715 12.8012 110.338 12.8012 108.832C12.8012 107.075 13.052 106.949 16.567 106.949C20.082 106.949 20.3328 107.075 20.3328 108.832C20.3328 110.338 19.9562 110.715 18.4499 110.715C16.6927 110.715 16.567 110.966 16.567 114.481C16.567 117.996 16.4412 118.247 14.6841 118.247C13.1777 118.247 12.8012 118.623 12.8012 120.13C12.8012 121.887 13.052 122.012 16.567 122.012C20.082 122.012 20.3328 122.138 20.3328 123.895C20.3328 125.402 20.7094 125.778 22.2157 125.778C23.722 125.778 24.0986 125.402 24.0986 123.895C24.0986 122.138 24.3494 122.012 27.8644 122.012C31.3794 122.012 31.6302 121.887 31.6302 120.13C31.6302 118.623 32.0068 118.247 33.5131 118.247C35.0195 118.247 35.396 118.623 35.396 120.13C35.396 121.636 35.7726 122.012 37.2789 122.012C38.7853 122.012 39.1618 121.636 39.1618 120.13C39.1618 118.623 38.7853 118.247 37.2789 118.247C35.7726 118.247 35.396 117.87 35.396 116.364C35.396 114.523 35.5218 114.481 41.0448 114.481C46.5677 114.481 46.6935 114.523 46.6935 116.364C46.6935 118.204 46.8193 118.247 52.3422 118.247C57.8651 118.247 57.9909 118.204 57.9909 116.364C57.9909 114.857 57.6143 114.481 56.108 114.481C54.3509 114.481 54.2251 114.23 54.2251 110.715C54.2251 107.2 54.3509 106.949 56.108 106.949C57.6143 106.949 57.9909 107.326 57.9909 108.832C57.9909 110.338 58.3675 110.715 59.8738 110.715C61.3801 110.715 61.7567 110.338 61.7567 108.832C61.7567 107.326 62.1333 106.949 63.6396 106.949C65.146 106.949 65.5225 107.326 65.5225 108.832C65.5225 110.338 65.8991 110.715 67.4054 110.715C69.1626 110.715 69.2883 110.966 69.2883 114.481V118.247H65.5225H61.7567V127.661V137.076H59.8738C58.1167 137.076 57.9909 136.825 57.9909 133.31C57.9909 129.795 57.8651 129.544 56.108 129.544C54.6017 129.544 54.2251 129.167 54.2251 127.661C54.2251 126.155 54.6017 125.778 56.108 125.778C57.6143 125.778 57.9909 125.402 57.9909 123.895C57.9909 122.138 57.7401 122.012 54.2251 122.012H50.4593V125.778C50.4593 129.293 50.3335 129.544 48.5764 129.544C47.0701 129.544 46.6935 129.167 46.6935 127.661C46.6935 126.155 46.3169 125.778 44.8106 125.778H42.9277V135.193V144.607H41.0448C39.5384 144.607 39.1618 144.231 39.1618 142.724C39.1618 141.218 38.7853 140.841 37.2789 140.841C35.4382 140.841 35.396 140.967 35.396 146.49V152.139H39.1618C42.6769 152.139 42.9277 152.265 42.9277 154.022C42.9277 155.528 43.3042 155.905 44.8106 155.905C46.3169 155.905 46.6935 156.281 46.6935 157.788C46.6935 159.545 46.4427 159.671 42.9277 159.671C39.4127 159.671 39.1618 159.545 39.1618 157.788C39.1618 156.281 38.7853 155.905 37.2789 155.905H35.396V165.319V174.734H37.2789C38.7853 174.734 39.1618 174.357 39.1618 172.851C39.1618 171.094 39.4127 170.968 42.9277 170.968C46.4427 170.968 46.6935 171.094 46.6935 172.851C46.6935 174.608 46.9443 174.734 50.4593 174.734H54.2251V170.968C54.2251 167.453 54.3509 167.202 56.108 167.202C57.8651 167.202 57.9909 167.453 57.9909 170.968C57.9909 174.483 58.1167 174.734 59.8738 174.734C61.6309 174.734 61.7567 174.483 61.7567 170.968V167.202H65.5225C69.0375 167.202 69.2883 167.328 69.2883 169.085C69.2883 170.591 69.6649 170.968 71.1713 170.968C72.6776 170.968 73.0542 171.345 73.0542 172.851C73.0542 174.357 73.4307 174.734 74.9371 174.734C76.4434 174.734 76.82 174.357 76.82 172.851C76.82 171.345 76.4434 170.968 74.9371 170.968C73.4307 170.968 73.0542 170.591 73.0542 169.085C73.0542 167.328 73.305 167.202 76.82 167.202C80.335 167.202 80.5858 167.076 80.5858 165.319C80.5858 163.562 80.8366 163.436 84.3516 163.436C87.8666 163.436 88.1174 163.562 88.1174 165.319C88.1174 166.826 88.494 167.202 90.0003 167.202C91.5066 167.202 91.8832 167.579 91.8832 169.085C91.8832 170.591 91.5066 170.968 90.0003 170.968C88.494 170.968 88.1174 171.345 88.1174 172.851C88.1174 174.608 88.3682 174.734 91.8832 174.734H95.649V170.968C95.649 167.453 95.7748 167.202 97.5319 167.202C99.0383 167.202 99.4148 167.579 99.4148 169.085C99.4148 170.591 99.7914 170.968 101.298 170.968C102.804 170.968 103.181 171.345 103.181 172.851C103.181 174.357 103.557 174.734 105.064 174.734C106.57 174.734 106.946 174.357 106.946 172.851C106.946 171.345 106.57 170.968 105.064 170.968C103.306 170.968 103.181 170.717 103.181 167.202V163.436H99.4148C95.8998 163.436 95.649 163.311 95.649 161.553C95.649 159.713 95.7748 159.671 101.298 159.671C106.821 159.671 106.946 159.713 106.946 161.553C106.946 163.311 107.197 163.436 110.712 163.436C114.227 163.436 114.478 163.562 114.478 165.319C114.478 166.826 114.855 167.202 116.361 167.202C117.867 167.202 118.244 167.579 118.244 169.085C118.244 170.591 118.62 170.968 120.127 170.968C121.633 170.968 122.01 171.345 122.01 172.851C122.01 174.357 122.386 174.734 123.893 174.734C125.733 174.734 125.776 174.608 125.776 169.085V163.436H129.541C133.056 163.436 133.307 163.562 133.307 165.319C133.307 166.826 132.931 167.202 131.424 167.202C129.667 167.202 129.541 167.453 129.541 170.968V174.734H142.722H155.902V172.851C155.902 171.345 156.279 170.968 157.785 170.968C159.291 170.968 159.668 171.345 159.668 172.851C159.668 174.692 159.794 174.734 165.317 174.734C170.84 174.734 170.965 174.692 170.965 172.851C170.965 171.345 171.342 170.968 172.848 170.968C174.355 170.968 174.731 170.591 174.731 169.085C174.731 167.244 174.605 167.202 169.082 167.202C163.559 167.202 163.434 167.244 163.434 169.085C163.434 170.591 163.057 170.968 161.551 170.968C159.794 170.968 159.668 170.717 159.668 167.202V163.436H165.317C170.84 163.436 170.965 163.394 170.965 161.553C170.965 159.713 170.84 159.671 165.317 159.671H159.668V155.905C159.668 152.39 159.794 152.139 161.551 152.139C163.057 152.139 163.434 151.762 163.434 150.256C163.434 148.75 163.81 148.373 165.317 148.373C167.074 148.373 167.199 148.122 167.199 144.607C167.199 141.092 167.074 140.841 165.317 140.841C163.81 140.841 163.434 140.465 163.434 138.959C163.434 137.452 163.057 137.076 161.551 137.076C160.044 137.076 159.668 136.699 159.668 135.193C159.668 133.436 159.919 133.31 163.434 133.31C166.949 133.31 167.199 133.436 167.199 135.193C167.199 136.699 167.576 137.076 169.082 137.076C170.923 137.076 170.965 137.201 170.965 142.724C170.965 148.247 171.007 148.373 172.848 148.373C174.689 148.373 174.731 148.247 174.731 142.724C174.731 137.201 174.689 137.076 172.848 137.076C171.342 137.076 170.965 136.699 170.965 135.193C170.965 133.686 170.589 133.31 169.082 133.31C167.576 133.31 167.199 132.933 167.199 131.427C167.199 129.921 166.823 129.544 165.317 129.544C163.81 129.544 163.434 129.167 163.434 127.661C163.434 125.82 163.559 125.778 169.082 125.778C174.605 125.778 174.731 125.736 174.731 123.895C174.731 122.055 174.605 122.012 169.082 122.012C163.559 122.012 163.434 121.97 163.434 120.13C163.434 118.623 163.81 118.247 165.317 118.247C167.157 118.247 167.199 118.121 167.199 112.598V106.949H170.965C174.48 106.949 174.731 106.823 174.731 105.066C174.731 103.309 174.48 103.183 170.965 103.183C167.45 103.183 167.199 103.058 167.199 101.3C167.199 99.7941 167.576 99.4175 169.082 99.4175C170.589 99.4175 170.965 99.041 170.965 97.5346C170.965 96.0283 171.342 95.6517 172.848 95.6517C174.355 95.6517 174.731 95.2751 174.731 93.7688C174.731 92.2625 174.355 91.8859 172.848 91.8859C171.342 91.8859 170.965 91.5093 170.965 90.003C170.965 88.4967 170.589 88.1201 169.082 88.1201C167.576 88.1201 167.199 87.7435 167.199 86.2372C167.199 84.7309 167.576 84.3543 169.082 84.3543C170.589 84.3543 170.965 83.9777 170.965 82.4714C170.965 80.9651 171.342 80.5885 172.848 80.5885C174.605 80.5885 174.731 80.3377 174.731 76.8227C174.731 73.3076 174.605 73.0568 172.848 73.0568C171.091 73.0568 170.965 73.3076 170.965 76.8227C170.965 80.3377 170.84 80.5885 169.082 80.5885C167.576 80.5885 167.199 80.2119 167.199 78.7056C167.199 77.1992 166.823 76.8227 165.317 76.8227C163.81 76.8227 163.434 76.4461 163.434 74.9398C163.434 73.4334 163.81 73.0568 165.317 73.0568C166.823 73.0568 167.199 72.6803 167.199 71.1739C167.199 69.6676 167.576 69.291 169.082 69.291C170.589 69.291 170.965 68.9145 170.965 67.4081C170.965 65.9018 171.342 65.5252 172.848 65.5252C174.355 65.5252 174.731 65.1486 174.731 63.6423C174.731 62.136 174.355 61.7594 172.848 61.7594C171.007 61.7594 170.965 61.6336 170.965 56.1107C170.965 50.5877 171.007 50.462 172.848 50.462C174.355 50.462 174.731 50.0854 174.731 48.5791C174.731 47.0727 174.355 46.6962 172.848 46.6962C171.342 46.6962 170.965 46.3196 170.965 44.8133C170.965 43.3069 170.589 42.9303 169.082 42.9303C167.576 42.9303 167.199 42.5538 167.199 41.0474C167.199 39.5411 167.576 39.1645 169.082 39.1645C170.589 39.1645 170.965 38.788 170.965 37.2816C170.965 35.7753 170.589 35.3987 169.082 35.3987C167.576 35.3987 167.199 35.7753 167.199 37.2816C167.199 38.788 166.823 39.1645 165.317 39.1645C163.81 39.1645 163.434 38.788 163.434 37.2816C163.434 35.7753 163.057 35.3987 161.551 35.3987C160.044 35.3987 159.668 35.7753 159.668 37.2816C159.668 38.788 159.291 39.1645 157.785 39.1645C156.279 39.1645 155.902 38.788 155.902 37.2816C155.902 35.7753 155.525 35.3987 154.019 35.3987C152.513 35.3987 152.136 35.7753 152.136 37.2816C152.136 38.788 152.513 39.1645 154.019 39.1645C155.525 39.1645 155.902 39.5411 155.902 41.0474C155.902 42.5538 156.279 42.9303 157.785 42.9303C159.291 42.9303 159.668 42.5538 159.668 41.0474C159.668 39.5411 160.044 39.1645 161.551 39.1645C163.057 39.1645 163.434 39.5411 163.434 41.0474C163.434 42.5538 163.81 42.9303 165.317 42.9303C166.823 42.9303 167.199 43.3069 167.199 44.8133C167.199 46.5704 166.949 46.6962 163.434 46.6962H159.668V50.462V54.2278H155.902C152.387 54.2278 152.136 54.102 152.136 52.3449C152.136 50.5877 151.885 50.462 148.37 50.462C144.855 50.462 144.605 50.3362 144.605 48.5791C144.605 47.0727 144.228 46.6962 142.722 46.6962C141.215 46.6962 140.839 46.3196 140.839 44.8133C140.839 43.3069 141.215 42.9303 142.722 42.9303C144.228 42.9303 144.605 42.5538 144.605 41.0474C144.605 39.5411 144.981 39.1645 146.488 39.1645C147.994 39.1645 148.37 38.788 148.37 37.2816C148.37 35.7753 147.994 35.3987 146.488 35.3987C144.73 35.3987 144.605 35.1479 144.605 31.6329C144.605 28.1179 144.479 27.8671 142.722 27.8671C141.215 27.8671 140.839 28.2437 140.839 29.75C140.839 31.2563 140.462 31.6329 138.956 31.6329C137.45 31.6329 137.073 31.2563 137.073 29.75C137.073 28.2437 136.696 27.8671 135.19 27.8671C133.684 27.8671 133.307 28.2437 133.307 29.75C133.307 31.2563 133.684 31.6329 135.19 31.6329C136.696 31.6329 137.073 32.0095 137.073 33.5158C137.073 35.2729 136.822 35.3987 133.307 35.3987C129.792 35.3987 129.541 35.5245 129.541 37.2816C129.541 38.788 129.165 39.1645 127.658 39.1645C125.901 39.1645 125.776 38.9137 125.776 35.3987C125.776 31.8837 125.901 31.6329 127.658 31.6329C129.165 31.6329 129.541 31.2563 129.541 29.75C129.541 28.2437 129.165 27.8671 127.658 27.8671C126.152 27.8671 125.776 28.2437 125.776 29.75C125.776 31.2563 125.399 31.6329 123.893 31.6329C122.136 31.6329 122.01 31.3821 122.01 27.8671V24.1013H133.307H144.605V20.3355C144.605 16.8205 144.479 16.5697 142.722 16.5697C140.965 16.5697 140.839 16.3189 140.839 12.8038C140.839 9.28883 140.965 9.03803 142.722 9.03803C144.228 9.03803 144.605 8.66145 144.605 7.15512C144.605 5.6488 144.228 5.27222 142.722 5.27222C141.215 5.27222 140.839 5.6488 140.839 7.15512C140.839 8.66145 140.462 9.03803 138.956 9.03803C137.115 9.03803 137.073 9.16381 137.073 14.6867V20.3355H123.893H110.712V18.4526C110.712 16.9462 111.089 16.5697 112.595 16.5697C114.102 16.5697 114.478 16.1931 114.478 14.6867C114.478 13.1804 114.102 12.8038 112.595 12.8038C111.089 12.8038 110.712 12.4273 110.712 10.9209C110.712 9.16381 110.963 9.03803 114.478 9.03803C117.993 9.03803 118.244 8.91225 118.244 7.15512C118.244 5.39799 117.993 5.27222 114.478 5.27222C110.963 5.27222 110.712 5.39799 110.712 7.15512C110.712 8.66145 110.336 9.03803 108.829 9.03803C107.323 9.03803 106.946 8.66145 106.946 7.15512C106.946 5.6488 106.57 5.27222 105.064 5.27222C103.557 5.27222 103.181 5.6488 103.181 7.15512C103.181 8.66145 103.557 9.03803 105.064 9.03803C106.821 9.03803 106.946 9.28883 106.946 12.8038C106.946 16.3189 106.821 16.5697 105.064 16.5697C103.557 16.5697 103.181 16.1931 103.181 14.6867C103.181 13.1804 102.804 12.8038 101.298 12.8038C99.7914 12.8038 99.4148 12.4273 99.4148 10.9209V9.03803H90.0003H80.5858V7.15512C80.5858 5.31439 80.46 5.27222 74.9371 5.27222C69.4141 5.27222 69.2883 5.31439 69.2883 7.15512C69.2883 8.66145 69.6649 9.03803 71.1713 9.03803C72.6776 9.03803 73.0542 9.41461 73.0542 10.9209C73.0542 12.4273 73.4307 12.8038 74.9371 12.8038C76.4434 12.8038 76.82 12.4273 76.82 10.9209C76.82 9.41461 77.1966 9.03803 78.7029 9.03803C80.2092 9.03803 80.5858 9.41461 80.5858 10.9209C80.5858 12.4273 80.9624 12.8038 82.4687 12.8038C83.975 12.8038 84.3516 13.1804 84.3516 14.6867C84.3516 16.1931 84.7282 16.5697 86.2345 16.5697C87.7408 16.5697 88.1174 16.9462 88.1174 18.4526C88.1174 20.2933 87.9916 20.3355 82.4687 20.3355C76.9458 20.3355 76.82 20.2933 76.82 18.4526C76.82 16.6118 76.6942 16.5697 71.1713 16.5697C65.6483 16.5697 65.5225 16.5275 65.5225 14.6867C65.5225 12.9296 65.2717 12.8038 61.7567 12.8038H57.9909V9.03803V5.27222H52.3422C46.8193 5.27222 46.6935 5.31439 46.6935 7.15512ZM61.7567 7.15512C61.7567 8.66145 62.1333 9.03803 63.6396 9.03803C65.146 9.03803 65.5225 8.66145 65.5225 7.15512C65.5225 5.6488 65.146 5.27222 63.6396 5.27222C62.1333 5.27222 61.7567 5.6488 61.7567 7.15512ZM125.776 7.15512C125.776 8.66145 125.399 9.03803 123.893 9.03803C122.386 9.03803 122.01 9.41461 122.01 10.9209C122.01 12.4273 121.633 12.8038 120.127 12.8038C118.62 12.8038 118.244 13.1804 118.244 14.6867C118.244 16.5275 118.37 16.5697 123.893 16.5697C129.416 16.5697 129.541 16.5275 129.541 14.6867C129.541 13.1804 129.918 12.8038 131.424 12.8038C132.931 12.8038 133.307 12.4273 133.307 10.9209C133.307 9.41461 132.931 9.03803 131.424 9.03803C129.918 9.03803 129.541 8.66145 129.541 7.15512C129.541 5.6488 129.165 5.27222 127.658 5.27222C126.152 5.27222 125.776 5.6488 125.776 7.15512ZM148.37 18.4526V31.6329H161.551H174.731V18.4526V5.27222H161.551H148.37V18.4526ZM27.8644 18.4526V27.8671H18.4499H9.03534V18.4526V9.03803H18.4499H27.8644V18.4526ZM129.541 10.9209C129.541 12.4273 129.165 12.8038 127.658 12.8038C126.152 12.8038 125.776 12.4273 125.776 10.9209C125.776 9.41461 126.152 9.03803 127.658 9.03803C129.165 9.03803 129.541 9.41461 129.541 10.9209ZM170.965 18.4526V27.8671H161.551H152.136V18.4526V9.03803H161.551H170.965V18.4526ZM12.8012 18.4526V24.1013H18.4499H24.0986V18.4526V12.8038H18.4499H12.8012V18.4526ZM57.9909 14.6867C57.9909 16.1931 57.6143 16.5697 56.108 16.5697C54.3509 16.5697 54.2251 16.8205 54.2251 20.3355C54.2251 23.8505 54.0993 24.1013 52.3422 24.1013C50.5851 24.1013 50.4593 24.3521 50.4593 27.8671C50.4593 31.3821 50.5851 31.6329 52.3422 31.6329C53.8485 31.6329 54.2251 31.2563 54.2251 29.75C54.2251 28.2437 54.6017 27.8671 56.108 27.8671C57.8651 27.8671 57.9909 28.1179 57.9909 31.6329C57.9909 35.1479 57.8651 35.3987 56.108 35.3987C54.6017 35.3987 54.2251 35.7753 54.2251 37.2816C54.2251 39.1224 54.3509 39.1645 59.8738 39.1645C65.3968 39.1645 65.5225 39.1224 65.5225 37.2816C65.5225 35.7753 65.146 35.3987 63.6396 35.3987C61.8825 35.3987 61.7567 35.1479 61.7567 31.6329C61.7567 28.1179 61.8825 27.8671 63.6396 27.8671C65.146 27.8671 65.5225 28.2437 65.5225 29.75C65.5225 31.2563 65.8991 31.6329 67.4054 31.6329C69.1626 31.6329 69.2883 31.3821 69.2883 27.8671V24.1013H65.5225H61.7567V20.3355C61.7567 16.8205 61.8825 16.5697 63.6396 16.5697C65.146 16.5697 65.5225 16.9462 65.5225 18.4526C65.5225 19.9589 65.8991 20.3355 67.4054 20.3355C68.9118 20.3355 69.2883 20.712 69.2883 22.2184C69.2883 23.7247 69.6649 24.1013 71.1713 24.1013C72.9284 24.1013 73.0542 24.3521 73.0542 27.8671C73.0542 31.3821 73.1799 31.6329 74.9371 31.6329C76.4434 31.6329 76.82 31.2563 76.82 29.75C76.82 28.2437 77.1966 27.8671 78.7029 27.8671C80.46 27.8671 80.5858 28.1179 80.5858 31.6329V35.3987H76.82C73.305 35.3987 73.0542 35.5245 73.0542 37.2816C73.0542 38.788 73.4307 39.1645 74.9371 39.1645C76.4434 39.1645 76.82 39.5411 76.82 41.0474C76.82 42.5538 77.1966 42.9303 78.7029 42.9303C80.2092 42.9303 80.5858 42.5538 80.5858 41.0474C80.5858 39.5411 80.9624 39.1645 82.4687 39.1645C84.2258 39.1645 84.3516 39.4153 84.3516 42.9303V46.6962H88.1174C91.6324 46.6962 91.8832 46.5704 91.8832 44.8133C91.8832 43.3069 91.5066 42.9303 90.0003 42.9303C88.494 42.9303 88.1174 42.5538 88.1174 41.0474C88.1174 39.2903 88.3682 39.1645 91.8832 39.1645H95.649V42.9303C95.649 46.4454 95.7748 46.6962 97.5319 46.6962C99.2891 46.6962 99.4148 46.4454 99.4148 42.9303V39.1645H103.181C106.696 39.1645 106.946 39.0388 106.946 37.2816C106.946 35.5245 106.696 35.3987 103.181 35.3987H99.4148V27.8671V20.3355H103.181C106.696 20.3355 106.946 20.4612 106.946 22.2184C106.946 23.9755 107.197 24.1013 110.712 24.1013C114.227 24.1013 114.478 24.2271 114.478 25.9842C114.478 27.4905 114.855 27.8671 116.361 27.8671C117.867 27.8671 118.244 28.2437 118.244 29.75C118.244 31.2563 117.867 31.6329 116.361 31.6329C114.855 31.6329 114.478 32.0095 114.478 33.5158C114.478 35.2729 114.729 35.3987 118.244 35.3987C121.759 35.3987 122.01 35.5245 122.01 37.2816C122.01 38.788 122.386 39.1645 123.893 39.1645C125.399 39.1645 125.776 39.5411 125.776 41.0474C125.776 42.8046 126.026 42.9303 129.541 42.9303C133.056 42.9303 133.307 42.8046 133.307 41.0474C133.307 39.2903 133.558 39.1645 137.073 39.1645C140.588 39.1645 140.839 39.0388 140.839 37.2816C140.839 35.7753 141.215 35.3987 142.722 35.3987C144.228 35.3987 144.605 35.7753 144.605 37.2816C144.605 38.788 144.228 39.1645 142.722 39.1645C141.215 39.1645 140.839 39.5411 140.839 41.0474C140.839 42.5538 140.462 42.9303 138.956 42.9303C137.199 42.9303 137.073 43.1811 137.073 46.6962V50.462H140.839C144.354 50.462 144.605 50.5877 144.605 52.3449C144.605 54.102 144.855 54.2278 148.37 54.2278C151.885 54.2278 152.136 54.3536 152.136 56.1107C152.136 57.617 151.76 57.9936 150.253 57.9936C148.747 57.9936 148.37 58.3702 148.37 59.8765C148.37 61.6336 148.621 61.7594 152.136 61.7594C155.651 61.7594 155.902 61.6336 155.902 59.8765C155.902 58.3702 156.279 57.9936 157.785 57.9936C159.542 57.9936 159.668 58.2444 159.668 61.7594C159.668 65.2744 159.794 65.5252 161.551 65.5252C163.308 65.5252 163.434 65.776 163.434 69.291C163.434 72.806 163.308 73.0568 161.551 73.0568C160.044 73.0568 159.668 73.4334 159.668 74.9398C159.668 76.4461 160.044 76.8227 161.551 76.8227C163.057 76.8227 163.434 77.1992 163.434 78.7056C163.434 80.2119 163.81 80.5885 165.317 80.5885C166.823 80.5885 167.199 80.9651 167.199 82.4714C167.199 84.2285 166.949 84.3543 163.434 84.3543H159.668V80.5885C159.668 77.0735 159.542 76.8227 157.785 76.8227C156.279 76.8227 155.902 77.1992 155.902 78.7056C155.902 80.5463 155.776 80.5885 150.253 80.5885C144.73 80.5885 144.605 80.5463 144.605 78.7056C144.605 77.1992 144.228 76.8227 142.722 76.8227C141.215 76.8227 140.839 76.4461 140.839 74.9398C140.839 73.4334 141.215 73.0568 142.722 73.0568C144.479 73.0568 144.605 72.806 144.605 69.291C144.605 65.776 144.73 65.5252 146.488 65.5252C147.994 65.5252 148.37 65.1486 148.37 63.6423C148.37 61.8852 148.12 61.7594 144.605 61.7594C141.09 61.7594 140.839 61.6336 140.839 59.8765C140.839 58.3702 140.462 57.9936 138.956 57.9936C137.199 57.9936 137.073 58.2444 137.073 61.7594C137.073 65.2744 137.199 65.5252 138.956 65.5252C140.462 65.5252 140.839 65.9018 140.839 67.4081C140.839 68.9145 140.462 69.291 138.956 69.291C137.115 69.291 137.073 69.4168 137.073 74.9398C137.073 80.4627 137.031 80.5885 135.19 80.5885C133.349 80.5885 133.307 80.4627 133.307 74.9398V69.291H127.658H122.01V73.0568C122.01 76.5719 121.884 76.8227 120.127 76.8227C118.62 76.8227 118.244 77.1992 118.244 78.7056C118.244 80.2119 118.62 80.5885 120.127 80.5885C121.633 80.5885 122.01 80.9651 122.01 82.4714C122.01 83.9777 122.386 84.3543 123.893 84.3543C125.733 84.3543 125.776 84.2285 125.776 78.7056C125.776 73.1826 125.818 73.0568 127.658 73.0568C129.499 73.0568 129.541 73.1826 129.541 78.7056V84.3543H133.307H137.073V90.003C137.073 95.5259 137.115 95.6517 138.956 95.6517C140.462 95.6517 140.839 96.0283 140.839 97.5346C140.839 99.041 141.215 99.4175 142.722 99.4175C144.228 99.4175 144.605 99.7941 144.605 101.3C144.605 103.141 144.73 103.183 150.253 103.183C155.776 103.183 155.902 103.141 155.902 101.3C155.902 99.7941 156.279 99.4175 157.785 99.4175C159.542 99.4175 159.668 99.1667 159.668 95.6517C159.668 92.1367 159.794 91.8859 161.551 91.8859C163.057 91.8859 163.434 91.5093 163.434 90.003C163.434 88.4967 163.81 88.1201 165.317 88.1201C166.823 88.1201 167.199 88.4967 167.199 90.003C167.199 91.5093 167.576 91.8859 169.082 91.8859C170.589 91.8859 170.965 92.2625 170.965 93.7688C170.965 95.2751 170.589 95.6517 169.082 95.6517C167.576 95.6517 167.199 95.2751 167.199 93.7688C167.199 92.2625 166.823 91.8859 165.317 91.8859C163.476 91.8859 163.434 92.0117 163.434 97.5346C163.434 103.058 163.476 103.183 165.317 103.183C166.823 103.183 167.199 103.56 167.199 105.066C167.199 106.573 166.823 106.949 165.317 106.949C163.559 106.949 163.434 107.2 163.434 110.715C163.434 114.23 163.308 114.481 161.551 114.481C160.044 114.481 159.668 114.104 159.668 112.598C159.668 111.092 159.291 110.715 157.785 110.715C156.028 110.715 155.902 110.966 155.902 114.481C155.902 117.996 155.776 118.247 154.019 118.247C152.513 118.247 152.136 117.87 152.136 116.364C152.136 114.857 151.76 114.481 150.253 114.481C148.747 114.481 148.37 114.857 148.37 116.364C148.37 118.121 148.12 118.247 144.605 118.247C141.09 118.247 140.839 118.372 140.839 120.13C140.839 121.887 141.09 122.012 144.605 122.012C148.12 122.012 148.37 122.138 148.37 123.895C148.37 125.652 148.621 125.778 152.136 125.778C155.651 125.778 155.902 125.652 155.902 123.895C155.902 122.138 156.153 122.012 159.668 122.012C163.183 122.012 163.434 122.138 163.434 123.895C163.434 125.402 163.057 125.778 161.551 125.778C160.044 125.778 159.668 126.155 159.668 127.661C159.668 129.502 159.542 129.544 154.019 129.544H148.37V133.31V137.076H154.019C159.542 137.076 159.668 137.118 159.668 138.959C159.668 140.799 159.542 140.841 154.019 140.841C148.496 140.841 148.37 140.799 148.37 138.959C148.37 137.452 147.994 137.076 146.488 137.076C144.981 137.076 144.605 136.699 144.605 135.193C144.605 133.686 144.228 133.31 142.722 133.31C140.965 133.31 140.839 133.561 140.839 137.076V140.841H137.073C133.558 140.841 133.307 140.967 133.307 142.724C133.307 144.482 133.558 144.607 137.073 144.607C140.588 144.607 140.839 144.733 140.839 146.49C140.839 148.247 140.588 148.373 137.073 148.373C133.558 148.373 133.307 148.499 133.307 150.256C133.307 151.762 133.684 152.139 135.19 152.139C136.696 152.139 137.073 152.516 137.073 154.022C137.073 155.528 137.45 155.905 138.956 155.905C140.462 155.905 140.839 156.281 140.839 157.788C140.839 159.294 141.215 159.671 142.722 159.671C144.562 159.671 144.605 159.796 144.605 165.319V170.968H138.956C133.433 170.968 133.307 170.926 133.307 169.085C133.307 167.328 133.558 167.202 137.073 167.202C140.588 167.202 140.839 167.076 140.839 165.319C140.839 163.562 140.588 163.436 137.073 163.436C133.558 163.436 133.307 163.311 133.307 161.553C133.307 160.047 133.684 159.671 135.19 159.671C136.696 159.671 137.073 159.294 137.073 157.788C137.073 156.031 136.822 155.905 133.307 155.905C129.792 155.905 129.541 155.779 129.541 154.022C129.541 152.516 129.165 152.139 127.658 152.139C126.152 152.139 125.776 151.762 125.776 150.256C125.776 148.75 125.399 148.373 123.893 148.373C122.386 148.373 122.01 148.75 122.01 150.256C122.01 151.762 121.633 152.139 120.127 152.139C118.62 152.139 118.244 151.762 118.244 150.256C118.244 148.75 117.867 148.373 116.361 148.373C114.855 148.373 114.478 148.75 114.478 150.256C114.478 151.762 114.102 152.139 112.595 152.139C111.089 152.139 110.712 151.762 110.712 150.256C110.712 148.75 110.336 148.373 108.829 148.373C107.072 148.373 106.946 148.624 106.946 152.139C106.946 155.654 107.072 155.905 108.829 155.905C110.336 155.905 110.712 156.281 110.712 157.788C110.712 159.294 110.336 159.671 108.829 159.671C107.323 159.671 106.946 159.294 106.946 157.788C106.946 156.031 106.696 155.905 103.181 155.905H99.4148V150.256V144.607H105.064C110.587 144.607 110.712 144.565 110.712 142.724C110.712 141.218 111.089 140.841 112.595 140.841C114.102 140.841 114.478 141.218 114.478 142.724C114.478 144.231 114.855 144.607 116.361 144.607C117.867 144.607 118.244 144.231 118.244 142.724C118.244 140.967 118.495 140.841 122.01 140.841H125.776V137.076V133.31H122.01C118.495 133.31 118.244 133.436 118.244 135.193C118.244 137.033 118.118 137.076 112.595 137.076C107.072 137.076 106.946 137.118 106.946 138.959V140.841H99.4148H91.8832V138.959C91.8832 137.201 91.6324 137.076 88.1174 137.076H84.3516V133.31C84.3516 129.795 84.2258 129.544 82.4687 129.544C80.7116 129.544 80.5858 129.795 80.5858 133.31C80.5858 136.825 80.46 137.076 78.7029 137.076C76.8622 137.076 76.82 136.95 76.82 131.427V125.778H73.0542H69.2883V131.427C69.2883 136.95 69.3305 137.076 71.1713 137.076C72.9284 137.076 73.0542 137.326 73.0542 140.841V144.607H69.2883C65.7733 144.607 65.5225 144.733 65.5225 146.49C65.5225 147.997 65.146 148.373 63.6396 148.373C62.1333 148.373 61.7567 147.997 61.7567 146.49C61.7567 144.984 61.3801 144.607 59.8738 144.607C58.3675 144.607 57.9909 144.984 57.9909 146.49C57.9909 147.997 57.6143 148.373 56.108 148.373C54.6017 148.373 54.2251 148.75 54.2251 150.256C54.2251 151.762 54.6017 152.139 56.108 152.139C57.6143 152.139 57.9909 152.516 57.9909 154.022C57.9909 155.528 57.6143 155.905 56.108 155.905C54.6017 155.905 54.2251 155.528 54.2251 154.022C54.2251 152.265 53.9743 152.139 50.4593 152.139C46.9443 152.139 46.6935 152.013 46.6935 150.256C46.6935 148.75 46.3169 148.373 44.8106 148.373C43.3042 148.373 42.9277 147.997 42.9277 146.49C42.9277 144.733 43.1785 144.607 46.6935 144.607C50.2085 144.607 50.4593 144.733 50.4593 146.49C50.4593 147.997 50.8359 148.373 52.3422 148.373C54.0993 148.373 54.2251 148.122 54.2251 144.607C54.2251 141.092 54.0993 140.841 52.3422 140.841C50.8359 140.841 50.4593 140.465 50.4593 138.959C50.4593 137.452 50.0827 137.076 48.5764 137.076C47.0701 137.076 46.6935 136.699 46.6935 135.193C46.6935 133.686 47.0701 133.31 48.5764 133.31C50.0827 133.31 50.4593 132.933 50.4593 131.427C50.4593 129.921 50.8359 129.544 52.3422 129.544C54.1829 129.544 54.2251 129.67 54.2251 135.193V140.841H57.9909C61.5059 140.841 61.7567 140.967 61.7567 142.724C61.7567 144.231 62.1333 144.607 63.6396 144.607H65.5225V133.31V122.012H71.1713C76.6942 122.012 76.82 122.055 76.82 123.895V125.778H88.1174H99.4148V120.13C99.4148 114.607 99.3727 114.481 97.5319 114.481C96.0256 114.481 95.649 114.857 95.649 116.364C95.649 117.87 95.2725 118.247 93.7661 118.247C92.2598 118.247 91.8832 118.623 91.8832 120.13C91.8832 121.97 91.7574 122.012 86.2345 122.012C80.7116 122.012 80.5858 121.97 80.5858 120.13C80.5858 118.623 80.9624 118.247 82.4687 118.247C84.2258 118.247 84.3516 117.996 84.3516 114.481C84.3516 110.966 84.2258 110.715 82.4687 110.715C80.9624 110.715 80.5858 111.092 80.5858 112.598C80.5858 114.104 80.2092 114.481 78.7029 114.481C77.1966 114.481 76.82 114.104 76.82 112.598C76.82 110.841 76.5692 110.715 73.0542 110.715H69.2883V105.066C69.2883 99.5433 69.2462 99.4175 67.4054 99.4175C65.8991 99.4175 65.5225 99.7941 65.5225 101.3C65.5225 102.807 65.146 103.183 63.6396 103.183C62.1333 103.183 61.7567 103.56 61.7567 105.066C61.7567 106.573 61.3801 106.949 59.8738 106.949C58.3675 106.949 57.9909 106.573 57.9909 105.066C57.9909 103.56 57.6143 103.183 56.108 103.183C54.6017 103.183 54.2251 102.807 54.2251 101.3C54.2251 99.4597 54.3509 99.4175 59.8738 99.4175H65.5225V95.6517C65.5225 92.1367 65.3968 91.8859 63.6396 91.8859C62.1333 91.8859 61.7567 91.5093 61.7567 90.003C61.7567 88.2459 61.5059 88.1201 57.9909 88.1201C54.4759 88.1201 54.2251 87.9943 54.2251 86.2372C54.2251 84.7309 54.6017 84.3543 56.108 84.3543C57.6143 84.3543 57.9909 83.9777 57.9909 82.4714C57.9909 80.9651 58.3675 80.5885 59.8738 80.5885C61.6309 80.5885 61.7567 80.8393 61.7567 84.3543C61.7567 87.8693 61.8825 88.1201 63.6396 88.1201C65.146 88.1201 65.5225 87.7435 65.5225 86.2372C65.5225 84.7309 65.8991 84.3543 67.4054 84.3543C68.9118 84.3543 69.2883 83.9777 69.2883 82.4714C69.2883 80.9651 68.9118 80.5885 67.4054 80.5885C65.8991 80.5885 65.5225 80.2119 65.5225 78.7056C65.5225 76.9484 65.2717 76.8227 61.7567 76.8227H57.9909V73.0568C57.9909 69.5418 57.8651 69.291 56.108 69.291C54.6017 69.291 54.2251 68.9145 54.2251 67.4081C54.2251 65.9018 53.8485 65.5252 52.3422 65.5252C50.5851 65.5252 50.4593 65.776 50.4593 69.291C50.4593 72.806 50.5851 73.0568 52.3422 73.0568C53.8485 73.0568 54.2251 73.4334 54.2251 74.9398C54.2251 76.4461 53.8485 76.8227 52.3422 76.8227C50.8359 76.8227 50.4593 76.4461 50.4593 74.9398C50.4593 73.1826 50.2085 73.0568 46.6935 73.0568C43.1785 73.0568 42.9277 73.1826 42.9277 74.9398C42.9277 76.4461 43.3042 76.8227 44.8106 76.8227C46.3169 76.8227 46.6935 77.1992 46.6935 78.7056C46.6935 80.2119 47.0701 80.5885 48.5764 80.5885C50.3335 80.5885 50.4593 80.8393 50.4593 84.3543V88.1201H46.6935H42.9277V91.8859C42.9277 95.4009 43.0534 95.6517 44.8106 95.6517C46.3169 95.6517 46.6935 95.2751 46.6935 93.7688C46.6935 91.9281 46.8193 91.8859 52.3422 91.8859C57.8651 91.8859 57.9909 91.9281 57.9909 93.7688C57.9909 95.6096 57.8651 95.6517 52.3422 95.6517C46.8193 95.6517 46.6935 95.6939 46.6935 97.5346C46.6935 99.041 47.0701 99.4175 48.5764 99.4175C50.0827 99.4175 50.4593 99.7941 50.4593 101.3C50.4593 103.058 50.2085 103.183 46.6935 103.183H42.9277V99.4175C42.9277 95.9025 42.8019 95.6517 41.0448 95.6517C39.2876 95.6517 39.1618 95.4009 39.1618 91.8859C39.1618 88.3709 39.2876 88.1201 41.0448 88.1201C42.5511 88.1201 42.9277 87.7435 42.9277 86.2372C42.9277 84.7309 42.5511 84.3543 41.0448 84.3543C39.5384 84.3543 39.1618 83.9777 39.1618 82.4714C39.1618 80.6307 39.0361 80.5885 33.5131 80.5885C27.9902 80.5885 27.8644 80.5463 27.8644 78.7056C27.8644 76.9484 28.1152 76.8227 31.6302 76.8227C35.1452 76.8227 35.396 76.6969 35.396 74.9398C35.396 73.1826 35.6468 73.0568 39.1618 73.0568H42.9277V69.291C42.9277 65.776 42.8019 65.5252 41.0448 65.5252C39.5384 65.5252 39.1618 65.9018 39.1618 67.4081C39.1618 68.9145 38.7853 69.291 37.2789 69.291C35.5218 69.291 35.396 69.0402 35.396 65.5252C35.396 62.0102 35.2703 61.7594 33.5131 61.7594C32.0068 61.7594 31.6302 61.3828 31.6302 59.8765C31.6302 58.3702 31.2536 57.9936 29.7473 57.9936C28.241 57.9936 27.8644 57.617 27.8644 56.1107C27.8644 54.3536 28.1152 54.2278 31.6302 54.2278H35.396V57.9936V61.7594H39.1618C42.6769 61.7594 42.9277 61.6336 42.9277 59.8765C42.9277 58.1194 43.1785 57.9936 46.6935 57.9936C50.2085 57.9936 50.4593 57.8678 50.4593 56.1107C50.4593 54.6044 50.0827 54.2278 48.5764 54.2278C47.0701 54.2278 46.6935 53.8512 46.6935 52.3449C46.6935 50.8386 47.0701 50.462 48.5764 50.462C50.0827 50.462 50.4593 50.0854 50.4593 48.5791C50.4593 47.0727 50.8359 46.6962 52.3422 46.6962C53.8485 46.6962 54.2251 47.0727 54.2251 48.5791C54.2251 50.3362 54.4759 50.462 57.9909 50.462C61.5059 50.462 61.7567 50.3362 61.7567 48.5791C61.7567 47.0727 61.3801 46.6962 59.8738 46.6962C58.3675 46.6962 57.9909 46.3196 57.9909 44.8133C57.9909 43.0561 57.7401 42.9303 54.2251 42.9303C50.7101 42.9303 50.4593 42.8046 50.4593 41.0474C50.4593 39.5411 50.0827 39.1645 48.5764 39.1645C47.0701 39.1645 46.6935 39.5411 46.6935 41.0474C46.6935 42.5538 46.3169 42.9303 44.8106 42.9303C43.3042 42.9303 42.9277 42.5538 42.9277 41.0474C42.9277 39.5411 43.3042 39.1645 44.8106 39.1645C46.6513 39.1645 46.6935 39.0388 46.6935 33.5158C46.6935 27.9929 46.6513 27.8671 44.8106 27.8671C43.3042 27.8671 42.9277 28.2437 42.9277 29.75C42.9277 31.2563 42.5511 31.6329 41.0448 31.6329C39.5384 31.6329 39.1618 31.2563 39.1618 29.75C39.1618 28.2437 39.5384 27.8671 41.0448 27.8671C42.5511 27.8671 42.9277 27.4905 42.9277 25.9842C42.9277 24.2271 43.1785 24.1013 46.6935 24.1013H50.4593V18.4526V12.8038H54.2251C57.7401 12.8038 57.9909 12.9296 57.9909 14.6867ZM91.8832 14.6867C91.8832 16.1931 92.2598 16.5697 93.7661 16.5697C95.2725 16.5697 95.649 16.1931 95.649 14.6867C95.649 13.1804 96.0256 12.8038 97.5319 12.8038C99.0383 12.8038 99.4148 13.1804 99.4148 14.6867C99.4148 16.1931 99.0383 16.5697 97.5319 16.5697C96.0256 16.5697 95.649 16.9462 95.649 18.4526C95.649 19.9589 95.2725 20.3355 93.7661 20.3355C92.2598 20.3355 91.8832 19.9589 91.8832 18.4526C91.8832 16.9462 91.5066 16.5697 90.0003 16.5697C88.494 16.5697 88.1174 16.1931 88.1174 14.6867C88.1174 13.1804 88.494 12.8038 90.0003 12.8038C91.5066 12.8038 91.8832 13.1804 91.8832 14.6867ZM155.902 18.4526V24.1013H161.551H167.199V18.4526V12.8038H161.551H155.902V18.4526ZM95.649 29.75V35.3987H90.0003H84.3516V29.75V24.1013H90.0003H95.649V29.75ZM103.181 27.8671C103.181 31.3821 103.306 31.6329 105.064 31.6329C106.821 31.6329 106.946 31.3821 106.946 27.8671C106.946 24.3521 106.821 24.1013 105.064 24.1013C103.306 24.1013 103.181 24.3521 103.181 27.8671ZM88.1174 29.75C88.1174 31.2563 88.494 31.6329 90.0003 31.6329C91.5066 31.6329 91.8832 31.2563 91.8832 29.75C91.8832 28.2437 91.5066 27.8671 90.0003 27.8671C88.494 27.8671 88.1174 28.2437 88.1174 29.75ZM110.712 29.75C110.712 31.2563 111.089 31.6329 112.595 31.6329C114.102 31.6329 114.478 31.2563 114.478 29.75C114.478 28.2437 114.102 27.8671 112.595 27.8671C111.089 27.8671 110.712 28.2437 110.712 29.75ZM69.2883 33.5158C69.2883 35.0221 69.6649 35.3987 71.1713 35.3987C72.6776 35.3987 73.0542 35.0221 73.0542 33.5158C73.0542 32.0095 72.6776 31.6329 71.1713 31.6329C69.6649 31.6329 69.2883 32.0095 69.2883 33.5158ZM5.26953 46.6962V57.9936H7.15244H9.03534V50.462V42.9303H10.9183C12.4246 42.9303 12.8012 43.3069 12.8012 44.8133C12.8012 46.3196 13.1777 46.6962 14.6841 46.6962C16.1904 46.6962 16.567 46.3196 16.567 44.8133C16.567 43.3069 16.1904 42.9303 14.6841 42.9303C13.1777 42.9303 12.8012 42.5538 12.8012 41.0474C12.8012 39.2067 12.9269 39.1645 18.4499 39.1645C23.9728 39.1645 24.0986 39.1224 24.0986 37.2816V35.3987H14.6841H5.26953V46.6962ZM65.5225 41.0474C65.5225 42.5538 65.146 42.9303 63.6396 42.9303C62.1333 42.9303 61.7567 43.3069 61.7567 44.8133C61.7567 46.3196 62.1333 46.6962 63.6396 46.6962C65.146 46.6962 65.5225 47.0727 65.5225 48.5791C65.5225 50.0854 65.146 50.462 63.6396 50.462C62.1333 50.462 61.7567 50.8386 61.7567 52.3449C61.7567 54.102 61.5059 54.2278 57.9909 54.2278C54.4759 54.2278 54.2251 54.3536 54.2251 56.1107C54.2251 57.617 53.8485 57.9936 52.3422 57.9936C50.8359 57.9936 50.4593 58.3702 50.4593 59.8765C50.4593 61.3828 50.8359 61.7594 52.3422 61.7594C53.8485 61.7594 54.2251 62.136 54.2251 63.6423C54.2251 65.1486 54.6017 65.5252 56.108 65.5252C57.6143 65.5252 57.9909 65.1486 57.9909 63.6423C57.9909 62.136 57.6143 61.7594 56.108 61.7594C54.6017 61.7594 54.2251 61.3828 54.2251 59.8765C54.2251 58.0358 54.3509 57.9936 59.8738 57.9936C65.3968 57.9936 65.5225 58.0358 65.5225 59.8765C65.5225 61.3828 65.146 61.7594 63.6396 61.7594C62.1333 61.7594 61.7567 62.136 61.7567 63.6423C61.7567 65.1486 62.1333 65.5252 63.6396 65.5252C65.146 65.5252 65.5225 65.1486 65.5225 63.6423C65.5225 62.136 65.8991 61.7594 67.4054 61.7594C68.9118 61.7594 69.2883 62.136 69.2883 63.6423C69.2883 65.1486 69.6649 65.5252 71.1713 65.5252C73.012 65.5252 73.0542 65.651 73.0542 71.1739C73.0542 76.6969 73.012 76.8227 71.1713 76.8227C69.6649 76.8227 69.2883 77.1992 69.2883 78.7056C69.2883 80.2119 69.6649 80.5885 71.1713 80.5885C72.6776 80.5885 73.0542 80.9651 73.0542 82.4714C73.0542 83.9777 72.6776 84.3543 71.1713 84.3543C69.6649 84.3543 69.2883 84.7309 69.2883 86.2372C69.2883 87.7435 68.9118 88.1201 67.4054 88.1201C65.8991 88.1201 65.5225 88.4967 65.5225 90.003C65.5225 91.5093 65.8991 91.8859 67.4054 91.8859C69.1626 91.8859 69.2883 92.1367 69.2883 95.6517V99.4175H74.9371C80.46 99.4175 80.5858 99.4597 80.5858 101.3C80.5858 103.058 80.335 103.183 76.82 103.183C73.305 103.183 73.0542 103.309 73.0542 105.066C73.0542 106.573 73.4307 106.949 74.9371 106.949C76.4434 106.949 76.82 107.326 76.82 108.832C76.82 110.338 77.1966 110.715 78.7029 110.715C80.2092 110.715 80.5858 110.338 80.5858 108.832C80.5858 107.326 80.9624 106.949 82.4687 106.949C83.975 106.949 84.3516 107.326 84.3516 108.832C84.3516 110.589 84.6024 110.715 88.1174 110.715C91.6324 110.715 91.8832 110.841 91.8832 112.598C91.8832 114.104 92.2598 114.481 93.7661 114.481C95.2725 114.481 95.649 114.104 95.649 112.598C95.649 111.092 96.0256 110.715 97.5319 110.715C99.0383 110.715 99.4148 111.092 99.4148 112.598C99.4148 114.439 99.5406 114.481 105.064 114.481C110.587 114.481 110.712 114.523 110.712 116.364C110.712 118.121 110.461 118.247 106.946 118.247C103.431 118.247 103.181 118.372 103.181 120.13C103.181 121.887 103.431 122.012 106.946 122.012C110.461 122.012 110.712 121.887 110.712 120.13C110.712 118.623 111.089 118.247 112.595 118.247C114.352 118.247 114.478 118.497 114.478 122.012V125.778H118.244C121.759 125.778 122.01 125.904 122.01 127.661C122.01 129.167 122.386 129.544 123.893 129.544C125.399 129.544 125.776 129.921 125.776 131.427C125.776 132.933 126.152 133.31 127.658 133.31C129.416 133.31 129.541 133.561 129.541 137.076C129.541 140.591 129.667 140.841 131.424 140.841C132.931 140.841 133.307 140.465 133.307 138.959C133.307 137.452 133.684 137.076 135.19 137.076C136.696 137.076 137.073 136.699 137.073 135.193C137.073 133.686 137.45 133.31 138.956 133.31C140.462 133.31 140.839 132.933 140.839 131.427C140.839 129.67 141.09 129.544 144.605 129.544C148.12 129.544 148.37 129.418 148.37 127.661C148.37 125.904 148.12 125.778 144.605 125.778C141.09 125.778 140.839 125.652 140.839 123.895C140.839 122.389 140.462 122.012 138.956 122.012C137.45 122.012 137.073 121.636 137.073 120.13C137.073 118.623 137.45 118.247 138.956 118.247C140.462 118.247 140.839 117.87 140.839 116.364C140.839 114.857 141.215 114.481 142.722 114.481C144.479 114.481 144.605 114.23 144.605 110.715C144.605 107.2 144.479 106.949 142.722 106.949C140.965 106.949 140.839 107.2 140.839 110.715C140.839 114.23 140.713 114.481 138.956 114.481C137.45 114.481 137.073 114.857 137.073 116.364C137.073 117.87 136.696 118.247 135.19 118.247C133.433 118.247 133.307 117.996 133.307 114.481C133.307 110.966 133.181 110.715 131.424 110.715C129.918 110.715 129.541 110.338 129.541 108.832C129.541 107.326 129.918 106.949 131.424 106.949C133.181 106.949 133.307 106.698 133.307 103.183C133.307 99.6683 133.433 99.4175 135.19 99.4175C136.696 99.4175 137.073 99.7941 137.073 101.3C137.073 102.807 137.45 103.183 138.956 103.183C140.462 103.183 140.839 102.807 140.839 101.3C140.839 99.7941 140.462 99.4175 138.956 99.4175C137.45 99.4175 137.073 99.041 137.073 97.5346C137.073 96.0283 136.696 95.6517 135.19 95.6517C133.684 95.6517 133.307 96.0283 133.307 97.5346C133.307 99.041 132.931 99.4175 131.424 99.4175C129.667 99.4175 129.541 99.1667 129.541 95.6517V91.8859H125.776H122.01V88.1201C122.01 84.6051 121.884 84.3543 120.127 84.3543C118.62 84.3543 118.244 83.9777 118.244 82.4714C118.244 80.9651 117.867 80.5885 116.361 80.5885C114.855 80.5885 114.478 80.2119 114.478 78.7056C114.478 77.1992 114.855 76.8227 116.361 76.8227C118.202 76.8227 118.244 76.6969 118.244 71.1739V65.5252H123.893C129.416 65.5252 129.541 65.483 129.541 63.6423C129.541 62.136 129.165 61.7594 127.658 61.7594C126.152 61.7594 125.776 61.3828 125.776 59.8765C125.776 58.3702 125.399 57.9936 123.893 57.9936C122.136 57.9936 122.01 57.7428 122.01 54.2278V50.462H125.776H129.541V54.2278C129.541 57.7428 129.667 57.9936 131.424 57.9936C132.931 57.9936 133.307 57.617 133.307 56.1107C133.307 54.6044 133.684 54.2278 135.19 54.2278C136.696 54.2278 137.073 53.8512 137.073 52.3449C137.073 50.5877 136.822 50.462 133.307 50.462C129.792 50.462 129.541 50.3362 129.541 48.5791C129.541 47.0727 129.165 46.6962 127.658 46.6962C126.152 46.6962 125.776 46.3196 125.776 44.8133C125.776 43.3069 125.399 42.9303 123.893 42.9303C122.386 42.9303 122.01 42.5538 122.01 41.0474C122.01 39.2067 121.884 39.1645 116.361 39.1645C110.838 39.1645 110.712 39.2067 110.712 41.0474C110.712 42.5538 110.336 42.9303 108.829 42.9303C107.323 42.9303 106.946 43.3069 106.946 44.8133C106.946 46.3196 107.323 46.6962 108.829 46.6962C110.587 46.6962 110.712 46.947 110.712 50.462C110.712 53.977 110.587 54.2278 108.829 54.2278C107.323 54.2278 106.946 53.8512 106.946 52.3449C106.946 50.8386 106.57 50.462 105.064 50.462C103.557 50.462 103.181 50.0854 103.181 48.5791C103.181 47.0727 102.804 46.6962 101.298 46.6962C99.7914 46.6962 99.4148 47.0727 99.4148 48.5791C99.4148 50.0854 99.0383 50.462 97.5319 50.462C96.0256 50.462 95.649 50.0854 95.649 48.5791C95.649 47.0727 95.2725 46.6962 93.7661 46.6962C92.2598 46.6962 91.8832 47.0727 91.8832 48.5791C91.8832 50.4198 91.7574 50.462 86.2345 50.462C80.7116 50.462 80.5858 50.4198 80.5858 48.5791C80.5858 47.0727 80.2092 46.6962 78.7029 46.6962C77.1966 46.6962 76.82 46.3196 76.82 44.8133C76.82 43.0561 76.5692 42.9303 73.0542 42.9303C69.5392 42.9303 69.2883 42.8046 69.2883 41.0474C69.2883 39.5411 68.9118 39.1645 67.4054 39.1645C65.8991 39.1645 65.5225 39.5411 65.5225 41.0474ZM27.8644 44.8133C27.8644 46.3196 28.241 46.6962 29.7473 46.6962C31.2536 46.6962 31.6302 46.3196 31.6302 44.8133C31.6302 43.3069 31.2536 42.9303 29.7473 42.9303C28.241 42.9303 27.8644 43.3069 27.8644 44.8133ZM118.244 44.8133C118.244 46.5704 117.993 46.6962 114.478 46.6962C110.963 46.6962 110.712 46.5704 110.712 44.8133C110.712 43.0561 110.963 42.9303 114.478 42.9303C117.993 42.9303 118.244 43.0561 118.244 44.8133ZM73.0542 50.462C73.0542 53.977 73.1799 54.2278 74.9371 54.2278C76.4434 54.2278 76.82 54.6044 76.82 56.1107C76.82 57.617 76.4434 57.9936 74.9371 57.9936C73.4307 57.9936 73.0542 58.3702 73.0542 59.8765C73.0542 61.3828 73.4307 61.7594 74.9371 61.7594C76.4434 61.7594 76.82 62.136 76.82 63.6423C76.82 65.3994 77.0708 65.5252 80.5858 65.5252C84.1008 65.5252 84.3516 65.651 84.3516 67.4081C84.3516 68.9145 84.7282 69.291 86.2345 69.291C87.7408 69.291 88.1174 68.9145 88.1174 67.4081C88.1174 65.651 88.3682 65.5252 91.8832 65.5252C95.3982 65.5252 95.649 65.3994 95.649 63.6423C95.649 61.8852 95.8998 61.7594 99.4148 61.7594H103.181V57.9936C103.181 54.4786 103.055 54.2278 101.298 54.2278C99.7914 54.2278 99.4148 53.8512 99.4148 52.3449C99.4148 50.8386 99.7914 50.462 101.298 50.462C102.804 50.462 103.181 50.8386 103.181 52.3449C103.181 53.8512 103.557 54.2278 105.064 54.2278C106.57 54.2278 106.946 54.6044 106.946 56.1107C106.946 57.8678 107.197 57.9936 110.712 57.9936H114.478V54.2278C114.478 50.7128 114.604 50.462 116.361 50.462C118.118 50.462 118.244 50.7128 118.244 54.2278C118.244 57.7428 118.37 57.9936 120.127 57.9936C121.633 57.9936 122.01 58.3702 122.01 59.8765C122.01 61.3828 121.633 61.7594 120.127 61.7594C118.62 61.7594 118.244 62.136 118.244 63.6423C118.244 65.1486 117.867 65.5252 116.361 65.5252C114.855 65.5252 114.478 65.9018 114.478 67.4081C114.478 68.9145 114.102 69.291 112.595 69.291C111.089 69.291 110.712 69.6676 110.712 71.1739C110.712 72.6803 111.089 73.0568 112.595 73.0568C114.102 73.0568 114.478 73.4334 114.478 74.9398C114.478 76.4461 114.102 76.8227 112.595 76.8227C111.089 76.8227 110.712 77.1992 110.712 78.7056C110.712 80.2119 111.089 80.5885 112.595 80.5885C114.102 80.5885 114.478 80.9651 114.478 82.4714C114.478 83.9777 114.102 84.3543 112.595 84.3543C111.089 84.3543 110.712 84.7309 110.712 86.2372C110.712 87.7435 111.089 88.1201 112.595 88.1201C114.352 88.1201 114.478 88.3709 114.478 91.8859C114.478 95.4009 114.352 95.6517 112.595 95.6517C110.838 95.6517 110.712 95.9025 110.712 99.4175C110.712 102.933 110.838 103.183 112.595 103.183C114.102 103.183 114.478 102.807 114.478 101.3C114.478 99.7941 114.855 99.4175 116.361 99.4175C117.867 99.4175 118.244 99.041 118.244 97.5346C118.244 96.0283 118.62 95.6517 120.127 95.6517C121.633 95.6517 122.01 96.0283 122.01 97.5346C122.01 99.041 122.386 99.4175 123.893 99.4175C125.399 99.4175 125.776 99.7941 125.776 101.3C125.776 102.807 126.152 103.183 127.658 103.183C129.165 103.183 129.541 103.56 129.541 105.066C129.541 106.823 129.291 106.949 125.776 106.949H122.01V103.183C122.01 99.6683 121.884 99.4175 120.127 99.4175C118.37 99.4175 118.244 99.6683 118.244 103.183C118.244 106.698 118.118 106.949 116.361 106.949C114.855 106.949 114.478 107.326 114.478 108.832C114.478 110.589 114.729 110.715 118.244 110.715C121.759 110.715 122.01 110.841 122.01 112.598C122.01 114.439 121.884 114.481 116.361 114.481H110.712V108.832C110.712 103.309 110.67 103.183 108.829 103.183C107.072 103.183 106.946 103.434 106.946 106.949V110.715H103.181C99.6657 110.715 99.4148 110.589 99.4148 108.832C99.4148 107.326 99.0383 106.949 97.5319 106.949C96.0256 106.949 95.649 106.573 95.649 105.066C95.649 103.56 95.2725 103.183 93.7661 103.183C92.2598 103.183 91.8832 103.56 91.8832 105.066C91.8832 106.823 91.6324 106.949 88.1174 106.949C84.6024 106.949 84.3516 106.823 84.3516 105.066C84.3516 103.56 84.7282 103.183 86.2345 103.183C87.7408 103.183 88.1174 102.807 88.1174 101.3C88.1174 99.5433 88.3682 99.4175 91.8832 99.4175C95.3982 99.4175 95.649 99.5433 95.649 101.3C95.649 102.807 96.0256 103.183 97.5319 103.183C99.0383 103.183 99.4148 103.56 99.4148 105.066C99.4148 106.573 99.7914 106.949 101.298 106.949C103.055 106.949 103.181 106.698 103.181 103.183C103.181 99.6683 103.306 99.4175 105.064 99.4175C106.57 99.4175 106.946 99.041 106.946 97.5346C106.946 95.7775 106.696 95.6517 103.181 95.6517C99.6657 95.6517 99.4148 95.5259 99.4148 93.7688C99.4148 92.2625 99.7914 91.8859 101.298 91.8859C103.055 91.8859 103.181 91.6351 103.181 88.1201C103.181 84.6051 103.055 84.3543 101.298 84.3543C99.7914 84.3543 99.4148 83.9777 99.4148 82.4714C99.4148 80.9651 99.0383 80.5885 97.5319 80.5885C96.0256 80.5885 95.649 80.2119 95.649 78.7056C95.649 77.1992 95.2725 76.8227 93.7661 76.8227C92.2598 76.8227 91.8832 77.1992 91.8832 78.7056C91.8832 80.5463 91.7574 80.5885 86.2345 80.5885H80.5858V74.9398C80.5858 69.4168 80.5436 69.291 78.7029 69.291C77.1966 69.291 76.82 68.9145 76.82 67.4081C76.82 65.9018 76.4434 65.5252 74.9371 65.5252C73.4307 65.5252 73.0542 65.1486 73.0542 63.6423C73.0542 62.136 72.6776 61.7594 71.1713 61.7594C69.6649 61.7594 69.2883 61.3828 69.2883 59.8765C69.2883 58.3702 68.9118 57.9936 67.4054 57.9936C65.6483 57.9936 65.5225 57.7428 65.5225 54.2278C65.5225 50.7128 65.6483 50.462 67.4054 50.462C68.9118 50.462 69.2883 50.0854 69.2883 48.5791C69.2883 47.0727 69.6649 46.6962 71.1713 46.6962C72.9284 46.6962 73.0542 46.947 73.0542 50.462ZM95.649 54.2278V57.9936H88.1174H80.5858V56.1107C80.5858 54.27 80.7116 54.2278 86.2345 54.2278C91.7574 54.2278 91.8832 54.1856 91.8832 52.3449C91.8832 50.8386 92.2598 50.462 93.7661 50.462C95.5233 50.462 95.649 50.7128 95.649 54.2278ZM69.2883 56.1107C69.2883 57.617 69.6649 57.9936 71.1713 57.9936C72.6776 57.9936 73.0542 57.617 73.0542 56.1107C73.0542 54.6044 72.6776 54.2278 71.1713 54.2278C69.6649 54.2278 69.2883 54.6044 69.2883 56.1107ZM140.839 56.1107C140.839 57.617 141.215 57.9936 142.722 57.9936C144.228 57.9936 144.605 57.617 144.605 56.1107C144.605 54.6044 144.228 54.2278 142.722 54.2278C141.215 54.2278 140.839 54.6044 140.839 56.1107ZM167.199 59.8765C167.199 61.3828 167.576 61.7594 169.082 61.7594C170.589 61.7594 170.965 62.136 170.965 63.6423C170.965 65.1486 170.589 65.5252 169.082 65.5252C167.576 65.5252 167.199 65.1486 167.199 63.6423C167.199 62.136 166.823 61.7594 165.317 61.7594C163.81 61.7594 163.434 61.3828 163.434 59.8765C163.434 58.3702 163.81 57.9936 165.317 57.9936C166.823 57.9936 167.199 58.3702 167.199 59.8765ZM9.03534 67.4081C9.03534 72.9311 9.07752 73.0568 10.9183 73.0568C12.4246 73.0568 12.8012 72.6803 12.8012 71.1739C12.8012 69.6676 13.1777 69.291 14.6841 69.291C16.1904 69.291 16.567 68.9145 16.567 67.4081C16.567 65.9018 16.1904 65.5252 14.6841 65.5252C13.1777 65.5252 12.8012 65.1486 12.8012 63.6423C12.8012 62.136 12.4246 61.7594 10.9183 61.7594C9.07752 61.7594 9.03534 61.8852 9.03534 67.4081ZM95.649 67.4081C95.649 69.2489 95.7748 69.291 101.298 69.291C106.821 69.291 106.946 69.2489 106.946 67.4081C106.946 65.5674 106.821 65.5252 101.298 65.5252C95.7748 65.5252 95.649 65.5674 95.649 67.4081ZM133.307 67.4081C133.307 68.9145 133.684 69.291 135.19 69.291C136.696 69.291 137.073 68.9145 137.073 67.4081C137.073 65.9018 136.696 65.5252 135.19 65.5252C133.684 65.5252 133.307 65.9018 133.307 67.4081ZM148.37 69.291C148.37 72.806 148.245 73.0568 146.488 73.0568C144.981 73.0568 144.605 73.4334 144.605 74.9398C144.605 76.4461 144.981 76.8227 146.488 76.8227C147.994 76.8227 148.37 76.4461 148.37 74.9398C148.37 73.099 148.496 73.0568 154.019 73.0568C159.542 73.0568 159.668 73.0147 159.668 71.1739C159.668 69.6676 159.291 69.291 157.785 69.291C156.279 69.291 155.902 68.9145 155.902 67.4081C155.902 65.651 155.651 65.5252 152.136 65.5252H148.37V69.291ZM61.7567 71.1739C61.7567 72.6803 62.1333 73.0568 63.6396 73.0568C65.146 73.0568 65.5225 72.6803 65.5225 71.1739C65.5225 69.6676 65.146 69.291 63.6396 69.291C62.1333 69.291 61.7567 69.6676 61.7567 71.1739ZM88.1174 74.9398C88.1174 76.4461 88.494 76.8227 90.0003 76.8227C91.5066 76.8227 91.8832 76.4461 91.8832 74.9398C91.8832 73.4334 91.5066 73.0568 90.0003 73.0568C88.494 73.0568 88.1174 73.4334 88.1174 74.9398ZM95.649 74.9398C95.649 76.4461 96.0256 76.8227 97.5319 76.8227C99.0383 76.8227 99.4148 76.4461 99.4148 74.9398C99.4148 73.4334 99.0383 73.0568 97.5319 73.0568C96.0256 73.0568 95.649 73.4334 95.649 74.9398ZM106.946 74.9398C106.946 76.4461 107.323 76.8227 108.829 76.8227C110.336 76.8227 110.712 76.4461 110.712 74.9398C110.712 73.4334 110.336 73.0568 108.829 73.0568C107.323 73.0568 106.946 73.4334 106.946 74.9398ZM5.26953 82.4714V88.1201H9.03534C12.5504 88.1201 12.8012 87.9943 12.8012 86.2372C12.8012 84.7309 12.4246 84.3543 10.9183 84.3543C9.16112 84.3543 9.03534 84.1035 9.03534 80.5885C9.03534 77.0735 8.90957 76.8227 7.15244 76.8227C5.31171 76.8227 5.26953 76.9484 5.26953 82.4714ZM12.8012 78.7056C12.8012 80.2119 13.1777 80.5885 14.6841 80.5885C16.1904 80.5885 16.567 80.2119 16.567 78.7056C16.567 77.1992 16.1904 76.8227 14.6841 76.8227C13.1777 76.8227 12.8012 77.1992 12.8012 78.7056ZM76.82 78.7056C76.82 80.2119 76.4434 80.5885 74.9371 80.5885C73.4307 80.5885 73.0542 80.2119 73.0542 78.7056C73.0542 77.1992 73.4307 76.8227 74.9371 76.8227C76.4434 76.8227 76.82 77.1992 76.82 78.7056ZM42.9277 82.4714C42.9277 83.9777 43.3042 84.3543 44.8106 84.3543C46.3169 84.3543 46.6935 83.9777 46.6935 82.4714C46.6935 80.9651 46.3169 80.5885 44.8106 80.5885C43.3042 80.5885 42.9277 80.9651 42.9277 82.4714ZM103.181 82.4714C103.181 84.2285 103.431 84.3543 106.946 84.3543C110.461 84.3543 110.712 84.2285 110.712 82.4714C110.712 80.7142 110.461 80.5885 106.946 80.5885C103.431 80.5885 103.181 80.7142 103.181 82.4714ZM35.396 90.003V95.6517H29.7473H24.0986V90.003V84.3543H29.7473H35.396V90.003ZM76.82 86.2372C76.82 87.7435 76.4434 88.1201 74.9371 88.1201C73.4307 88.1201 73.0542 87.7435 73.0542 86.2372C73.0542 84.7309 73.4307 84.3543 74.9371 84.3543C76.4434 84.3543 76.82 84.7309 76.82 86.2372ZM95.649 90.003V95.6517H90.0003H84.3516V90.003V84.3543H90.0003H95.649V90.003ZM125.776 86.2372C125.776 87.7435 126.152 88.1201 127.658 88.1201C129.165 88.1201 129.541 87.7435 129.541 86.2372C129.541 84.7309 129.165 84.3543 127.658 84.3543C126.152 84.3543 125.776 84.7309 125.776 86.2372ZM155.902 90.003V95.6517H150.253H144.605V90.003V84.3543H150.253H155.902V90.003ZM27.8644 90.003C27.8644 91.5093 28.241 91.8859 29.7473 91.8859C31.2536 91.8859 31.6302 91.5093 31.6302 90.003C31.6302 88.4967 31.2536 88.1201 29.7473 88.1201C28.241 88.1201 27.8644 88.4967 27.8644 90.003ZM88.1174 90.003C88.1174 91.5093 88.494 91.8859 90.0003 91.8859C91.5066 91.8859 91.8832 91.5093 91.8832 90.003C91.8832 88.4967 91.5066 88.1201 90.0003 88.1201C88.494 88.1201 88.1174 88.4967 88.1174 90.003ZM148.37 90.003C148.37 91.5093 148.747 91.8859 150.253 91.8859C151.76 91.8859 152.136 91.5093 152.136 90.003C152.136 88.4967 151.76 88.1201 150.253 88.1201C148.747 88.1201 148.37 88.4967 148.37 90.003ZM80.5858 93.7688C80.5858 95.2751 80.2092 95.6517 78.7029 95.6517C77.1966 95.6517 76.82 95.2751 76.82 93.7688C76.82 92.2625 77.1966 91.8859 78.7029 91.8859C80.2092 91.8859 80.5858 92.2625 80.5858 93.7688ZM155.902 105.066C155.902 106.823 156.153 106.949 159.668 106.949C163.183 106.949 163.434 106.823 163.434 105.066C163.434 103.309 163.183 103.183 159.668 103.183C156.153 103.183 155.902 103.309 155.902 105.066ZM50.4593 108.832C50.4593 110.338 50.0827 110.715 48.5764 110.715C47.0701 110.715 46.6935 110.338 46.6935 108.832C46.6935 107.326 47.0701 106.949 48.5764 106.949C50.0827 106.949 50.4593 107.326 50.4593 108.832ZM24.0986 112.598C24.0986 114.104 23.722 114.481 22.2157 114.481C20.7094 114.481 20.3328 114.104 20.3328 112.598C20.3328 111.092 20.7094 110.715 22.2157 110.715C23.722 110.715 24.0986 111.092 24.0986 112.598ZM129.541 112.598C129.541 114.104 129.165 114.481 127.658 114.481C126.152 114.481 125.776 114.104 125.776 112.598C125.776 111.092 126.152 110.715 127.658 110.715C129.165 110.715 129.541 111.092 129.541 112.598ZM170.965 112.598C170.965 114.104 171.342 114.481 172.848 114.481C174.355 114.481 174.731 114.104 174.731 112.598C174.731 111.092 174.355 110.715 172.848 110.715C171.342 110.715 170.965 111.092 170.965 112.598ZM31.6302 116.364C31.6302 117.87 31.2536 118.247 29.7473 118.247C28.241 118.247 27.8644 117.87 27.8644 116.364C27.8644 114.857 28.241 114.481 29.7473 114.481C31.2536 114.481 31.6302 114.857 31.6302 116.364ZM24.0986 120.13C24.0986 121.636 23.722 122.012 22.2157 122.012C20.7094 122.012 20.3328 121.636 20.3328 120.13C20.3328 118.623 20.7094 118.247 22.2157 118.247C23.722 118.247 24.0986 118.623 24.0986 120.13ZM133.307 120.13C133.307 121.636 133.684 122.012 135.19 122.012C136.696 122.012 137.073 122.389 137.073 123.895C137.073 125.402 137.45 125.778 138.956 125.778C140.462 125.778 140.839 126.155 140.839 127.661C140.839 129.167 140.462 129.544 138.956 129.544C137.45 129.544 137.073 129.167 137.073 127.661C137.073 126.155 136.696 125.778 135.19 125.778C133.684 125.778 133.307 125.402 133.307 123.895C133.307 122.389 132.931 122.012 131.424 122.012C129.918 122.012 129.541 122.389 129.541 123.895C129.541 125.402 129.165 125.778 127.658 125.778C126.152 125.778 125.776 125.402 125.776 123.895C125.776 122.389 125.399 122.012 123.893 122.012C122.386 122.012 122.01 121.636 122.01 120.13C122.01 118.289 122.136 118.247 127.658 118.247C133.181 118.247 133.307 118.289 133.307 120.13ZM5.26953 127.661C5.26953 133.184 5.31171 133.31 7.15244 133.31C8.65876 133.31 9.03534 132.933 9.03534 131.427C9.03534 129.921 9.41193 129.544 10.9183 129.544C12.4246 129.544 12.8012 129.921 12.8012 131.427C12.8012 133.184 13.052 133.31 16.567 133.31C20.082 133.31 20.3328 133.436 20.3328 135.193C20.3328 137.033 20.207 137.076 14.6841 137.076C9.16112 137.076 9.03534 137.118 9.03534 138.959C9.03534 140.465 8.65876 140.841 7.15244 140.841C5.64611 140.841 5.26953 141.218 5.26953 142.724C5.26953 144.231 5.64611 144.607 7.15244 144.607C8.65876 144.607 9.03534 144.231 9.03534 142.724C9.03534 140.967 9.28615 140.841 12.8012 140.841C16.3162 140.841 16.567 140.967 16.567 142.724C16.567 144.482 16.8178 144.607 20.3328 144.607H24.0986V138.959C24.0986 133.436 24.1408 133.31 25.9815 133.31C27.4878 133.31 27.8644 133.686 27.8644 135.193C27.8644 136.95 28.1152 137.076 31.6302 137.076C35.1452 137.076 35.396 136.95 35.396 135.193C35.396 133.436 35.1452 133.31 31.6302 133.31C28.1152 133.31 27.8644 133.184 27.8644 131.427C27.8644 129.921 28.241 129.544 29.7473 129.544C31.2536 129.544 31.6302 129.167 31.6302 127.661C31.6302 126.155 31.2536 125.778 29.7473 125.778C28.241 125.778 27.8644 126.155 27.8644 127.661C27.8644 129.167 27.4878 129.544 25.9815 129.544C24.4752 129.544 24.0986 129.921 24.0986 131.427C24.0986 132.933 23.722 133.31 22.2157 133.31C20.7094 133.31 20.3328 132.933 20.3328 131.427C20.3328 129.921 19.9562 129.544 18.4499 129.544C16.9436 129.544 16.567 129.167 16.567 127.661C16.567 125.904 16.3162 125.778 12.8012 125.778C9.28615 125.778 9.03534 125.652 9.03534 123.895C9.03534 122.389 8.65876 122.012 7.15244 122.012C5.31171 122.012 5.26953 122.138 5.26953 127.661ZM35.396 127.661C35.396 129.167 35.7726 129.544 37.2789 129.544C38.7853 129.544 39.1618 129.167 39.1618 127.661C39.1618 126.155 38.7853 125.778 37.2789 125.778C35.7726 125.778 35.396 126.155 35.396 127.661ZM99.4148 127.661C99.4148 129.167 99.0383 129.544 97.5319 129.544C95.7748 129.544 95.649 129.795 95.649 133.31V137.076H99.4148C102.93 137.076 103.181 136.95 103.181 135.193C103.181 133.352 103.306 133.31 108.829 133.31C114.352 133.31 114.478 133.268 114.478 131.427C114.478 129.67 114.227 129.544 110.712 129.544C107.197 129.544 106.946 129.418 106.946 127.661C106.946 125.904 106.696 125.778 103.181 125.778C99.6657 125.778 99.4148 125.904 99.4148 127.661ZM103.181 131.427C103.181 132.933 102.804 133.31 101.298 133.31C99.7914 133.31 99.4148 132.933 99.4148 131.427C99.4148 129.921 99.7914 129.544 101.298 129.544C102.804 129.544 103.181 129.921 103.181 131.427ZM133.307 131.427C133.307 132.933 132.931 133.31 131.424 133.31C129.918 133.31 129.541 132.933 129.541 131.427C129.541 129.921 129.918 129.544 131.424 129.544C132.931 129.544 133.307 129.921 133.307 131.427ZM27.8644 142.724C27.8644 144.231 28.241 144.607 29.7473 144.607C31.2536 144.607 31.6302 144.231 31.6302 142.724C31.6302 141.218 31.2536 140.841 29.7473 140.841C28.241 140.841 27.8644 141.218 27.8644 142.724ZM80.5858 142.724C80.5858 144.231 80.2092 144.607 78.7029 144.607C77.1966 144.607 76.82 144.231 76.82 142.724C76.82 141.218 77.1966 140.841 78.7029 140.841C80.2092 140.841 80.5858 141.218 80.5858 142.724ZM95.649 150.256V155.905H90.0003H84.3516V150.256V144.607H90.0003H95.649V150.256ZM110.712 146.49C110.712 147.997 111.089 148.373 112.595 148.373C114.102 148.373 114.478 147.997 114.478 146.49C114.478 144.984 114.102 144.607 112.595 144.607C111.089 144.607 110.712 144.984 110.712 146.49ZM118.244 146.49C118.244 147.997 118.62 148.373 120.127 148.373C121.633 148.373 122.01 147.997 122.01 146.49C122.01 144.984 121.633 144.607 120.127 144.607C118.62 144.607 118.244 144.984 118.244 146.49ZM129.541 146.49C129.541 147.997 129.918 148.373 131.424 148.373C132.931 148.373 133.307 147.997 133.307 146.49C133.307 144.984 132.931 144.607 131.424 144.607C129.918 144.607 129.541 144.984 129.541 146.49ZM155.902 150.256V155.905H150.253H144.605V150.256V144.607H150.253H155.902V150.256ZM163.434 146.49C163.434 147.997 163.057 148.373 161.551 148.373C160.044 148.373 159.668 147.997 159.668 146.49C159.668 144.984 160.044 144.607 161.551 144.607C163.057 144.607 163.434 144.984 163.434 146.49ZM5.26953 161.553V174.734H18.4499H31.6302V161.553V148.373H18.4499H5.26953V161.553ZM88.1174 150.256C88.1174 151.762 88.494 152.139 90.0003 152.139C91.5066 152.139 91.8832 151.762 91.8832 150.256C91.8832 148.75 91.5066 148.373 90.0003 148.373C88.494 148.373 88.1174 148.75 88.1174 150.256ZM148.37 150.256C148.37 151.762 148.747 152.139 150.253 152.139C151.76 152.139 152.136 151.762 152.136 150.256C152.136 148.75 151.76 148.373 150.253 148.373C148.747 148.373 148.37 148.75 148.37 150.256ZM27.8644 161.553V170.968H18.4499H9.03534V161.553V152.139H18.4499H27.8644V161.553ZM80.5858 154.022C80.5858 155.863 80.46 155.905 74.9371 155.905H69.2883V159.671C69.2883 163.186 69.4141 163.436 71.1713 163.436C72.6776 163.436 73.0542 163.06 73.0542 161.553C73.0542 159.796 73.305 159.671 76.82 159.671C80.335 159.671 80.5858 159.796 80.5858 161.553C80.5858 163.311 80.335 163.436 76.82 163.436C73.305 163.436 73.0542 163.562 73.0542 165.319C73.0542 166.826 72.6776 167.202 71.1713 167.202C69.6649 167.202 69.2883 166.826 69.2883 165.319C69.2883 163.813 68.9118 163.436 67.4054 163.436C65.8991 163.436 65.5225 163.06 65.5225 161.553C65.5225 160.047 65.146 159.671 63.6396 159.671C61.8825 159.671 61.7567 159.921 61.7567 163.436C61.7567 166.951 61.6309 167.202 59.8738 167.202C58.3675 167.202 57.9909 166.826 57.9909 165.319C57.9909 163.813 57.6143 163.436 56.108 163.436C54.6017 163.436 54.2251 163.06 54.2251 161.553C54.2251 159.796 54.4759 159.671 57.9909 159.671C61.5059 159.671 61.7567 159.545 61.7567 157.788C61.7567 156.281 62.1333 155.905 63.6396 155.905C65.146 155.905 65.5225 155.528 65.5225 154.022V152.139H73.0542H80.5858V154.022ZM167.199 154.022C167.199 155.779 167.45 155.905 170.965 155.905C174.48 155.905 174.731 155.779 174.731 154.022C174.731 152.265 174.48 152.139 170.965 152.139C167.45 152.139 167.199 152.265 167.199 154.022ZM12.8012 161.553V167.202H18.4499H24.0986V161.553V155.905H18.4499H12.8012V161.553ZM122.01 157.788C122.01 159.294 122.386 159.671 123.893 159.671C125.399 159.671 125.776 160.047 125.776 161.553C125.776 163.06 125.399 163.436 123.893 163.436C122.386 163.436 122.01 163.813 122.01 165.319C122.01 166.826 121.633 167.202 120.127 167.202C118.37 167.202 118.244 166.951 118.244 163.436C118.244 159.921 118.118 159.671 116.361 159.671C114.855 159.671 114.478 159.294 114.478 157.788C114.478 156.031 114.729 155.905 118.244 155.905C121.759 155.905 122.01 156.031 122.01 157.788ZM50.4593 161.553C50.4593 163.06 50.0827 163.436 48.5764 163.436C47.0701 163.436 46.6935 163.06 46.6935 161.553C46.6935 160.047 47.0701 159.671 48.5764 159.671C50.0827 159.671 50.4593 160.047 50.4593 161.553ZM91.8832 161.553C91.8832 163.06 92.2598 163.436 93.7661 163.436C95.2725 163.436 95.649 163.813 95.649 165.319C95.649 166.826 95.2725 167.202 93.7661 167.202C92.2598 167.202 91.8832 166.826 91.8832 165.319C91.8832 163.813 91.5066 163.436 90.0003 163.436C88.494 163.436 88.1174 163.06 88.1174 161.553C88.1174 160.047 88.494 159.671 90.0003 159.671C91.5066 159.671 91.8832 160.047 91.8832 161.553ZM155.902 163.436C155.902 166.951 155.776 167.202 154.019 167.202C152.513 167.202 152.136 167.579 152.136 169.085C152.136 170.591 151.76 170.968 150.253 170.968C148.747 170.968 148.37 170.591 148.37 169.085C148.37 167.579 148.747 167.202 150.253 167.202C151.76 167.202 152.136 166.826 152.136 165.319C152.136 163.813 151.76 163.436 150.253 163.436C148.747 163.436 148.37 163.06 148.37 161.553C148.37 159.796 148.621 159.671 152.136 159.671H155.902V163.436ZM50.4593 169.085C50.4593 170.591 50.0827 170.968 48.5764 170.968C47.0701 170.968 46.6935 170.591 46.6935 169.085C46.6935 167.579 47.0701 167.202 48.5764 167.202C50.0827 167.202 50.4593 167.579 50.4593 169.085ZM80.5858 172.851C80.5858 174.357 80.9624 174.734 82.4687 174.734C83.975 174.734 84.3516 174.357 84.3516 172.851C84.3516 171.345 83.975 170.968 82.4687 170.968C80.9624 170.968 80.5858 171.345 80.5858 172.851Z" fill="#EFE3CD"/>
</svg>
